<?xml version="1.0" encoding="UTF-8" standalone="no"?>
<!-- Created with Fritzing (https://fritzing.org/) -->

<svg
   xmlns:dc="http://purl.org/dc/elements/1.1/"
   xmlns:cc="http://creativecommons.org/ns#"
   xmlns:rdf="http://www.w3.org/1999/02/22-rdf-syntax-ns#"
   xmlns:svg="http://www.w3.org/2000/svg"
   xmlns="http://www.w3.org/2000/svg"
   xmlns:sodipodi="http://sodipodi.sourceforge.net/DTD/sodipodi-0.dtd"
   xmlns:inkscape="http://www.inkscape.org/namespaces/inkscape"
   version="1.2"
   x="0in"
   y="0in"
   width="1.62111in"
   height="2.66911in"
   viewBox="0 0 116.72 192.176"
   id="svg2019"
   sodipodi:docname="back-silk.svg"
   inkscape:version="0.92.5 (2060ec1f9f, 2020-04-08)">
  <metadata
     id="metadata2025">
    <rdf:RDF>
      <cc:Work
         rdf:about="">
        <dc:title></dc:title>
        <dc:format>image/svg+xml</dc:format>
        <dc:type
           rdf:resource="http://purl.org/dc/dcmitype/StillImage" />
      </cc:Work>
    </rdf:RDF>
  </metadata>
  <defs
     id="defs2023" />
  <sodipodi:namedview
     pagecolor="#ffffff"
     bordercolor="#666666"
     borderopacity="1"
     objecttolerance="10"
     gridtolerance="10"
     guidetolerance="10"
     inkscape:pageopacity="0"
     inkscape:pageshadow="2"
     inkscape:window-width="640"
     inkscape:window-height="480"
     id="namedview2021"
     showgrid="false"
     showguides="true"
     inkscape:guide-bbox="true"
     inkscape:object-paths="true"
     inkscape:snap-smooth-nodes="true"
     inkscape:snap-bbox="true"
     inkscape:bbox-nodes="true"
     inkscape:zoom="2.0235365"
     inkscape:cx="207.10473"
     inkscape:cy="162.72154"
     inkscape:current-layer="svg2019">
    <sodipodi:guide
       position="33.86127,191.25331"
       orientation="0,1"
       id="guide2040"
       inkscape:locked="false" />
    <sodipodi:guide
       position="0,131.94727"
       orientation="1,0"
       id="guide2042"
       inkscape:locked="false" />
    <sodipodi:guide
       position="71.347912,0.82500207"
       orientation="0,1"
       id="guide2044"
       inkscape:locked="false" />
    <sodipodi:guide
       position="116.72056,23.906176"
       orientation="1,0"
       id="guide2046"
       inkscape:locked="false" />
  </sodipodi:namedview>
  <path
     style="fill:#000000;stroke-width:1"
     d="m 112.44363,176.78916 c 0.93459,-0.37808 1.87211,-1.73555 1.87211,-2.7107 0,-1.10011 -0.84025,-1.90993 -2.58328,-2.48973 -1.90104,-0.63237 -1.96395,-0.56892 -2.10629,2.12424 -0.16477,3.11732 -0.0871,3.32476 1.23666,3.30469 0.58052,-0.009 1.2919,-0.11163 1.5808,-0.2285 z m -1.91697,-1.77218 c 0.11582,-0.62339 0.15562,-1.22235 0.0884,-1.33104 -0.21799,-0.35273 0.1985,-1.69943 0.52557,-1.69943 0.67802,0 2.14723,1.38058 2.14846,2.01886 0.001,0.7914 -1.04343,2.00511 -1.94726,2.2617 -0.93348,0.265 -1.06051,0.0702 -0.81521,-1.25009 z m -7.83461,1.66465 c 1.37331,-0.49622 1.32067,-0.98508 -0.0834,-0.77453 -0.63975,0.0959 -1.16266,0.0764 -1.16201,-0.0434 6.3e-4,-0.11986 0.28185,-0.8993 0.62491,-1.73207 0.7459,-1.81072 0.79284,-2.3974 0.19182,-2.3974 -0.46216,0 -1.38038,2.18244 -1.71058,4.06575 -0.14138,0.8064 -0.0919,0.92945 0.42955,1.06908 0.71323,0.19097 0.64063,0.19893 1.70968,-0.18735 z m 4.5072,-0.70788 c 0.49019,-0.49018 0.35253,-0.7066 -0.44944,-0.7066 -0.60652,0 -0.78534,-0.1318 -0.923,-0.68027 -0.14748,-0.58762 -0.008,-0.82824 1.02904,-1.76651 1.20297,-1.08912 1.13191,-1.31096 -0.29726,-0.92791 -0.65025,0.17428 -1.44847,1.3692 -1.69548,2.53809 -0.13206,0.62492 -0.0539,0.91966 0.35131,1.32488 0.57904,0.57904 1.52055,0.6826 1.98483,0.21832 z M 4.2877574,175.28621 c 1.8349,-1.36598 3.53301,-1.79536 3.53301,-0.89333 0,0.56889 0.7585,1.12663 1.53217,1.12663 0.40648,0 0.7390496,-0.11356 0.7390496,-0.25236 0,-0.1388 -0.2248096,-0.25235 -0.4995896,-0.25235 -0.32878,0 -0.67565,-0.34512 -1.01456,-1.00943 -0.42965,-0.8422 -0.64162,-1.00943 -1.27944,-1.00943 -0.80217,0 -1.96735,0.50704 -2.98158,1.29746 -0.33101,0.25797 -0.82735,0.46904 -1.10299,0.46904 -0.46861,0 -0.49153,-0.12295 -0.35287,-1.89384 0.24034,-3.06959 -0.27821,-3.46946 -1.72096,-1.32709 -1.10583002,1.64205 -1.17683002,2.43078 -0.10817,1.20207 l 0.76817,-0.88325 -0.11341,1.68359 c -0.0687,1.02024 -0.007,1.79083 0.15877,1.95577 0.42215,0.42214 1.74381,0.30662 2.44246,-0.21348 z m 34.0300466,-3.06608 c 2.889102,-0.56812 4.240408,-2.16724 5.765237,-6.82248 l 0.941555,-2.87456 -0.02525,-4.92483 c -0.02117,-4.12276 -0.107721,-5.2119 -0.531331,-6.68748 -0.278323,-0.96946 -0.817438,-2.89826 -1.198037,-4.28623 -0.605942,-2.20974 -1.343709,-4.11112 -2.511237,-6.47202 -0.315921,-0.63884 -0.297211,-0.6744 0.431603,-0.82016 0.419023,-0.0838 1.151618,-0.15238 1.627986,-0.15238 0.476379,0 1.378044,-0.12889 2.003711,-0.28644 0.659429,-0.16604 1.230298,-0.19256 1.358186,-0.0631 0.121339,0.12283 0.243295,2.09711 0.271024,4.38726 0.04179,3.44825 0.148087,4.51088 0.618799,6.18276 0.312624,1.11037 0.624069,2.41632 0.692109,2.90211 0.589955,4.21209 2.997529,12.15348 4.244839,14.00164 1.27632,1.89115 5.155457,4.46501 7.230384,4.79747 0.589161,0.0944 1.135278,0.27532 1.213594,0.40204 0.166235,0.26897 1.44755,0.29298 3.362735,0.0631 2.318529,-0.2784 4.841587,-2.41648 6.502904,-5.51067 1.650357,-3.07377 1.267179,-8.33338 -0.795442,-10.91838 -1.053368,-1.32015 -3.780998,-2.48616 -6.307837,-2.69649 -1.970711,-0.16404 -2.05197,-0.14813 -3.406827,0.66682 -1.108121,0.66655 -1.521764,1.10943 -2.051529,2.19656 -1.316421,2.70137 -1.129181,6.17912 0.410886,7.63175 1.047094,0.98764 1.904104,1.41231 3.260702,1.61575 2.567557,0.38503 4.047093,-1.01942 4.054105,-3.84838 0.0044,-1.75705 -0.292579,-2.23312 -1.693192,-2.71463 -1.002694,-0.34471 -2.466826,-0.0459 -2.466826,0.50348 0,0.27577 0.314653,0.37133 1.222679,0.37133 1.507067,0 2.058366,0.51256 2.057032,1.91255 -0.0011,1.23775 -0.787096,2.5647 -1.646797,2.78047 -1.82947,0.45917 -3.949999,-0.57671 -4.799347,-2.34447 -1.235711,-2.57192 0.477405,-6.9814 3.042944,-7.8324 0.995549,-0.33023 4.654987,0.1872 5.462668,0.7724 0.325172,0.2356 0.949329,0.6791 1.387007,0.98555 0.437679,0.30645 1.119049,1.18497 1.514146,1.95227 0.655812,1.2736 0.718372,1.62656 0.718372,4.05302 0,2.10177 -0.104635,2.89385 -0.499919,3.78537 -0.274949,0.62009 -0.621566,1.24099 -0.770249,1.37979 -0.148682,0.1388 -0.581829,0.72011 -0.962548,1.29181 -0.836613,1.25629 -2.417409,2.56772 -3.519499,2.91977 -3.870912,1.23654 -10.257903,-1.82638 -12.209032,-5.85491 -1.456105,-3.00645 -1.93093,-4.31926 -2.235097,-6.17976 -0.181528,-1.11038 -0.572921,-2.87058 -0.869756,-3.91155 -1.743647,-6.11478 -1.931338,-7.29101 -2.070814,-12.97776 l -0.08005,-3.26198 2.01886,-0.3322 c 1.110371,-0.1827 2.456969,-0.49908 2.992435,-0.70304 l 0.973575,-0.37085 -0.163711,0.81056 c -0.384269,1.90259 -0.454096,5.54679 -0.126057,6.57923 0.622349,1.95874 2.427497,4.14373 3.894496,4.71401 3.446751,1.33989 6.547238,1.51826 8.519758,0.49013 0.575787,-0.30012 1.631536,-0.76442 2.346093,-1.03177 1.70176,-0.63671 2.977087,-1.79362 3.864793,-3.50592 0.395759,-0.76339 1.028781,-1.95149 1.406733,-2.64024 0.958822,-1.7473 1.63072,-3.59445 1.79346,-4.9305 0.07608,-0.62458 0.351061,-1.81697 0.611059,-2.64975 0.259998,-0.83279 0.674214,-2.16417 0.920485,-2.95865 0.246272,-0.79447 0.709155,-1.7264 1.028626,-2.07094 0.319472,-0.34454 0.580859,-0.80172 0.580859,-1.01599 0,-0.21425 0.113566,-0.38955 0.252358,-0.38955 0.138803,0 0.252357,0.40311 0.252357,0.89579 0,1.86847 1.251248,3.00338 3.31194,3.00401 l 0.914542,2.6e-4 -1.356168,1.24214 c -0.745893,0.68317 -1.356168,1.44014 -1.356168,1.68215 0,0.24201 -0.178562,0.50853 -0.396806,0.59227 -0.329273,0.12636 -0.364468,0.3994 -0.206777,1.60424 0.104524,0.79858 0.176776,1.67909 0.160557,1.95668 -0.01621,0.2776 0.08743,1.8064 0.230372,3.39735 0.310077,3.45175 0.912459,5.2372 2.12656,6.3032 1.139413,1.00043 2.110914,1.01459 3.102549,0.0452 1.29126,-1.26224 1.59234,-2.12736 1.489602,-4.28022 -0.05072,-1.06291 -0.182101,-2.12436 -0.29194,-2.35879 -0.162354,-0.3465 -0.02801,-0.45846 0.718571,-0.5985 0.505057,-0.0947 1.585515,-0.66346 2.401024,-1.2638 1.352419,-0.99559 1.4985,-1.19664 1.662067,-2.28743 0.180767,-1.20539 -0.191738,-3.29134 -0.750722,-4.20394 -0.404215,-0.65994 -2.08561,-1.58106 -3.790931,-2.0768 -1.165886,-0.33895 -1.676742,-0.3751 -2.355665,-0.16673 l -0.866922,0.26607 0.46618,-0.55173 c 0.256404,-0.30342 0.529545,-0.60847 0.60699,-0.67786 0.616153,-0.55215 0.99481,-1.53854 0.99481,-2.59148 0,-1.07414 -0.08479,-1.26603 -0.720588,-1.63093 l -0.720577,-0.41355 1.252294,-1.02576 c 0.688768,-0.56418 1.495666,-1.18167 1.793108,-1.37223 0.297442,-0.19055 0.871377,-0.87192 1.275405,-1.51415 0.657863,-1.04568 0.736961,-1.39608 0.757072,-3.35372 0.01952,-1.90013 -0.05281,-2.28795 -0.552886,-2.96521 l -0.575357,-0.77915 h 0.764625 c 0.472266,0 0.764625,-0.12979 0.764625,-0.33943 0,-0.40674 -0.862721,-1.23731 -1.069962,-1.03008 -0.08016,0.0802 -0.220548,-0.09 -0.311973,-0.37799 -0.200107,-0.63049 -0.889283,-0.70133 -0.889283,-0.0914 0,0.29819 -0.332779,0.0806 -1.072519,-0.7013 -1.39122,-1.47048 -2.475669,-1.93704 -3.576811,-1.53887 -0.446709,0.16154 -1.008119,0.29369 -1.247576,0.29369 -0.835124,0 -4.077458,1.72656 -4.89139,2.6047 -1.486493,1.60372 -0.891355,1.64938 0.869017,0.0667 1.399841,-1.25858 3.341643,-1.95821 5.57663,-2.00927 1.345936,-0.0308 1.383898,-0.0112 2.674926,1.37483 2.470674,2.65254 3.346274,5.52666 2.375312,7.79681 -0.517417,1.20974 -1.370987,2.27765 -1.824101,2.28213 -0.1493,0.001 -0.839259,0.45451 -1.533242,1.00675 -0.693983,0.55224 -1.38843,1.00527 -1.543209,1.00675 -0.15478,10e-4 -0.552236,0.2102 -0.883252,0.46382 -0.629152,0.48207 -3.500579,1.44524 -5.018098,1.68323 -2.117805,0.33213 -3.310219,-0.71485 -3.32925,-2.9232 -0.02801,-3.245 0.244155,-4.67797 1.295814,-6.82353 0.563195,-1.14904 1.024006,-2.17978 1.024006,-2.29054 0,-0.47753 -0.766423,-0.14001 -1.261788,0.55567 -0.296493,0.41639 -0.694656,0.75707 -0.884784,0.75707 -0.190139,0 -1.186426,0.82332 -2.213961,1.8296 -1.846748,1.80852 -3.4519,4.38881 -3.09224,4.97076 0.27657,0.4475 1.289209,0.29737 2.442944,-0.36219 0.604057,-0.34533 1.228214,-0.62923 1.387007,-0.6309 0.184461,-0.002 0.321467,0.70328 0.379386,1.95273 0.129255,2.78852 0.950442,3.75601 3.306525,3.89556 0.520493,0.0309 0.946341,0.0782 0.946341,0.1053 0,0.0271 -0.397467,0.63987 -0.883251,1.36175 -0.485784,0.72188 -0.883252,1.52175 -0.883252,1.77749 0,0.25576 -0.340685,1.48188 -0.757072,2.72472 -0.416388,1.24284 -0.757073,2.60807 -0.757073,3.03383 0,1.1258 -0.687434,3.00445 -1.628703,4.45094 -0.451582,0.694 -0.891862,1.55516 -0.978404,1.91372 -0.246326,1.02067 -2.131224,2.97679 -3.548938,3.68306 -2.005177,0.99891 -4.414515,1.80234 -5.156559,1.71953 -2.471688,-0.27585 -3.558111,-0.50446 -4.333575,-0.91189 -3.133498,-1.64634 -4.127107,-3.17191 -4.14832,-6.36929 -0.0077,-1.12969 0.04234,-2.86301 0.110709,-3.85183 l 0.124338,-1.79785 2.076282,-0.67616 c 2.062148,-0.67157 3.518375,-1.62568 5.962642,-3.9067 1.850674,-1.72708 4.586859,-6.62186 5.655619,-10.11738 0.633584,-2.07224 0.728008,-5.1789 0.196082,-6.45198 -0.213272,-0.51041 -0.387765,-1.2051 -0.387765,-1.54374 0,-1.46929 -1.225634,-3.23382 -4.473404,-6.44029 -3.543061,-3.49802 -4.668218,-4.49082 -5.089523,-4.49082 -0.153467,0 -0.279018,-0.11715 -0.279018,-0.26033 0,-0.67423 -10.279303,-5.031623 -11.898038,-5.043564 -0.326517,-0.0022 -1.388595,-0.176004 -2.360174,-0.385758 -1.20581,-0.260329 -3.190116,-0.380697 -6.251671,-0.379231 -4.327357,0.0022 -4.56,0.02856 -6.611872,0.752784 -1.169689,0.412848 -2.558196,0.967289 -3.085569,1.232084 -0.527373,0.264806 -1.75379,0.742386 -2.725369,1.061295 -2.268792,0.74471 -3.892434,1.94649 -7.289283,5.39533 -4.115081,4.1781 -6.163211,7.41561 -7.279611,11.50707 -2.8204896,10.3367 -2.9556496,14.3812 -0.6324896,18.92574 1.3388596,2.61907 1.9552496,3.07647 5.0539296,3.75025 1.2784,0.27799 2.665055,0.58184 3.081443,0.67524 0.416388,0.0934 1.892681,0.26901 3.280648,0.39024 1.387966,0.12124 2.977826,0.28873 3.533006,0.37219 0.864055,0.12989 5.341538,-0.13771 9.533807,-0.56979 0.745088,-0.0768 1.345859,-0.008 1.571998,0.17946 1.506548,1.25033 2.046887,6.67249 0.999485,10.02951 -0.109707,0.35156 -0.07167,0.56781 0.09978,0.56781 0.152343,0 0.351578,-0.3123 0.442761,-0.69399 0.09118,-0.38169 0.248355,-0.80755 0.349263,-0.94634 0.671028,-0.92293 0.289713,-6.4517 -0.538663,-7.81009 -0.729641,-1.1965 -0.624577,-1.65333 0.380223,-1.65333 0.46844,0 1.20484,-0.0706 1.636443,-0.15694 0.627255,-0.12545 0.8153,-0.0622 0.937079,0.31545 0.0838,0.25981 0.472487,1.21054 0.863758,2.11271 0.736476,1.69813 1.324601,3.40202 2.221183,6.43513 1.126843,3.81203 1.186746,4.2515 1.186746,8.70635 0,5.06635 -0.407853,7.10607 -2.147288,10.73894 -0.867385,1.81154 -1.109147,2.10658 -2.223057,2.71284 -2.395556,1.30383 -5.817223,0.67694 -7.82433,-1.43351 -1.184431,-1.2454 -2.145227,-3.32268 -2.125965,-4.59642 0.02051,-1.35764 1.102918,-3.24514 2.353051,-4.1033 0.754052,-0.51762 1.06392,-0.57499 2.438082,-0.45141 2.54523,0.22892 3.447468,1.25177 3.634994,4.12097 0.07299,1.11726 -0.416289,1.94319 -1.321437,2.23048 -0.894785,0.28399 -2.752184,-1.10323 -2.752184,-2.0555 0,-0.68569 -0.273439,-0.9007 -0.761714,-0.59893 -0.306108,0.18919 -0.30892,0.36354 -0.01896,1.18205 0.447734,1.26401 0.697909,1.54965 1.73777,1.98414 1.023477,0.42763 2.160696,0.46888 2.844061,0.1032 0.549822,-0.29426 1.500352,-2.00784 1.494575,-2.69435 -0.0044,-0.55442 -0.51552,-1.99948 -1.007203,-2.84908 -0.200823,-0.34699 -0.481352,-0.84071 -0.623396,-1.09713 -0.272557,-0.49199 -2.619665,-1.42645 -3.582865,-1.42645 -0.312414,0 -1.178609,0.22844 -1.924865,0.50766 -1.376258,0.51493 -2.080848,1.30654 -3.299271,3.70679 -0.610077,1.20181 -0.51423,1.84678 0.630828,4.24518 0.832202,1.7431 1.274754,2.35172 2.208128,3.03671 0.64203,0.47117 1.287952,0.85949 1.435377,0.86293 0.147426,0.003 0.738131,0.23338 1.312683,0.51098 1.101771,0.53231 2.005663,0.58778 3.806698,0.23362 z m 43.941604,-24.01835 c -1.400051,-1.49633 -1.533661,-1.98079 -1.77411,-6.43292 -0.125628,-2.32606 -0.293484,-4.60372 -0.373024,-5.06147 -0.157911,-0.90888 0.263064,-1.4258 2.65874,-3.26472 1.027403,-0.78864 1.260046,-0.86158 2.441412,-0.76557 1.790748,0.14555 3.626361,1.12086 4.182588,2.22232 0.664335,1.31552 0.598611,3.58566 -0.125782,4.34523 -0.719243,0.75416 -2.068366,1.55569 -3.258332,1.93581 -1.152313,0.36808 -1.310411,0.76431 -0.84175,2.10952 0.562159,1.61358 0.463644,2.67191 -0.38674,4.15473 -0.864353,1.50717 -1.611425,1.73134 -2.523002,0.75707 z m 2.773949,-10.01462 c 0.49026,-0.91606 0.31839,-1.92841 -0.381525,-2.24731 -0.923881,-0.42095 -1.066874,-0.37776 -1.495798,0.45167 -0.498133,0.96329 -0.491661,1.93648 0.01411,2.13058 0.776555,0.29799 1.604049,0.14923 1.863165,-0.33494 z m -1.505259,-0.75303 c 0,-0.43665 0.306307,-1.03007 0.531706,-1.03007 0.123952,0 0.225367,0.2839 0.225367,0.63089 0,0.39256 -0.143004,0.6309 -0.378537,0.6309 -0.208199,0 -0.378536,-0.10431 -0.378536,-0.23172 z m -61.827655,2.2542 c -3.569864,-0.28718 -8.631526,-1.31826 -9.337226,-1.90202 -0.2082,-0.17222 -0.63708,-0.39195 -0.95307,-0.48828 -1.4991996,-0.4571 -2.8995796,-4.61007 -2.8542796,-8.4647 0.0324,-2.75861 0.2742,-4.27782 1.32493,-8.32517 0.4147596,-1.59761 0.9227996,-3.60437 1.1290096,-4.45946 0.33377,-1.38414 2.03666,-4.56423 3.7508,-7.00447 0.8788,-1.25106 5.25112,-5.71225 6.490757,-6.62268 1.435146,-1.05403 3.366881,-2.10465 3.869744,-2.10465 0.52455,0 4.303452,-1.335563 5.790397,-2.046482 1.207177,-0.577154 1.48023,-0.602183 6.308939,-0.578113 6.145625,0.03065 9.574922,0.635635 13.311871,2.348515 0.936881,0.42945 2.466892,1.12737 3.400024,1.55095 0.933132,0.42358 1.756448,0.85489 1.829593,0.95846 0.0731,0.10353 0.685846,0.50781 1.361559,0.89831 0.675714,0.39051 2.868848,2.32288 4.873628,4.29415 l 3.64505,3.58412 0.619096,2.12886 c 1.258921,4.32903 0.992913,7.53771 -0.937906,11.31323 -0.535951,1.04799 -0.974457,2.03662 -0.974457,2.19696 0,0.16033 -0.172432,0.43463 -0.383189,0.60954 -0.210757,0.17492 -0.569326,0.71026 -0.796809,1.18965 -0.975604,2.05593 -4.23366,4.85739 -7.021622,6.03758 -3.20897,1.35841 -9.821812,3.04925 -13.627319,3.4844 -2.545649,0.29107 -7.065129,0.94061 -7.222797,1.03806 -0.08931,0.0551 -1.453217,0.17115 -3.031036,0.25777 -1.577831,0.0867 -3.493358,0.25082 -4.256737,0.36489 -0.76339,0.11407 -1.955771,0.14576 -2.649765,0.0704 -0.693983,-0.0753 -2.340614,-0.22375 -3.659185,-0.32983 z m 8.079709,-6.22979 c 0.788375,-0.89791 0.809985,-0.9832 0.696673,-2.74882 -0.131427,-2.04803 -0.556613,-2.79894 -2.221811,-3.92398 -1.161707,-0.78488 -2.909488,-1.13552 -3.444943,-0.69113 -0.76833,0.63766 -1.138035,1.84358 -1.276452,4.16365 -0.133456,2.23698 -0.107722,2.41037 0.4449,2.99863 0.704249,0.74963 1.933135,1.125 3.689285,1.1269 1.180682,0.001 1.372685,-0.0828 2.112348,-0.92525 z m -5.200486,-0.7749 c 0.175012,-0.175 0.653783,0.18058 0.653783,0.48556 0,0.16734 -0.14479,0.1482 -0.384634,-0.0508 -0.211551,-0.17557 -0.332658,-0.37119 -0.269149,-0.43471 z m 1.155146,-0.3209 c -0.960773,-1.02851 -1.203682,-2.51354 -0.584552,-3.57363 0.935943,-1.60256 2.500366,-1.44223 3.643208,0.37337 0.394777,0.62718 0.478187,1.07887 0.375206,2.03187 -0.170028,1.57367 -0.486875,1.92906 -1.71983,1.92906 -0.790613,0 -1.154188,-0.16135 -1.714032,-0.76067 z m 34.166366,-11.06537 c 1.257146,-1.38914 1.075617,-3.8139 -0.415131,-5.54504 -0.557562,-0.64747 -1.139413,-1.23399 -1.293002,-1.30339 -0.1536,-0.0695 -0.585997,-0.33433 -0.960895,-0.58874 -0.772619,-0.5243 -1.845006,-0.3644 -1.612881,0.24049 0.07663,0.19978 -0.04432,0.8224 -0.268874,1.38359 -0.743941,1.8593 -0.0989,5.46164 1.073678,5.99589 1.022539,0.4659 2.983327,0.36281 3.477105,-0.1828 z m -2.569994,-1.00233 c -0.892965,-0.77445 -1.35747,-2.7525 -0.916329,-3.90208 0.20864,-0.54371 2.013017,-0.0271 2.625685,0.75179 0.444327,0.56488 0.453919,0.7028 0.124911,1.79604 -0.196016,0.65129 -0.551134,1.32658 -0.789169,1.50063 -0.529071,0.38687 -0.41125,0.40336 -1.045098,-0.14638 z m -0.36374,-5.00381 c 0.17349,-0.07 0.457392,-0.07 0.630894,0 0.17349,0.07 0.03153,0.12729 -0.315447,0.12729 -0.346992,0 -0.488948,-0.0573 -0.315447,-0.12729 z m 22.614028,15.76664 c -0.627465,-0.57352 -0.920827,-1.73183 -0.634587,-2.50561 0.376088,-1.01667 4.273153,-2.09174 5.170033,-1.42622 0.365316,0.27107 0.42695,0.53361 0.292943,1.24788 -0.264784,1.41144 -1.040964,2.46077 -2.211855,2.99025 -1.162755,0.5258 -1.785997,0.45283 -2.616534,-0.3063 z m -9.817754,-9.00395 c 0.175949,-0.55435 3.417709,-3.92444 3.417709,-3.55299 0,0.12533 -0.175949,0.66761 -0.390995,1.20505 -0.215046,0.53745 -0.371932,1.07917 -0.348645,1.20381 0.135583,0.72576 -0.06538,1.11084 -0.585237,1.12126 -0.312293,0.007 -0.908489,0.1605 -1.324877,0.34274 -0.893759,0.39117 -0.981965,0.35444 -0.767955,-0.31987 z m 27.517866,50.02285 c 1.611547,-0.23004 3.283746,-1.47893 3.539526,-2.6435 0.0879,-0.40008 0.20168,-0.72742 0.25289,-0.72742 0.0513,0 0.39947,0.2839 0.77388,0.63089 0.90269,0.83659 1.665,0.79591 2.59963,-0.13873 0.65328,-0.65326 0.84884,-0.72723 1.29357,-0.48922 1.11937,0.59909 3.06616,-0.77552 3.78829,-2.67487 0.14109,-0.37107 0.28207,-1.8617 0.31331,-3.31249 0.0539,-2.50116 0.0259,-2.66288 -0.53896,-3.12149 -0.90594,-0.73551 -2.39365,-0.64696 -3.04512,0.18124 -0.28766,0.36571 -0.52303,0.86841 -0.52303,1.11711 0,0.77028 -0.8403,0.6876 -1.39663,-0.13744 -0.62998,-0.93423 -1.37967,-1.07952 -2.00499,-0.38856 -0.514,0.56797 -1.68438,3.66815 -1.4669,3.88563 0.0739,0.0739 0.0561,0.55121 -0.0395,1.06075 -0.16885,0.89999 -0.18443,0.91125 -0.54625,0.3947 -0.25865,-0.36929 -0.299634,-0.66801 -0.13415,-0.97776 0.22144,-0.4145 0.37787,-1.54207 0.31564,-2.27515 -0.0368,-0.4343 -2.298268,-1.81938 -2.980079,-1.82526 -0.929625,-0.008 -1.672574,0.47769 -2.598539,1.69882 l -0.883252,1.16479 -0.131724,-2.38055 c -0.09548,-1.72653 -0.259503,-2.57119 -0.596825,-3.07452 -0.255808,-0.3817 -0.56561,-0.69398 -0.688437,-0.69398 -0.122838,0 -0.223338,-0.16527 -0.223338,-0.36726 0,-0.20199 -0.596196,-0.97096 -1.324877,-1.70883 -1.63351,-1.65407 -3.525839,-2.35976 -5.62468,-2.09753 -1.182457,0.14775 -1.430945,0.29215 -2.321925,1.34937 -1.738729,2.06313 -1.946256,2.64612 -1.993524,5.60018 -0.08446,5.27501 1.12358,10.10105 2.803961,11.20208 1.129897,0.74035 2.447586,0.94384 3.792431,0.5857 1.138189,-0.30311 1.294611,-0.43341 1.596926,-1.3302 0.56958,-1.68961 0.666893,-3.48355 0.209556,-3.8631 -0.457216,-0.37946 -0.535213,-0.15725 -0.79875,2.27556 -0.25098,2.31696 -1.327777,2.88056 -3.4835,1.82329 -1.934414,-0.94871 -2.367043,-1.80898 -2.797841,-5.56336 -0.827936,-7.21533 -0.456235,-9.02052 2.217103,-10.76756 0.521739,-0.34095 1.021945,-0.43347 1.883453,-0.34835 2.582155,0.25513 4.208334,1.4143 5.571161,3.97123 0.643717,1.20775 0.775221,1.74151 0.775221,3.1467 0,2.13001 -0.491638,3.05046 -1.971923,3.69178 -0.598776,0.25941 -1.01792,0.58614 -0.931445,0.72606 0.271895,0.43995 1.284181,0.27788 2.216596,-0.35487 l 0.897794,-0.60926 -0.265875,0.76271 c -0.260671,0.74773 -0.14619,4.23767 0.163942,4.99826 0.42458,1.04125 2.593236,1.84906 4.307168,1.60441 z m -1.982001,-0.97439 c -0.53024,-0.22155 -1.07554,-0.70332 -1.310632,-1.15793 -0.414072,-0.80072 -0.540295,-3.06955 -0.225895,-4.06016 0.264375,-0.83293 1.814839,-3.01656 2.686492,-3.78354 0.668072,-0.58785 0.852192,-0.63842 1.430305,-0.39283 1.655418,0.70322 1.921779,1.48914 0.978977,2.88846 -0.377753,0.56065 -0.969054,0.98695 -1.766514,1.27355 -0.659274,0.23695 -1.198698,0.52128 -1.198698,0.63186 0,0.44837 0.754007,0.43666 1.984273,-0.0308 l 1.300598,-0.49418 0.37643,0.53742 c 0.810321,1.15689 0.269271,3.56531 -0.926924,4.12608 -2.02993,0.95162 -2.125149,0.96483 -3.328412,0.46208 z m 2.247954,-6.96095 c 0.220228,-0.35635 -0.266162,-0.84273 -0.622493,-0.62251 -0.150887,0.0933 -0.274353,0.3332 -0.274353,0.53321 0,0.42488 0.649483,0.48954 0.896846,0.0893 z m 4.632543,3.9327 c -0.42544,-0.75109 -0.40934,-1.63447 0.11863,-6.50791 0.1064,-0.98207 0.52848,-1.3599 1.04254,-0.93326 0.77742,0.6452 0.90241,1.17961 0.45726,1.95521 -0.23268,0.40543 -0.34581,0.92853 -0.25307,1.1702 0.19463,0.50717 0.67599,0.31063 0.67599,-0.27601 0,-0.42826 0.69518,-1.06427 1.17767,-1.07743 0.16193,-0.004 0.4553,0.47461 0.65192,1.0645 0.44772,1.34317 1.12201,1.47554 0.96405,0.18927 -0.0596,-0.48579 -0.11644,-1.44756 -0.12618,-2.13727 -0.0163,-1.15731 0.0377,-1.27363 0.70082,-1.5084 1.15653,-0.40948 1.4596,0.25648 1.30981,2.87815 -0.14597,2.55476 -0.55554,3.83648 -1.45106,4.54089 -0.93643,0.7366 -1.4009,0.64319 -1.8228,-0.36655 -0.20298,-0.48578 -0.48983,-0.88325 -0.63747,-0.88325 -0.14762,0 -0.54852,0.63338 -0.89087,1.40748 -0.70707,1.59882 -1.21353,1.72677 -1.91724,0.48438 z m 11.59451,1.68168 c 0.59417,-0.3985 0.84341,-2.49267 0.39895,-3.35215 -0.49691,-0.96092 -1.42597,-1.39839 -2.30783,-1.08669 -0.87921,0.31075 -1.11405,0.94605 -0.27156,0.7346 0.84094,-0.21105 1.69657,0.54759 1.85516,1.64485 0.18578,1.28538 -0.0886,1.55816 -1.24598,1.2386 -0.9417,-0.26002 -0.9522,-0.27678 -0.7868,-1.25578 0.14821,-0.87724 0.10971,-0.99225 -0.33226,-0.99225 -0.27494,0 -0.57111,0.18558 -0.65816,0.41241 -0.25358,0.66084 0.10077,1.98754 0.61687,2.30989 0.6603,0.41236 2.31958,0.62285 2.73161,0.34652 z m -94.431751,-1.85066 c 2.542396,-1.42301 3.436938,-2.61184 4.010013,-5.32926 0.21079,-0.99951 0.233547,-1.79704 0.072,-2.52358 -0.232809,-1.04719 -1.238138,-2.77681 -1.976786,-3.40096 -0.771517,-0.65191 -4.074139,-2.07754 -4.812869,-2.07754 -1.75868,0 -3.27652,1.45949 -3.77535,3.63022 -0.33145,1.44238 -0.32465,1.49865 0.23581,1.95248 1.07375,0.86947 3.30526,1.20625 3.30526,0.49881 0,-0.25426 -0.32666,-0.37972 -1.72047,-0.66077 -1.08263,-0.2183 -1.19551,-0.57881 -0.67337,-2.15081 0.75786,-2.28168 2.60546,-2.84051 5.169771,-1.56365 1.930345,0.9612 3.358523,3.06373 3.317507,4.884 -0.01544,0.68735 -0.143677,1.46558 -0.284861,1.72941 -0.141196,0.26381 -0.256713,0.74381 -0.256713,1.06665 0,0.72588 -1.674173,2.4979 -2.967307,3.14071 -1.446326,0.71897 -3.591797,0.59066 -5.620517,-0.33614 -3.1331,-1.43135 -4.3796296,-3.04486 -5.3239796,-6.89139 -0.37326,-1.52036 -0.27311,-5.99988 0.17238,-7.71024 0.44919,-1.72458 1.5709,-4.15057 1.9190896,-4.15057 0.0953,0 0.49417,-0.26353 0.8865,-0.58561 1.01025,-0.82936 3.10103,-1.2082 5.25579,-0.95232 2.875329,0.34144 4.154361,1.13487 5.326884,3.30443 0.262535,0.48578 0.676078,1.15408 0.918964,1.48509 0.242898,0.33101 0.441626,0.80225 0.441626,1.04718 0,0.70889 1.829692,2.95161 3.088017,3.78509 0.871333,0.57715 1.555988,0.80069 2.811293,0.91792 1.573541,0.14694 1.759259,0.10408 3.587837,-0.82731 1.060611,-0.54026 2.111024,-1.26619 2.334241,-1.61318 0.223216,-0.34699 0.530857,-0.7107 0.683652,-0.80824 0.414425,-0.26456 1.229614,-2.19683 1.016663,-2.40978 -0.101547,-0.10155 -0.289415,0.002 -0.417534,0.23165 -1.875438,3.35122 -5.898042,5.30075 -8.734562,4.23314 -1.07822,-0.40582 -2.594471,-1.9817 -3.263459,-3.39181 -1.760979,-3.71185 -2.723748,-4.98542 -4.631336,-6.12645 -0.990069,-0.5922 -1.439402,-0.68905 -3.350296,-0.72212 -4.41431,-0.0764 -6.5208896,0.94619 -7.9887296,3.87784 -1.37594,2.74812 -1.7504,8.62808 -0.74364,11.67708 1.442,4.36714 4.6182996,6.95279 8.8756996,7.22523 1.834115,0.11737 2.180192,0.0667 3.112762,-0.4552 z m 94.716601,-5.25166 c 0.38679,-0.41406 0.78271,-1.18061 0.87984,-1.70341 0.0971,-0.52281 0.38205,-1.34804 0.63319,-1.83382 0.25113,-0.48579 0.6399,-2.0973 0.86394,-3.58112 0.39728,-2.63124 0.39449,-2.73096 -0.11336,-4.03772 -0.61119,-1.57268 -1.04949,-1.97076 -2.16985,-1.97076 -1.14156,0 -2.09234,0.45789 -3.05503,1.47129 -0.89936,0.94675 -1.02571,1.8718 -0.55739,4.08058 0.13243,0.62459 0.30447,2.0441 0.38232,3.15448 0.14121,2.01381 0.68514,4.26005 1.17638,4.85788 0.43515,0.52958 1.22035,0.35435 1.95996,-0.4374 z m -1.4086,-0.44971 c -0.15231,-0.10199 -0.36046,-0.92356 -0.46255,-1.82573 -0.1021,-0.90218 -0.29027,-2.37848 -0.41818,-3.28065 -0.12791,-0.90218 -0.30287,-2.51096 -0.38882,-3.57506 l -0.15626,-1.93472 1.03058,-0.52576 c 1.28975,-0.65798 2.69518,-0.69824 2.93736,-0.0841 0.60744,1.54028 0.55694,5.28684 -0.0885,6.5636 -0.12215,0.24163 -0.36303,0.89357 -0.53528,1.44876 -0.45689,1.47256 -1.30025,3.40744 -1.48325,3.40297 -0.087,-0.002 -0.28281,-0.0873 -0.43512,-0.18927 z m -25.212325,-0.81413 c 0.562987,-1.08871 0.273241,-2.02103 -0.628104,-2.02103 -1.246693,0 -2.050648,1.96722 -1.027689,2.5147 0.806744,0.43175 1.244775,0.30115 1.655793,-0.49367 z m -1.134484,-0.75924 c 0,-0.26122 0.113554,-0.54512 0.252358,-0.6309 0.147623,-0.0913 0.252357,0.17058 0.252357,0.6309 0,0.46031 -0.104745,0.72213 -0.252357,0.63089 -0.138804,-0.0858 -0.252358,-0.36968 -0.252358,-0.63089 z m 9.490355,-12.80716 c 1.222283,-1.30778 1.595482,-2.09381 1.774761,-3.73796 0.13038,-1.19564 0.07156,-1.52701 -0.379705,-2.1373 -0.315568,-0.42683 -0.431746,-0.78548 -0.284012,-0.87678 0.137491,-0.085 0.249976,-0.65883 0.249976,-1.27522 0,-1.61042 -0.683024,-2.24349 -2.196695,-2.03602 -1.314171,0.18013 -2.323348,0.83339 -3.292655,2.1314 -0.381381,0.51069 -0.870098,1.12512 -1.086049,1.36537 -0.522389,0.58119 -1.063588,2.75853 -1.035351,4.16537 0.04278,2.13168 1.660732,3.34748 4.454715,3.34748 0.726718,0 1.089124,-0.19107 1.795015,-0.94634 z m -4.406279,-0.58096 -0.846326,-0.51597 0.08931,-1.95384 c 0.0871,-1.90789 0.120456,-1.99594 1.41585,-3.74326 1.34672,-1.81656 2.295563,-2.46524 3.381148,-2.31154 0.524264,0.0742 0.588853,0.21189 0.56625,1.20686 -0.014,0.61771 -0.155981,1.16658 -0.315447,1.21973 -0.159465,0.0531 -0.289933,0.36817 -0.289933,0.70003 0,0.61219 -1.042078,1.37342 -1.880145,1.37342 -0.46811,0 -0.521287,0.40125 -0.07564,0.57054 0.691965,0.26283 1.994141,-0.14214 2.387529,-0.74253 0.526557,-0.80362 0.821275,-0.354 0.70481,1.07523 -0.09482,1.16355 -0.638557,2.38412 -1.402344,3.1479 -0.677026,0.67703 -2.603424,0.66332 -3.73502,-0.0266 z m 2.991366,-6.04344 c 0,-0.27758 -0.113555,-0.50471 -0.252358,-0.50471 -0.138792,0 -0.252357,0.22713 -0.252357,0.50471 0,0.2776 0.113565,0.50472 0.252357,0.50472 0.138803,0 0.252358,-0.22712 0.252358,-0.50472 z m 8.246407,5.45303 c 0.25296,-0.33195 0.5735,-0.79439 0.7123,-1.02765 0.23171,-0.38941 0.31428,-0.39177 1.00943,-0.0289 1.45073,0.7573 2.22501,0.48229 2.89287,-1.02753 0.70976,-1.60454 0.8149,-2.49518 0.54258,-4.59598 -0.26631,-2.05441 -0.99661,-3.15217 -2.25736,-3.39318 -0.99519,-0.19024 -1.47036,0.19403 -1.6531,1.33687 l -0.16392,1.02509 -0.68997,-0.64549 c -0.56237,-0.52613 -0.8889,-0.62939 -1.76574,-0.55842 -0.59167,0.0478 -1.1691,0.19349 -1.283162,0.32355 -0.432243,0.49287 -1.012694,2.57137 -1.171829,4.19606 -0.137943,1.40831 -0.07696,1.88815 0.367455,2.89289 0.73049,1.6514 1.200126,2.10624 2.174676,2.10624 0.57445,0 0.96582,-0.18371 1.28577,-0.60356 z m -2.28928,-1.14658 c -0.552334,-0.94572 -0.653341,-3.19835 -0.22977,-5.124 0.42336,-1.9247 1.03121,-2.36841 2.07783,-1.51676 0.48034,0.39087 0.50993,0.53529 0.2575,1.25643 -0.42602,1.21698 -0.12474,1.59772 0.40361,0.51008 0.49275,-1.01435 0.87434,-1.17185 1.37566,-0.56781 0.545,0.6567 0.67583,0.41973 0.55732,-1.00943 -0.11249,-1.35644 -0.10023,-1.38796 0.54191,-1.38796 0.51121,0 0.77002,0.2215 1.16622,0.99813 0.42508,0.8332 0.48941,1.33355 0.38943,3.02835 -0.11267,1.90997 -0.59874,3.2919 -1.15788,3.2919 -0.53686,0 -1.46636,-0.61266 -1.57816,-1.0402 -0.0703,-0.26894 -0.34736,-0.47395 -0.64042,-0.47395 -0.3794,0 -0.58384,0.2439 -0.77021,0.9189 -0.27677,1.00236 -1.22418,2.17144 -1.64582,2.03089 -0.14553,-0.0485 -0.48177,-0.46006 -0.74722,-0.91457 z m -3.678302,-18.75393 c 0.277695,-0.45108 0.627212,-1.2744 0.77671,-1.82959 0.149487,-0.55518 0.431636,-1.38236 0.626991,-1.83815 0.62376,-1.45531 0.360222,-2.36077 -0.415175,-1.42647 -0.390202,0.47017 -1.228567,2.8191 -1.240244,3.47492 -0.01411,0.78981 -0.58764,0.31564 -0.880406,-0.72783 -0.165707,-0.59061 -0.454295,-1.02645 -0.712595,-1.0762 -0.537782,-0.10353 -0.538774,0.0763 -0.01125,2.03917 0.656937,2.44441 1.03135,2.72364 1.855955,1.38415 z m 6.663142,-1.7665 c 0.57135,-1.9256 1.22786,-6.1302 1.11313,-7.1291 -0.16077,-1.39962 -0.90731,-0.95575 -2.12219,1.26179 -0.60831,1.11037 -1.109,2.10403 -1.11264,2.20812 -0.0156,0.44559 0.72757,0.13563 1.12347,-0.4686 0.71966,-1.09833 0.91428,-0.37833 0.51365,1.90032 -0.20359,1.15799 -0.30934,2.20387 -0.23498,2.32418 0.19882,0.3217 0.61188,0.26619 0.71956,-0.0967 z m 7.8897,-0.4446 c 1.29053,-0.51971 1.85841,-3.46669 0.91326,-4.73938 -0.2791,-0.37584 -0.8371,-0.85368 -1.24001,-1.06187 -0.4029,-0.2082 -0.77713,-0.40418 -0.8316,-0.43553 -0.0545,-0.0313 0.0297,-0.21213 0.18707,-0.40176 0.32941,-0.3969 0.13856,-0.67686 -0.46141,-0.67686 -0.64002,0 -1.67667,1.23514 -2.38884,2.84622 -0.88671,2.00596 -0.8482,2.95143 0.16037,3.93749 0.67128,0.65631 0.99611,0.78436 1.95577,0.77102 0.63295,-0.009 1.40036,-0.1165 1.70539,-0.23933 z m -2.42923,-0.87094 c -0.86722,-0.44846 -1.06232,-0.89607 -0.85771,-1.96787 0.19441,-1.01851 1.27409,-3.2148 1.58035,-3.2148 1.72349,0 2.85301,3.72469 1.53053,5.04715 -0.59884,0.59886 -1.27817,0.63971 -2.25317,0.13552 z m -2.53537,-0.0258 c 0.32009,-0.84191 0.34163,-0.78972 -0.38319,-0.92828 -0.76569,-0.14638 -1.16618,0.27469 -0.97104,1.02093 0.2022,0.7732 1.04701,0.71541 1.35423,-0.0926 z m -10.466223,-6.78912 c 0.664997,-1.59157 0.361028,-3.91966 -0.511782,-3.91966 -0.285248,0 -0.325988,0.34585 -0.207373,1.76057 0.18918,2.25656 -0.09107,2.40298 -2.253323,1.17715 -2.829088,-1.60389 -5.557897,-5.36801 -6.051642,-8.34763 -0.405979,-2.45005 -0.09427,-2.57729 1.826219,-0.74546 2.157685,2.05808 2.231723,2.24515 1.277951,3.22919 -1.560541,1.61007 -0.807626,1.41777 2.167929,-0.55369 2.287999,-1.51592 3.097951,-1.65694 1.737318,-0.30248 -0.486347,0.48413 -0.887861,1.0222 -0.892271,1.19569 -0.0044,0.1735 -0.120148,0.31544 -0.257209,0.31544 -0.224837,0 -1.51731,1.82293 -1.51731,2.14004 0,0.0721 0.135739,0.13118 0.301643,0.13118 0.330883,0 1.717218,-1.24441 1.717218,-1.54143 0,-0.10188 0.491815,-0.67703 1.092917,-1.27814 1.1052,-1.10519 2.440089,-3.01137 2.440089,-3.48435 0,-0.43817 -0.43156,-0.29888 -3.084985,0.99574 -1.412599,0.68922 -2.582575,1.22863 -2.599973,1.1987 -0.806314,-1.38754 -1.330545,-2.07072 -2.172825,-2.83167 -0.860703,-0.77759 -1.159832,-0.90801 -1.792534,-0.78146 -0.417689,0.0836 -0.915579,0.15189 -1.106424,0.15189 -0.894211,0 0.0151,4.18936 1.332827,6.14025 0.878367,1.30049 2.648784,3.51745 2.988796,3.74268 0.138792,0.092 0.521364,0.40086 0.850141,0.68649 0.328777,0.28563 0.839799,0.5951 1.135609,0.68772 0.295799,0.0926 0.808651,0.37988 1.139667,0.63838 0.331004,0.2585 0.932999,0.47001 1.337755,0.47001 0.601212,0 0.80284,-0.16019 1.101572,-0.87515 z m 9.606903,-4.46547 c 0.11732,-0.18559 0.38565,-0.676 0.59628,-1.08978 0.21063,-0.4138 0.89399,-1.08432 1.51858,-1.49007 2.72125,-1.76777 3.78536,-2.69171 3.78536,-3.28673 0,-0.83185 -0.57455,-1.21488 -2.03249,-1.35498 -1.5625,-0.15014 -1.76943,-0.43671 -0.72524,-1.00441 0.44438,-0.2416 1.3603,-0.80071 2.03538,-1.24248 0.67507,-0.44177 1.4561,-0.87579 1.73562,-0.96451 0.27951,-0.0888 0.44737,-0.25974 0.37301,-0.38006 -0.37182,-0.60161 -5.71708,2.18588 -6.09872,3.18041 -0.23719,0.61811 0.38342,1.04939 1.75696,1.221 1.47156,0.18386 2.23116,0.53685 1.80278,0.83775 -0.1482,0.10409 -1.07881,0.73325 -2.06805,1.3981 -1.96622,1.32151 -3.00186,2.39704 -3.24643,3.37153 -0.1843,0.73427 0.23509,1.32917 0.56696,0.80423 z M 11.727807,101.47059 c 0.62707,-0.64521 1.14012,-1.27725 1.14012,-1.40456 0,-0.127304 0.27326,-0.634147 0.60727,-1.126326 0.33399,-0.492168 0.68531,-1.462358 0.78071,-2.155966 0.19863,-1.444187 0.39901,-1.65587 1.17454,-1.240828 0.94547,0.506005 4.568115,0.322349 5.889012,-0.298544 1.330765,-0.625531 1.472424,-0.801329 1.444242,-1.792335 -0.02922,-1.027437 -2.628188,-4.238901 -3.430466,-4.238901 -0.571057,0 -0.565731,-0.02743 0.390499,-2.013217 1.352685,-2.809097 1.789613,-4.202102 1.822305,-5.809874 0.02701,-1.329022 0.0011,-1.386398 -0.602668,-1.351007 -1.423371,0.08339 -6.482404,2.088952 -8.489194,3.365385 -0.57873,0.368112 -1.03901,0.0935 -3.7831296,-2.25708 -1.47195,-1.260863 -4.61188,-2.910291 -4.93159,-2.590591 -0.16973,0.169731 -0.12579,0.908929 0.133,2.237368 0.21255,1.091142 0.46158,2.699694 0.5534,3.574562 0.13564,1.292483 0.24478,1.574846 0.58223,1.506271 0.265,-0.05386 0.40092,-0.309858 0.37559,-0.707417 -0.0218,-0.34266 -0.12274,-1.675933 -0.22424,-2.96283 -0.17575,-2.2282 -0.16183,-2.331109 0.29205,-2.157378 0.58135,0.222532 3.16092,2.164182 3.63649,2.737211 0.57921,0.697903 2.4539396,1.886157 2.9758196,1.886157 0.2711,0 0.54516,-0.198731 0.60903,-0.441626 0.0638,-0.242895 0.55976,-0.596084 1.10196,-0.784868 0.5422,-0.188781 2.27584,-0.84823 3.852521,-1.465439 1.576694,-0.617209 2.923832,-1.065076 2.993647,-0.995259 0.140028,0.140036 -0.348369,2.510592 -0.681678,3.308656 -0.115936,0.277593 -0.61881,1.370378 -1.117494,2.42841 -0.935072,1.983876 -1.109797,2.744923 -0.63021,2.744923 0.996122,0 3.613814,3.294758 3.462661,4.358282 -0.06263,0.440942 -0.352978,0.633958 -1.341757,0.89205 -1.571082,0.410086 -5.36655,-0.02582 -5.83794,-0.670493 -0.51929,-0.710183 -1.10189,0.0884 -1.10189,1.510396 0,0.74576 -0.22119,1.706622 -0.55928,2.429592 -0.68163,1.457583 -1.92494,3.340996 -2.20552,3.340996 -0.36559,0 -0.9706396,-1.14718 -1.5443996,-2.928213 -1.30642,-4.055253 -1.0386,-3.663991 -3.22027,-4.704713 -2.33606,-1.11438 -3.89157,-2.193105 -4.49881,-3.119867 -0.42682002,-0.651416 -0.42222002,-0.681286 0.18017,-1.169153 0.34,-0.275363 1.38472,-0.886709 2.3216,-1.35855 0.955,-0.480969 1.70341,-1.022811 1.70341,-1.233255 0,-0.593945 -0.67329,-0.445566 -2.48257,0.547101 C 1.1398874,88.416964 -0.00335262,89.384155 7.3818877e-6,89.954327 0.00400738,90.765781 2.1445174,92.733676 4.2877574,93.89775 c 1.17978,0.640782 2.34924,1.362173 2.5988,1.603097 0.24957,0.240924 0.61422,1.125873 0.81034,1.966565 0.45766,1.961835 1.60525,4.331498 2.3274996,4.806108 0.53172,0.34939 0.62724,0.30436 1.70341,-0.80293 z m 50.728414,-5.999876 c 0.832786,-0.105517 1.741264,-0.300574 2.01886,-0.433489 0.277596,-0.132913 1.242868,-0.499292 2.145039,-0.814173 0.902183,-0.314882 1.924226,-0.718523 2.271229,-0.896981 0.346992,-0.178457 0.820912,-0.325165 1.053147,-0.32602 0.232247,-7.58e-4 0.759675,-0.285457 1.17205,-0.63245 0.412374,-0.346991 0.866613,-0.630894 1.00943,-0.630894 0.142805,0 0.58066,-0.267926 0.973001,-0.59539 0.39234,-0.327462 1.110801,-0.797047 1.596596,-1.043519 3.675116,-1.864621 11.3561,-7.943732 11.3561,-8.987777 0,-0.114927 0.511022,-0.99892 1.135609,-1.964432 0.624588,-0.96551 1.135665,-1.905929 1.135731,-2.089822 1.54e-4,-0.397036 0.830261,-2.665756 1.538887,-4.205822 0.876073,-1.904019 2.043293,-6.943537 2.990185,-12.910314 0.666971,-4.202809 0.472972,-9.743831 -0.472674,-13.50114 -0.286537,-1.138499 -1.129015,-3.225276 -1.931966,-4.785432 -0.783127,-1.521614 -1.678242,-3.565711 -1.989146,-4.542439 -0.310916,-0.976729 -0.853625,-2.19928 -1.20602,-2.716781 -0.352394,-0.517499 -0.944323,-1.773328 -1.315395,-2.790725 -0.537605,-1.474025 -0.991789,-2.180044 -2.235704,-3.47535 -0.858586,-0.894045 -1.901733,-1.790978 -2.318132,-1.993187 -0.416388,-0.20221 -0.92741,-0.497755 -1.135609,-0.656771 -0.208189,-0.159013 -1.40058,-0.721034 -2.649754,-1.248932 -1.249175,-0.527896 -2.50664,-1.112347 -2.79438,-1.298777 -0.287739,-0.186429 -1.309793,-0.618064 -2.271229,-0.959189 -0.961424,-0.341124 -2.372632,-0.864894 -3.136012,-1.163936 -2.888473,-1.131502 -6.345136,-1.947816 -8.002693,-1.88989 -0.584575,0.02044 -1.116799,0.09108 -1.182711,0.156999 -0.06593,0.06592 1.03695,0.385704 2.450816,0.71063 1.413877,0.324926 3.365613,0.865084 4.33718,1.200354 0.971579,0.335271 2.672534,0.910224 3.779895,1.277677 1.107361,0.367451 3.208231,1.252026 4.668615,1.965719 1.460383,0.713693 3.052701,1.452545 3.538485,1.641897 2.407574,0.93842 5.240455,3.603568 5.781334,5.439027 0.384016,1.303114 0.933121,2.538204 1.396942,3.142113 0.24626,0.320636 1.241754,2.730103 2.212991,5.356261 0.139872,0.378203 0.465077,0.930654 0.722672,1.227667 0.415318,0.478872 1.663688,3.540082 2.465492,6.045803 0.699088,2.184722 0.895313,8.117173 0.391932,11.84897 -0.376298,2.789604 -0.943033,6.134533 -1.218577,7.192197 -0.07233,0.277594 -0.427888,1.697106 -0.790139,3.154472 -0.362263,1.457366 -0.978184,3.331122 -1.368727,4.163903 -0.390543,0.83278 -1.028891,2.365853 -1.418552,3.406829 -1.16658,3.116543 -3.087918,5.715891 -5.399435,7.3048 -0.485784,0.333928 -0.974059,0.75749 -1.085056,0.941252 -0.110996,0.183762 -0.360862,0.334111 -0.555268,0.334111 -0.194395,0 -0.444272,0.158344 -0.555257,0.351875 -0.110996,0.193531 -1.276496,1.005303 -2.589984,1.803936 -1.313498,0.798638 -2.835218,1.775903 -3.3816,2.171705 -0.546392,0.395801 -1.129137,0.719639 -1.294997,0.719639 -0.165861,0 -0.487217,0.205149 -0.714138,0.45589 -0.570594,0.630508 -2.795526,1.600003 -6.226952,2.713348 -3.088733,1.002157 -5.397692,1.277375 -9.968123,1.188157 -3.235707,-0.06317 -8.272835,-1.691063 -11.103743,-3.588511 -0.555191,-0.372119 -2.588253,-1.577445 -4.517926,-2.678505 -3.273283,-1.867717 -4.270948,-2.636038 -7.678657,-5.913469 -1.014039,-0.975281 -4.091549,-5.53556 -4.640168,-6.875853 -0.09967,-0.243387 -0.28581,-0.442522 -0.413742,-0.442522 -0.127932,0 -0.869998,-1.277561 -1.649023,-2.839024 -1.425719,-2.857692 -2.476727,-5.988485 -3.0286,-9.021789 -0.345712,-1.900161 -0.297585,-7.991413 0.07244,-9.16737 0.138571,-0.44042 0.323396,-1.368567 0.410698,-2.06255 0.153236,-1.217949 0.797361,-3.709553 1.500495,-5.804229 0.186369,-0.555187 0.407314,-1.316714 0.490988,-1.692285 0.08369,-0.37557 0.283737,-1.000155 0.444559,-1.387968 0.160822,-0.387811 0.545632,-1.670381 0.855136,-2.850154 0.502587,-1.915837 1.430702,-4.395431 2.522947,-6.740475 0.207516,-0.445541 0.748814,-1.297247 1.202888,-1.892684 0.454063,-0.595438 0.900385,-1.27827 0.991833,-1.517404 0.313815,-0.820652 2.839375,-2.493132 5.486858,-3.633524 4.941954,-2.128714 9.501866,-3.76327 11.91374,-4.270626 0.935612,-0.196811 2.356899,-0.57689 3.158405,-0.844616 2.035421,-0.679892 3.558067,-1.079256 4.737945,-1.242688 1.546396,-0.2142 3.972272,-0.196558 4.605525,0.0335 0.827241,0.300526 0.708692,-0.21491 -0.126179,-0.548595 -2.243554,-0.896718 -6.090683,-0.429248 -10.283581,1.24957 -0.277595,0.111149 -1.168929,0.331944 -1.980755,0.490659 -1.448123,0.283118 -6.896193,2.046697 -10.384776,3.361635 -4.805907,1.811472 -7.141912,3.554709 -9.361695,6.986145 -0.611136,0.944709 -1.111143,1.792929 -1.111143,1.884936 0,0.09201 -0.379066,1.037392 -0.842357,2.100853 -0.463302,1.063461 -1.15325,3.125955 -1.533242,4.583321 -0.37998,1.457366 -0.896504,3.160781 -1.147825,3.785367 -0.685284,1.703087 -1.989698,6.640365 -2.433539,9.211058 -0.450965,2.611923 -0.544254,9.975164 -0.139564,11.014704 0.143037,0.367418 0.215663,0.712449 0.161372,0.766733 -0.115549,0.115552 0.325106,1.346727 1.097196,3.065504 0.301334,0.670789 0.54787,1.39357 0.54787,1.606176 0,0.720872 1.992387,4.879907 2.850809,5.950957 0.469554,0.585858 1.62319,2.257586 2.563654,3.714952 2.441511,3.783452 6.040252,7.15539 10.074808,9.439866 1.371053,0.776336 2.520544,1.411518 2.554415,1.411518 0.03385,0 1.102564,0.624585 2.37486,1.387967 1.272306,0.763382 2.371387,1.387968 2.442415,1.387968 0.07101,0 1.003487,0.327134 2.072136,0.726961 4.606253,1.7234 4.994592,1.798133 9.038266,1.739343 2.065864,-0.0301 4.437493,-0.140942 5.270269,-0.246447 z m 26.157464,-6.69921 c 0.02117,-0.104094 0.06483,-0.30283 0.09703,-0.441627 0.0322,-0.138797 0.07178,-0.62143 0.08777,-1.07252 0.02878,-0.812074 0.04157,-0.820163 1.290896,-0.820163 0.932096,0 1.261788,-0.0953 1.261788,-0.36471 0,-0.256056 -0.357102,-0.387623 -1.198698,-0.441625 l -1.198699,-0.07692 -0.126179,-1.116014 c -0.116332,-1.028913 -0.707004,-1.761744 -0.795508,-0.986966 -0.02117,0.185061 -0.06483,0.450037 -0.09703,0.588834 -0.0322,0.138796 -0.07178,0.50787 -0.08777,0.820163 -0.02381,0.465526 -0.176842,0.568501 -0.84927,0.571668 -0.451097,0.002 -0.976661,0.102991 -1.167947,0.224144 -0.582734,0.369104 -0.05844,0.781423 0.993575,0.781423 h 0.994534 v 1.261789 c 0,0.953352 0.09251,1.261789 0.378537,1.261789 0.208188,0 0.395835,-0.08517 0.416972,-0.189269 z M 102.27783,76.557899 c 0.68015,-1.001585 1.85882,-4.211864 2.46293,-6.708138 0.66091,-2.730986 0.62538,-6.097867 -0.0717,-6.794784 -0.65904,-0.658886 -0.7576,-0.31331 -0.48063,1.685304 0.21122,1.524195 0.1722,2.200806 -0.238,4.126228 -0.54819,2.57317 -1.07098,4.296792 -1.79503,5.918112 -0.26808,0.600301 -0.45231,1.395228 -0.4094,1.766504 l 0.0781,0.675044 z m -4.562823,-1.035144 c 1.062089,-1.029798 1.866947,-2.300624 3.156613,-4.984065 1.56232,-3.250811 1.83245,-4.191938 1.83425,-6.390536 0.001,-1.496171 -0.0558,-1.71091 -0.43468,-1.637938 -0.35276,0.06793 -0.43959,0.372871 -0.45446,1.595741 -0.0207,1.704732 -0.72097,3.993364 -1.968195,6.432733 -0.959792,1.877203 -1.8932,3.539751 -2.200708,3.919814 -0.269006,0.332486 -0.766963,1.632056 -0.625348,1.632056 0.05877,0 0.370455,-0.255513 0.692528,-0.567805 z M 7.8207674,75.072251 c 0,-0.14368 -0.16203,-0.512753 -0.36008,-0.820163 -0.98865,-1.534613 -0.88911,-5.775515 0.20896,-8.902076 0.34418,-0.980016 0.70289,-2.399528 0.79713,-3.154471 0.16358,-1.310464 0.151,-1.353241 -0.27782,-0.944598 -1.06667,1.016516 -2.20978,5.695648 -2.23815,9.161568 -0.0244,2.979454 0.12891,3.900951 0.75275,4.524791 0.44832,0.448316 1.11721,0.529111 1.11721,0.134949 z m 5.2489596,-1.694264 c 0.66005,-1.427069 1.22155,-2.274115 3.10667,-4.686615 1.509402,-1.931654 2.373215,-3.406493 2.134828,-3.64488 -0.233724,-0.233732 -1.316377,0.904523 -3.256578,3.423846 -2.03142,2.637769 -2.59086,3.584277 -2.83711,4.800048 -0.27801,1.37264 0.23699,1.437668 0.85219,0.107601 z m 95.286833,0.740256 c 0.07,-0.113198 0.37596,-0.870675 0.67999,-1.683285 0.48517,-1.29672 0.53418,-1.78966 0.40057,-4.029416 -0.15441,-2.5886 -0.44782,-3.764077 -1.41066,-5.651392 -0.52381,-1.026761 -1.0291,-1.377056 -1.0291,-0.713439 0,0.183999 0.30868,1.177658 0.68596,2.208131 0.61171,1.670792 0.68533,2.215024 0.6801,5.028059 -0.003,1.734959 -0.0841,3.580325 -0.17986,4.100813 -0.16628,0.904258 -0.101,1.183821 0.173,0.740529 z m -97.942823,-1.95006 c 0.78629,-2.638862 2.02705,-5.483976 3.26939,-7.496812 1.23266,-1.997158 1.21351,-2.356538 -0.0766,-1.437868 -1.39332,0.992136 -3.9236596,7.498921 -3.7236996,9.575576 0.0787,0.817245 0.10651,0.783676 0.5309596,-0.640896 z m 33.494193,-2.9041 c 0.763379,-0.385681 2.154499,-0.834739 3.09138,-0.997906 1.404747,-0.24465 1.703413,-0.381163 1.703413,-0.778581 0,-0.265054 -0.03639,-0.481915 -0.08093,-0.481915 -0.04443,0 -1.117196,0.221459 -2.38378,0.49213 -2.338629,0.499765 -4.348978,1.512646 -4.348978,2.191162 0,0.475598 0.405395,0.390281 2.018861,-0.42489 z m 57.47584,-9.639866 c 0.71284,-0.589887 1.67132,-1.382033 2.12996,-1.760324 0.45863,-0.378292 0.99324,-0.690585 1.18804,-0.693984 0.19478,-0.0034 0.96268,0.569344 1.70644,1.272763 2.2205,2.100061 2.88458,1.532666 2.7314,-2.333723 -0.0389,-0.981753 -0.19807,-1.863704 -0.35371,-1.959896 -0.29602,-0.18295 0.17342,-0.66397 2.19861,-2.252864 0.60617,-0.47558 1.05167,-1.024047 1.00943,-1.24275 -0.084,-0.435249 -2.24372,-1.032191 -3.79788,-1.049751 l -0.94634,-0.01069 -0.0187,-1.703414 c -0.0305,-2.782679 -0.28158,-3.974635 -0.83704,-3.974635 -0.26247,0 -0.60315,0.224426 -0.75707,0.498727 -0.15393,0.274298 -0.68105,1.126004 -1.17138,1.892683 -0.49032,0.766675 -1.11235,1.81981 -1.38226,2.340297 -0.26991,0.520488 -0.57558,0.946342 -0.67924,0.946342 -0.27602,0 -0.96608,1.422473 -0.78023,1.608331 0.42355,0.423546 0.88721,-0.04871 2.46778,-2.513541 1.00344,-1.564802 1.78647,-2.553235 1.88999,-2.385743 0.0973,0.157288 0.20167,0.976686 0.23213,1.820888 0.0593,1.644351 0.45131,2.31382 1.38988,2.3739 1.14657,0.07339 2.9267,0.423857 2.92507,0.575875 -9.6e-4,0.08834 -0.37432,0.414263 -0.82973,0.724276 -1.22626,0.834769 -2.52924,2.257126 -2.3433,2.557984 0.0894,0.144727 0.32534,0.200701 0.52423,0.124383 0.30057,-0.115341 0.34205,0.191506 0.24576,1.818101 -0.0637,1.07627 -0.17633,2.017353 -0.25027,2.091291 -0.074,0.07394 -0.45489,-0.216422 -0.84656,-0.645246 -0.39168,-0.428824 -1.06829,-0.963852 -1.50357,-1.188953 -0.93516,-0.483589 -0.98497,-0.461694 -3.79958,1.670556 -1.04538,0.791946 -1.940785,1.39982 -1.989772,1.350832 -0.04895,-0.04899 0.20208,-0.932606 0.557922,-1.963592 0.76316,-2.211048 0.80152,-2.71938 0.20538,-2.721111 -0.60205,-0.0018 -3.369306,-1.813539 -3.263547,-2.136716 0.04675,-0.14267 0.82186,-0.381779 1.722576,-0.531354 1.844001,-0.306213 2.234951,-0.481968 2.234951,-1.00473 0,-0.39874 -1.385163,-0.524142 -1.618545,-0.146531 -0.07376,0.119413 -0.633838,0.285598 -1.244543,0.369305 -2.322841,0.31838 -3.007761,1.08876 -1.868624,2.101744 0.605182,0.538156 2.845693,2.02474 3.259479,2.162665 0.143169,0.04772 0.04091,0.613058 -0.241916,1.33818 -0.269404,0.690552 -0.568687,1.794963 -0.665085,2.454248 -0.174339,1.192383 -0.17145,1.198699 0.549259,1.198699 0.480845,0 1.160455,-0.360731 2.020615,-1.07252 z M 13.238947,52.471298 c 1.32765,-0.486031 2.30188,-1.456038 2.81696,-2.804742 0.66181,-1.732928 0.17999,-3.424916 -1.49939,-5.265364 -1.26964,-1.391404 -3.37501,-2.638178 -3.68685,-2.183301 -0.0807,0.117761 -0.80538,0.358444 -1.6103096,0.53485 -2.28742,0.501288 -3.83748,2.306063 -4.13449,4.813866 -0.1983,1.674307 0.0113,2.323801 1.11818,3.465449 1.6017,1.651967 4.6831496,2.285903 6.9958996,1.439242 z M 9.8396274,51.849183 c -2.73599,-0.614486 -3.66693,-1.47224 -3.64203,-3.355727 0.0406,-3.069246 1.49758,-4.866891 4.1438996,-5.112708 1.60899,-0.149456 2.56443,0.381078 4.05566,2.252016 0.99736,1.251301 1.03985,1.375571 0.94093,2.752077 -0.11865,1.651023 -0.52669,2.234709 -2.07067,2.961961 -1.79677,0.846324 -1.85705,0.855159 -3.4277896,0.502381 z M 27.757036,26.91629 c 0,-0.671884 0.08986,-0.737058 1.305185,-0.94634 1.593729,-0.27445 1.961714,-0.854056 0.545433,-0.8591 -0.532048,-0.002 -1.233948,-0.07482 -1.55977,-0.162044 -0.551134,-0.14755 -0.581763,-0.248401 -0.439608,-1.447612 0.167801,-1.415535 -0.130589,-2.246219 -0.628137,-1.748667 -0.161263,0.161258 -0.307939,0.89337 -0.325966,1.626916 l -0.03275,1.333719 -1.325605,-0.07054 c -1.032375,-0.05493 -1.360259,0.01976 -1.482237,0.33763 -0.232213,0.605134 0.03319,0.734654 1.379686,0.673215 l 1.215788,-0.05548 0.305579,1.019943 c 0.360267,1.202449 1.042398,1.397693 1.042398,0.298357 z m 61.704596,-4.187271 c 0.484064,-0.756715 0.88012,-1.611987 0.88012,-1.900604 0,-0.798515 0.639681,-0.874751 1.564886,-0.186492 0.992494,0.738318 2.402865,1.059233 2.887502,0.657023 0.18832,-0.156295 0.342317,-0.696124 0.342207,-1.199615 -2.21e-4,-1.022261 -1.277378,-3.945533 -1.804862,-4.13112 -0.27668,-0.09735 -0.262347,-0.278958 0.07707,-0.975547 1.306553,-2.68175 1.728023,-3.637593 1.728023,-3.918881 0,-0.492395 -0.501297,-0.679194 -1.096577,-0.408613 -0.762035,0.346377 -2.148314,0.746415 -3.214307,0.927552 -1.104163,0.187621 -1.365749,-0.07028 -2.489748,-2.4547274 -1.043125,-2.2128894 -1.572251,-2.2259109 -1.831985,-0.045084 -0.194108,1.6297794 -0.653,3.3404084 -1.030611,3.8418454 -0.129288,0.171694 -0.163456,0.597549 -0.07586,0.946342 0.116719,0.46504 0.05877,0.634173 -0.217284,0.634173 -0.207042,0 -0.975747,0.26708 -1.708221,0.593512 -0.732474,0.32643 -1.899584,0.812382 -2.593567,1.079891 -1.539472,0.59342 -1.773295,1.270806 -0.664721,1.92566 0.408427,0.241263 0.909879,0.438661 1.114329,0.438661 0.204462,0 1.157925,0.177543 2.118831,0.394543 l 1.747087,0.394544 0.347124,1.182692 c 0.541298,1.844281 1.229405,3.259014 1.666775,3.426852 0.953617,0.365934 1.388661,0.129946 2.253874,-1.222605 z m -2.087507,-0.201392 c -0.152343,-0.312292 -0.463049,-1.159442 -0.690455,-1.882555 -0.476092,-1.513859 -1.327126,-2.180583 -3.155572,-2.472167 -0.624587,-0.09961 -1.533077,-0.345811 -2.018871,-0.54713 l -0.883252,-0.366032 1.135609,-0.465678 c 0.624587,-0.256121 1.68693,-0.674896 2.360769,-0.93061 0.673828,-0.255714 1.291381,-0.635275 1.372321,-0.84347 0.08093,-0.208195 0.295876,-0.492097 0.477614,-0.630894 0.181738,-0.138798 0.502576,-0.91669 0.712992,-1.728651 0.210404,-0.811962 0.524881,-1.679497 0.698845,-1.927856 0.288004,-0.411188 0.394888,-0.341048 1.195325,0.784446 0.858322,1.20687 1.906111,1.81366 2.231018,1.292008 0.0892,-0.143218 0.6732,-0.396815 1.297787,-0.563545 0.624587,-0.166733 1.293939,-0.433106 1.487463,-0.591943 0.290297,-0.238274 0.31968,-0.178775 0.167966,0.34012 -0.101106,0.345905 -0.390202,0.921441 -0.642372,1.278975 -0.387621,0.549567 -1.265415,2.739285 -1.265415,3.156667 0,0.07145 0.194483,0.02107 0.432177,-0.111958 0.364985,-0.204257 0.540449,-2.25e-4 1.128541,1.312338 0.664324,1.482683 0.925679,2.953105 0.521232,2.932538 -0.104083,-0.0053 -0.922591,-0.39903 -1.818864,-0.874975 -1.481355,-0.786627 -1.668694,-0.829977 -2.059259,-0.476519 -0.236304,0.213858 -0.504517,0.692768 -0.59603,1.064245 -0.266548,1.082096 -1.204267,2.820452 -1.521434,2.820452 -0.160138,0 -0.415803,-0.255512 -0.568135,-0.567806 z M 59.651643,17.08519 c 0.07707,-0.124602 -0.43457,-0.539273 -1.136833,-0.921494 -1.198048,-0.652057 -1.403965,-0.6846 -3.336339,-0.527249 l -2.059491,0.1677 -1.467385,-1.527692 c -0.807074,-0.84023 -1.611624,-1.52769 -1.787882,-1.52769 -0.623517,0 -2.768777,2.753205 -2.636534,3.383703 0.0591,0.281546 0.482388,-0.128104 1.299705,-1.257679 1.159116,-1.60197 1.232768,-1.656553 1.684064,-1.248135 0.259557,0.234903 0.78005,0.871704 1.156635,1.415122 0.89721,1.294673 2.124321,1.696838 3.915765,1.283322 1.107713,-0.255688 1.3865,-0.233135 2.201722,0.178115 1.306861,0.659254 2.003215,0.846304 2.166573,0.581977 z M 7.1668674,14.830717 c 0.0788,-0.381691 0.10011,-1.682677 0.0474,-2.891079 -0.14404,-3.302763 -0.85077,-4.2258747 -3.24201,-4.2345818 -1.21514,-0.00441 -1.22107,-0.3276833 -0.0508,-2.769548 0.66594,-1.3895707 0.8762,-2.1317366 0.82017,-2.8949947 -0.0668,-0.9099558 -0.15407,-1.035441 -0.76933,-1.10623519 -0.38169,-0.0439156 -0.69398,0.0412474 -0.69398,0.18926809 0,0.1480164 -0.14622,0.2691201 -0.32493,0.2691201 -0.40987,0 -2.70336002,2.3088918 -2.70336002,2.7215143 0,0.5851414 0.56732,0.3001961 1.98348002,-0.9962346 1.26358,-1.1567597 1.43218,-1.2433957 1.50205,-0.7718582 0.0433,0.2921352 -0.25198,1.3043461 -0.65616,2.249355 -1.47917,3.4584947 -1.46115,3.3842109 -0.91823,3.7865705 0.28054,0.2079116 0.77459,0.3040783 1.16781,0.2273137 0.99865,-0.1949575 2.10622,0.2817709 2.46412,1.0606173 0.17222,0.3747825 0.36504,1.5899095 0.42848,2.7002835 0.13844,2.422784 0.2717,3.154472 0.57451,3.154472 0.12512,0 0.29197,-0.312293 0.37076,-0.693983 z m 72.3797306,0.05637 c 0.355261,-0.369774 -0.09923,-0.624177 -1.115046,-0.624177 -0.565964,0 -2.007162,-0.129423 -3.202663,-0.287609 -1.672233,-0.221265 -2.595684,-0.216005 -4.003233,0.02281 -1.006276,0.170725 -1.829592,0.385319 -1.829592,0.476877 0,0.09156 0.652968,0.169305 1.451056,0.172775 0.798078,0.0034 3.040904,0.101459 4.984062,0.217748 1.943157,0.116295 3.615092,0.126008 3.715416,0.02158 z m 1.057601,-3.869582 c 0.198541,-0.321251 0.02679,-0.420536 -1.36619,-0.790029 -0.624587,-0.165668 -2.114432,-0.7938308 -3.31076,-1.3959188 -1.918074,-0.9653194 -4.430833,-1.7679152 -3.96269,-1.265714 0.245091,0.2629225 2.562672,1.528513 4.623695,2.5249148 1.891039,0.914225 3.757491,1.344939 4.015945,0.926747 z m 1.6621,-1.7959314 c 0,-0.135597 -0.292249,-0.4380346 -0.649461,-0.6720839 C 80.776124,7.9986285 79.019247,5.4091079 78.824047,4.433077 78.740697,4.0162471 78.51581,3.5451925 78.324348,3.3862882 78.132875,3.2273839 77.976221,2.909422 77.976221,2.6797058 c 0,-0.5019939 -0.689904,-1.5393976 -1.023742,-1.5393976 -0.366308,0 -0.283097,0.8899022 0.18208,1.9472106 1.779722,4.0450926 3.437456,6.3805952 4.528918,6.3805952 0.331556,0 0.602822,-0.1109434 0.602822,-0.2465404 z"
     id="path23"
     inkscape:connector-curvature="0" />
</svg>
