<?xml version="1.0" encoding="UTF-8" standalone="no"?>
<!-- Created with Fritzing (https://fritzing.org/) -->

<svg
   xmlns:dc="http://purl.org/dc/elements/1.1/"
   xmlns:cc="http://creativecommons.org/ns#"
   xmlns:rdf="http://www.w3.org/1999/02/22-rdf-syntax-ns#"
   xmlns:svg="http://www.w3.org/2000/svg"
   xmlns="http://www.w3.org/2000/svg"
   xmlns:sodipodi="http://sodipodi.sourceforge.net/DTD/sodipodi-0.dtd"
   xmlns:inkscape="http://www.inkscape.org/namespaces/inkscape"
   version="1.2"
   x="0in"
   y="0in"
   width="1.62111in"
   height="2.66911in"
   viewBox="0 0 116.72 192.176"
   id="svg2019"
   sodipodi:docname="front-silk.svg"
   inkscape:version="0.92.5 (2060ec1f9f, 2020-04-08)">
  <metadata
     id="metadata2025">
    <rdf:RDF>
      <cc:Work
         rdf:about="">
        <dc:title />
        <dc:format>image/svg+xml</dc:format>
        <dc:type
           rdf:resource="http://purl.org/dc/dcmitype/StillImage" />
      </cc:Work>
    </rdf:RDF>
  </metadata>
  <defs
     id="defs2023" />
  <sodipodi:namedview
     pagecolor="#ffffff"
     bordercolor="#666666"
     borderopacity="1"
     objecttolerance="10"
     gridtolerance="10"
     guidetolerance="10"
     inkscape:pageopacity="0"
     inkscape:pageshadow="2"
     inkscape:window-width="640"
     inkscape:window-height="480"
     id="namedview2021"
     showgrid="false"
     showguides="true"
     inkscape:guide-bbox="true"
     inkscape:object-paths="true"
     inkscape:snap-smooth-nodes="true"
     inkscape:snap-bbox="true"
     inkscape:bbox-nodes="true"
     inkscape:zoom="2.8617128"
     inkscape:cx="185.54748"
     inkscape:cy="110.98427"
     inkscape:current-layer="svg2019">
    <sodipodi:guide
       position="33.86127,191.25331"
       orientation="0,1"
       id="guide2040"
       inkscape:locked="false" />
    <sodipodi:guide
       position="0,131.94727"
       orientation="1,0"
       id="guide2042"
       inkscape:locked="false" />
    <sodipodi:guide
       position="71.347912,0.82500207"
       orientation="0,1"
       id="guide2044"
       inkscape:locked="false" />
    <sodipodi:guide
       position="116.72056,23.906176"
       orientation="1,0"
       id="guide2046"
       inkscape:locked="false" />
  </sodipodi:namedview>
  <path
     style="fill:#000000;stroke-width:1"
     d="m 46.152304,185.59307 c -0.455959,-0.18398 -0.376032,-0.68742 0.190525,-1.20016 0.666329,-0.60301 1.971691,-2.59115 1.971691,-3.00298 0,-0.68121 -1.007336,-0.32452 -1.515409,0.53659 -0.604366,1.02433 -0.955696,1.10818 -0.955696,0.22809 0,-0.37247 0.296019,-0.93279 0.713153,-1.34994 0.639477,-0.63946 0.798877,-0.68857 1.54281,-0.47521 0.456314,0.13087 0.845226,0.23795 0.86425,0.23795 0.019,0 0.09825,0.24363 0.176166,0.5414 0.172669,0.66028 -0.394159,1.91779 -1.209856,2.68411 -0.816627,0.76718 -0.760906,0.97537 0.261027,0.97537 1.14403,0 1.099505,0.3457 -0.09047,0.70221 -1.004313,0.3009 -1.438559,0.32823 -1.948219,0.12257 z m -28.91134,-1.70351 c 0.144921,-1.80545 0.259019,-2.04343 0.77453,-1.61559 0.467932,0.38834 0.668455,0.0208 0.444849,-0.8153 l -0.179881,-0.67261 -1.068152,0.77376 c -0.587471,0.42557 -1.136419,0.70548 -1.219887,0.62201 -0.27923,-0.27923 0.651764,-1.48742 1.373607,-1.7826 1.510615,-0.61772 2.434731,0.64732 1.800955,2.46535 -0.241291,0.69218 -0.209074,0.82696 0.287101,1.20122 0.723733,0.54592 0.383038,0.88159 -0.540841,0.53286 -0.797322,-0.30095 -0.993332,-0.21059 -0.993332,0.45793 0,0.25479 -0.176998,0.45303 -0.404491,0.45303 -0.346687,0 -0.385911,-0.23157 -0.274458,-1.62006 z m 35.336211,1.20929 c -0.169883,-0.0685 -0.308888,-0.27413 -0.308888,-0.45686 0,-0.25103 0.317018,-0.30334 1.29733,-0.21403 1.48547,0.13531 1.80902,-0.0159 2.044761,-0.95506 0.162833,-0.64882 0.136004,-0.67064 -0.756597,-0.6153 -1.163356,0.0721 -1.323382,-0.30941 -0.359794,-0.85782 0.904208,-0.51461 0.946562,-0.87946 0.114173,-0.98352 -0.846759,-0.10591 -0.852492,-0.51872 -0.01134,-0.81454 0.581899,-0.20465 0.757461,-0.15696 1.133957,0.30798 0.244994,0.30257 0.390477,0.76038 0.323269,1.01736 -0.06715,0.25697 -0.0011,0.54195 0.146455,0.63327 0.512337,0.31663 0.304245,1.85349 -0.337909,2.49563 -0.483403,0.48341 -0.847116,0.60258 -1.791551,0.58704 -0.651753,-0.0108 -1.324008,-0.0756 -1.493891,-0.14415 z m 15.439221,-0.10613 c -0.60496,-0.35219 -0.28276,-0.7538 0.455991,-0.56838 0.862835,0.21656 1.340753,-0.29096 1.340753,-1.42381 0,-1.1434 -0.429852,-1.41301 -1.321438,-0.82883 -0.58244,0.38163 -0.634878,0.37855 -0.864682,-0.0508 -0.134708,-0.25172 -0.164906,-0.84219 -0.06715,-1.31416 l 0.17743,-0.85705 1.841063,0.0862 c 1.874598,0.0878 2.398455,0.27666 2.101141,0.75771 -0.152922,0.24744 -1.1916,0.20177 -2.79297,-0.12283 -0.38767,-0.0786 -0.555999,0.004 -0.555999,0.27387 0,0.30537 0.175498,0.35365 0.835477,0.22984 0.693352,-0.13008 0.903538,-0.0596 1.235553,0.41444 1.292579,1.84542 -0.548614,4.47302 -2.385111,3.40385 z m -27.856521,-0.97967 c 0,-0.67645 -0.140732,-1.14648 -0.400011,-1.33607 -0.303608,-0.22201 -0.339798,-0.40723 -0.150147,-0.76858 0.137429,-0.26184 0.370645,-0.78187 0.518265,-1.15563 0.147621,-0.37375 0.437583,-0.67955 0.644368,-0.67955 0.304235,0 0.37126,0.34178 0.351329,1.79155 -0.02796,2.03243 -0.223304,2.94501 -0.661739,3.09115 -0.206224,0.0688 -0.302065,-0.23041 -0.302065,-0.94287 z m 22.487062,0.26722 c 0,-0.69282 -0.04481,-0.72618 -0.778417,-0.57947 -1.486539,0.29732 -1.712056,-1.12388 -0.457848,-2.88526 0.548776,-0.77068 1.236265,-0.99418 1.236265,-0.40192 0,0.18723 -0.164496,0.47693 -0.365537,0.64379 -0.549413,0.45597 -1.114081,1.70673 -0.845475,1.87275 0.127377,0.0787 0.604076,-0.0871 1.059353,-0.36846 1.017582,-0.62891 1.752284,-0.68121 1.532748,-0.10911 -0.08497,0.22136 -0.276844,0.88856 -0.42644,1.48266 -0.315528,1.25308 -0.954649,1.48408 -0.954649,0.34502 z m 13.838196,0.55985 c -1.862387,-0.68478 -1.528559,-3.2311 0.564474,-4.30554 0.896812,-0.46038 1.41241,-0.44427 1.41241,0.0442 0,0.12607 -0.413107,0.40183 -0.918006,0.61278 -0.875694,0.36589 -1.293939,0.74556 -1.30221,1.1821 -0.0022,0.10995 0.114638,0.12673 0.259365,0.0373 0.144727,-0.0895 0.628119,-0.0942 1.074198,-0.0108 1.359518,0.25505 1.683899,1.79084 0.492872,2.3335 -0.66012,0.30077 -0.993236,0.32312 -1.583103,0.10624 z m 1.411147,-1.21174 c 0.11048,-0.3371 -1.279289,-0.94761 -1.644017,-0.7222 -0.185354,0.11456 -0.184847,0.30781 0.0022,0.6564 0.284304,0.53124 1.474122,0.57891 1.642299,0.0658 z m 5.755056,0.55694 c 0,-0.57539 0.264018,-1.16306 0.860395,-1.91511 l 0.860396,-1.08499 -1.24717,-0.0752 c -1.543295,-0.0932 -1.520493,-0.57737 0.04006,-0.84972 1.35358,-0.23623 2.451693,-0.0239 2.451693,0.47423 0,0.2062 -0.432811,0.86659 -0.961796,1.46754 -0.533823,0.60646 -1.033604,1.47548 -1.123193,1.95304 -0.215434,1.14839 -0.880347,1.17124 -0.880347,0.0302 z m 24.328424,-1.3625 c 0.01,-1.52503 -0.0829,-2.0586 -0.42047,-2.43278 -0.5776,-0.64019 -0.54494,-0.8617 0.11303,-0.76645 0.42188,0.0611 0.65559,0.40823 1.03148,1.53212 0.44033,1.31656 0.45293,1.54714 0.13409,2.45305 -0.57788,1.64187 -0.87136,1.37307 -0.85813,-0.78594 z m -9.117333,1.22646 c -0.07644,-0.12364 -0.0745,-0.39279 0.0043,-0.5981 0.0976,-0.25433 -0.03379,-0.39927 -0.412287,-0.45475 -0.881783,-0.12927 -0.883219,-0.69922 -0.0022,-0.69922 0.601603,0 0.789074,-0.12695 0.912273,-0.61777 0.214364,-0.85415 0.942157,-0.83616 0.778647,0.0192 -0.0945,0.494 0.009,0.69627 0.45766,0.90101 0.68911,0.31398 0.55044,0.68596 -0.25571,0.68596 -0.366557,0 -0.621139,0.17883 -0.703613,0.49423 -0.134859,0.5157 -0.540624,0.65594 -0.779508,0.2694 z m -71.937526,-0.63221 c -0.436189,-0.32992 -0.317266,-0.36352 1.311884,-0.37066 0.985354,-0.004 1.791551,0.0914 1.791551,0.21281 0,0.59755 -2.363183,0.71775 -3.103435,0.15785 z m 6.829277,0.12309 c -1.508823,-0.1808 -1.648044,-0.74873 -0.183541,-0.74873 1.195249,0 1.894129,0.18236 1.894129,0.49423 0,0.31356 -0.543216,0.39438 -1.710588,0.2545 z m 57.804704,-0.2545 c 0,-0.27183 -0.153181,-0.49423 -0.340414,-0.49423 -0.187223,0 -0.478836,-0.1668 -0.648028,-0.37066 -0.32314,-0.38936 -0.294939,-0.40568 0.810072,-0.46903 0.24168,-0.0138 0.575281,-0.29072 0.741332,-0.61524 0.389743,-0.7617 0.818472,-0.59394 0.718561,0.28116 -0.05539,0.48473 0.03325,0.67955 0.308888,0.67955 0.603633,0 0.453572,0.48095 -0.231304,0.74134 -0.339777,0.12918 -0.617776,0.34883 -0.617776,0.48809 0,0.13928 -0.166795,0.25324 -0.370666,0.25324 -0.205922,0 -0.370665,-0.21966 -0.370665,-0.49422 z m 18.687298,-0.62755 c -0.0847,-0.22073 -0.154,-0.70223 -0.154,-1.07 0,-0.38346 -0.31193,-1.0336 -0.73129,-1.52423 -0.78837,-0.92232 -0.94686,-1.47332 -0.42379,-1.47332 0.82853,0 2.21453,2.32608 2.09623,3.51803 -0.0844,0.85104 -0.54743,1.17425 -0.78715,0.54952 z m 2.05037,-2.15245 c -0.15627,-0.3058 -0.83826,-1.12652 -1.51554,-1.82381 -1.35268,-1.39266 -1.25486,-2.02552 0.16292,-1.05403 0.86477,0.59255 2.42871,2.87674 2.21092,3.22914 -0.22294,0.36073 -0.56624,0.22023 -0.8583,-0.3513 z m -29.26299,-2.17081 c -3.359139,-1.11399 -4.135116,-1.55709 -5.472231,-3.12482 -1.505703,-1.76537 -2.805451,-3.73782 -2.807491,-4.2605 -7.45e-4,-0.21453 -0.168026,-0.70933 -0.37153,-1.09952 -0.203492,-0.3902 -0.439126,-1.6134 -0.52362,-2.71822 -0.137871,-1.80267 -0.08162,-2.2116 0.548107,-3.98565 0.385953,-1.08729 0.954152,-2.42941 1.262662,-2.98248 0.983152,-1.76251 3.796084,-3.38266 6.425196,-3.7007 0.78822,-0.0953 1.557752,-0.2725 1.710058,-0.39369 0.384065,-0.30561 2.469831,-0.31003 3.770853,-0.008 0.907144,0.21059 1.4074,0.60015 3.088881,2.40533 1.814126,1.94759 3.365336,4.23237 3.365487,4.95703 3.2e-5,0.15261 0.241853,0.81981 0.537385,1.48266 0.447591,1.00393 0.530832,1.61785 0.498475,3.6763 -0.05312,3.37717 -0.403368,4.86134 -1.530761,6.48626 -1.352371,1.94918 -3.55123,3.26416 -6.06578,3.62753 -0.672784,0.0972 -1.445652,0.22161 -1.717465,0.2764 -0.271824,0.0548 -1.495025,-0.23226 -2.718226,-0.63791 z m 7.041007,-1.8439 c 0.773278,-0.39185 1.461102,-1.00225 1.956457,-1.73623 1.569477,-2.32552 1.60883,-2.46966 1.617759,-5.92504 0.0076,-3.03782 -0.03131,-3.29974 -0.720213,-4.81865 -0.696807,-1.53633 -1.973602,-3.26476 -3.840793,-5.19938 -1.497702,-1.55178 -1.974562,-1.75476 -3.829867,-1.6302 -0.912574,0.0613 -1.780829,0.233 -1.929433,0.38161 -0.148613,0.14861 -0.583076,0.2702 -0.965466,0.2702 -0.382391,0 -0.888348,0.10138 -1.124349,0.2252 -0.236,0.12386 -0.972171,0.41674 -1.63594,0.65085 -1.247332,0.43992 -3.117589,2.05967 -3.117589,2.70001 0,0.19998 -0.286366,1.00619 -0.636357,1.79155 -0.567885,1.27429 -0.625193,1.66723 -0.532591,3.65193 0.132678,2.84378 0.58042,3.9878 2.600144,6.64346 1.338335,1.75972 3.828722,3.32705 6.091994,3.83398 1.311883,0.29384 4.775899,-0.18542 6.066244,-0.83929 z m -9.470923,-3.74869 c -0.4999,-0.49989 0.442366,-2.34586 2.336839,-4.57807 0.902265,-1.06312 0.824584,-1.52465 -0.338416,-2.01059 -0.972981,-0.40654 -1.668946,-1.04975 -1.668946,-1.54245 0,-0.54709 0.664871,-0.42274 2.246127,0.42005 1.423433,0.75868 1.462819,0.76495 2.116742,0.33648 0.366476,-0.24013 0.896941,-0.68375 1.178827,-0.98583 0.710896,-0.76184 1.58428,-1.01033 1.777872,-0.50583 0.09922,0.25851 -0.250274,0.82221 -1.019676,1.64476 l -1.170601,1.25147 0.777327,0.47272 c 0.42752,0.25999 0.858031,0.48403 0.956679,0.49786 0.09868,0.0138 0.671596,0.57401 1.273232,1.24485 0.991022,1.10503 1.057625,1.25596 0.70838,1.6052 -0.30593,0.30593 -0.493433,0.32772 -0.908537,0.10559 -0.287673,-0.15396 -0.523047,-0.38371 -0.523047,-0.51054 0,-0.43044 -2.726324,-2.2567 -3.250062,-2.1771 -0.303965,0.0462 -0.733979,0.4972 -1.063683,1.11558 -0.304386,0.57092 -0.791913,1.34933 -1.083375,1.72978 -0.291474,0.38046 -0.76123,0.99754 -1.043904,1.37129 -0.501217,0.66273 -0.968911,0.84768 -1.301778,0.51481 z m 20.185936,5.96729 c -0.12265,-0.31962 0.10656,-1.62597 0.54485,-3.10469 0.0761,-0.25687 -0.394,-0.79999 -1.370284,-1.58304 -0.817393,-0.65561 -1.486172,-1.32866 -1.486172,-1.49566 0,-0.40409 0.960339,-1.01362 2.210796,-1.4032 0.88842,-0.27679 1.04704,-0.44012 1.26726,-1.30483 0.70837,-2.7815 1.09479,-2.92302 2.86775,-1.05022 l 1.22818,1.29733 1.95834,0.0886 c 3.61754,0.16366 3.75809,0.96405 0.53744,3.06071 -0.64558,0.42027 -1.17378,0.92507 -1.17378,1.12179 0,0.19671 0.18916,0.89024 0.42035,1.54119 0.35113,0.98863 0.3665,1.24843 0.0933,1.5776 -0.43887,0.52882 -0.68745,0.50097 -2.06256,-0.23105 -1.36202,-0.72506 -1.60683,-0.65279 -2.8935,0.85423 -0.89494,1.04821 -1.87152,1.336 -2.14197,0.63123 z m 2.18957,-1.81543 c 1.16892,-1.01956 1.73484,-1.12818 2.86749,-0.55034 0.53455,0.2727 1.02685,0.44088 1.094,0.37372 0.15439,-0.15439 -0.50601,-2.09445 -0.85684,-2.51718 -0.31361,-0.37787 -0.37425,-0.31759 1.16661,-1.15956 1.24289,-0.67916 2.34755,-1.55909 2.34755,-1.86997 0,-0.0921 -0.91136,-0.2377 -2.02524,-0.32358 -1.95744,-0.15096 -2.06003,-0.19036 -3.06583,-1.17746 -0.57233,-0.5617 -1.15575,-0.95012 -1.29648,-0.86314 -0.14074,0.087 -0.33,0.65237 -0.42058,1.25642 -0.18883,1.2592 -0.39585,1.48102 -1.59364,1.70755 -0.47568,0.0899 -1.05829,0.31045 -1.294675,0.48996 -0.390207,0.29636 -0.291797,0.43709 1.068805,1.52839 1.58054,1.2677 1.56918,1.23379 1.00822,3.01008 -0.31297,0.99103 -0.0547,1.01558 1.00061,0.0951 z m -95.9758018,1.52119 c -0.6261327,-0.0958 -1.3833889,-0.70404 -1.1576015,-0.92982 0.057545,-0.0575 0.8380465,0.0209 1.7343833,0.17447 1.5597713,0.26718 1.6866735,0.25029 2.957638,-0.39384 1.279786,-0.64859 2.169699,-1.63573 2.547383,-2.82569 0.175508,-0.55298 0.173154,-0.5535 -0.543507,-0.11774 -0.395887,0.24071 -1.185133,0.74649 -1.753904,1.12398 -1.4818964,0.98351 -2.3552798,1.30831 -4.7385439,1.7622 -2.6250519,0.49996 -4.1856654,0.27017 -5.48880384,-0.80818 -0.87296237,-0.72237 -0.26454681,-2.69023 1.04038384,-3.36503 0.8982801,-0.46453 1.3356143,-0.011 0.5796536,0.60116 -0.621814,0.50351 -1.0640389,1.31311 -1.0640389,1.94799 0,0.66086 1.1461464,1.02885 3.204468,1.02885 3.9691847,0 7.9567782,-2.31948 10.2936062,-5.98751 0.633971,-0.99513 0.730492,-1.68483 0.33833,-2.41759 -0.202542,-0.37846 -0.52864,-0.46374 -1.75088,-0.45789 -1.59689,0.008 -1.961261,-0.12455 -1.530578,-0.55524 0.453659,-0.45365 2.804404,-0.30383 3.514738,0.22401 1.183664,0.87957 0.990439,2.75112 -0.484892,4.69667 -0.734908,0.96912 -0.935043,1.41319 -0.76991,1.70824 0.303587,0.54248 -0.301223,1.95556 -1.284903,3.00207 -1.373651,1.46137 -3.1701575,1.96721 -5.6430218,1.58889 z m 18.3593848,-0.72539 c -3.388116,-1.0715 -6.04071,-3.88761 -6.31966,-6.70926 -0.07115,-0.71972 -0.241766,-1.5186 -0.379151,-1.77531 -0.620573,-1.15956 -0.231251,-3.26094 1.184528,-6.39353 0.550816,-1.21875 3.399895,-4.48434 3.912384,-4.48434 0.185268,0 0.336851,-0.0983 0.336851,-0.21841 0,-0.12013 0.591659,-0.45855 1.314809,-0.75206 1.120796,-0.45489 1.421641,-0.48958 2.038662,-0.23503 0.398121,0.16423 1.258257,0.32714 1.911413,0.362 0.653156,0.0349 1.431552,0.22206 1.729773,0.41598 0.298221,0.19393 0.987017,0.49578 1.530653,0.67082 1.508802,0.48575 3.688789,1.67343 4.244312,2.31235 0.273541,0.3146 0.82047,1.16728 1.215406,1.89485 0.674156,1.242 0.716975,1.49003 0.700402,4.05794 -0.01468,2.27729 -0.107425,2.92123 -0.55426,3.84709 -0.73291,1.51877 -3.51409,4.05444 -6.628839,6.04367 -1.726416,1.10257 -4.461236,1.52492 -6.237283,0.96324 z m 4.467627,-1.57048 c 0.148279,0 4.30935,-2.76149 5.572628,-3.69828 0.441718,-0.32754 0.803109,-0.69646 0.803109,-0.81981 0,-0.12335 0.225625,-0.54112 0.501379,-0.92839 0.325774,-0.45751 0.596302,-1.43944 0.772393,-2.80357 0.236605,-1.83292 0.213782,-2.29053 -0.179859,-3.60465 -0.249291,-0.83222 -0.732737,-1.77733 -1.081281,-2.11386 -0.985009,-0.95101 -2.095494,-1.84588 -2.291073,-1.84622 -0.09792,-1.6e-4 -0.765105,-0.26674 -1.482663,-0.5924 -0.717568,-0.32567 -2.42943,-0.78718 -3.804149,-1.02561 l -2.499488,-0.43352 -1.788345,1.4269 c -1.782265,1.42204 -3.714883,3.94464 -3.714883,4.84894 0,0.24274 -0.100732,0.50361 -0.223952,0.57974 -0.371907,0.22986 -0.53406,2.39781 -0.287554,3.84453 0.535042,3.14018 0.956138,4.29922 1.840469,5.06576 2.487181,2.15593 2.756878,2.28539 5.34303,2.56496 1.1649,0.12593 1.713405,0.0859 1.996339,-0.14544 0.214569,-0.17548 0.450322,-0.31908 0.5239,-0.31908 z m -1.094625,-5.51135 c -1.429933,-1.53275 -3.402498,-4.10872 -3.402498,-4.44331 0,-0.20411 0.185441,-0.44227 0.412081,-0.52923 0.296559,-0.11381 0.850776,0.31178 1.976819,1.518 0.8606,0.92187 1.564759,1.75954 1.564792,1.86147 4.3e-5,0.10192 0.151766,0.18533 0.337164,0.18533 0.185408,0 0.537115,-0.5282 0.781581,-1.17378 0.570552,-1.50668 1.121066,-2.26823 1.646737,-2.278 0.547858,-0.01 0.82319,0.45625 0.474927,0.80452 -0.151259,0.15125 -0.275008,0.45291 -0.275008,0.67038 0,0.21745 -0.134093,0.52946 -0.297973,0.69335 -0.163891,0.16389 -0.535593,0.93672 -0.826019,1.71742 -0.440703,1.18467 -0.635871,1.4323 -1.179961,1.49717 -0.441059,0.0526 -0.833296,-0.11668 -1.212642,-0.52332 z m -24.7696386,5.22302 c -2.0308337,-5.77335 -1.2037026,-7.76366 3.5751769,-8.60279 1.27117,-0.2232 2.3794962,0.11638 4.2489117,1.30184 1.205333,0.76435 2.069701,2.23961 1.769915,3.02085 -0.215844,0.56246 -0.6673,0.31875 -0.955653,-0.51589 -0.448735,-1.29891 -1.112721,-2.02245 -2.340802,-2.55075 -2.0220023,-0.86984 -4.2888153,-0.59078 -5.6682526,0.69781 -0.6489564,0.60621 -0.7602144,0.8868 -0.7569215,1.90886 0.00216,0.659 0.1735107,1.86539 0.3808576,2.68085 0.2073469,0.81547 0.4002049,1.6375 0.4285781,1.82674 0.06791,0.45289 -0.5322894,0.65754 -0.6818102,0.23248 z m 3.7128864,-1.05056 c 0.5175845,-0.37848 0.7521494,-0.3369 0.4902262,0.0869 -0.089611,0.14495 -0.3443762,0.26354 -0.5662012,0.26354 -0.3372937,0 -0.3248561,-0.0573 0.076007,-0.35045 z m 35.9898542,-0.4403 c -0.504251,-0.50425 -0.329736,-1.30897 0.444805,-2.05102 0.871894,-0.83533 0.913525,-1.12668 0.247111,-1.72977 -0.61688,-0.55827 -0.615002,-0.6447 0.03174,-1.46697 0.59627,-0.75803 1.184701,-0.53289 0.746622,0.28568 -0.200869,0.37532 -0.152706,0.56625 0.224222,0.88899 0.668649,0.57252 0.600297,1.15869 -0.251267,2.15496 -0.413474,0.48374 -0.735653,1.15088 -0.741331,1.53511 -0.0108,0.73265 -0.231769,0.8532 -0.701957,0.38302 z m -34.15068,-1.11914 c -0.9000185,-0.3426 -1.0274712,-1.81543 -0.2068395,-2.39022 0.6921645,-0.48482 1.1014275,-0.23259 0.5719449,0.35249 -0.2246429,0.24822 -0.3697479,0.65418 -0.32247,0.90213 0.1342653,0.70414 1.0646866,0.69181 1.6258136,-0.0216 0.486815,-0.61888 0.802656,-0.61126 0.802656,0.0193 0,0.89869 -1.40265,1.54453 -2.471105,1.1378 z m -4.4354318,-1.41096 c -0.3770357,-0.45431 -0.1466922,-1.62136 0.3200084,-1.62136 0.2214364,0 0.287457,0.24328 0.2097438,0.77281 -0.0854,0.58162 -0.028935,0.74378 0.2281302,0.65544 0.1878484,-0.0646 0.3371641,-0.41233 0.331809,-0.77281 -0.010796,-0.71487 0.069853,-0.76752 0.6275254,-0.41075 0.328948,0.21044 0.3280195,0.3143 -0.00864,0.92289 -0.4362221,0.78943 -1.2508617,1.00575 -1.7089575,0.45378 z m 39.5970108,-4.83777 c -0.625464,-0.25177 -1.056709,-1.54095 -0.819693,-2.45039 0.201171,-0.7719 1.320489,-1.61701 1.864935,-1.40809 0.35148,0.13489 0.295543,0.27 -0.368593,0.8904 -0.878447,0.8206 -0.957315,1.85525 -0.177549,2.32935 0.367827,0.22365 0.554649,0.1487 1.05022,-0.42129 0.618316,-0.71118 0.798693,-1.7511 0.351664,-2.02738 -0.279975,-0.17304 -0.09307,-0.61528 0.260023,-0.61528 0.124764,0 0.411411,0.2817 0.637015,0.626 0.384216,0.5864 0.381689,0.68919 -0.03995,1.62416 -0.689173,1.52831 -1.50391,1.95739 -2.758097,1.45252 z m 60.903384,-4.29123 c -0.37336,-0.20342 -0.81816,-0.45751 -0.98844,-0.56466 -0.17028,-0.10721 -1.21842,-0.19731 -2.32918,-0.20036 -2.16019,-0.005 -3.13844,-0.42138 -3.653055,-1.55142 -0.146109,-0.32082 -0.566979,-0.58071 -1.103457,-0.68134 -2.160327,-0.40529 -3.559576,-1.88827 -3.45078,-3.6573 0.05841,-0.94981 -0.0515,-1.23032 -0.845431,-2.15785 -1.523819,-1.78025 -1.148079,-3.66042 0.838403,-4.19532 0.997187,-0.26851 1.95569,-0.14461 1.95569,0.25282 0,0.22478 -0.344571,0.35258 -1.670047,0.61941 -0.835445,0.16819 -1.295279,0.72474 -1.295279,1.56771 0,0.48631 3.549784,3.99064 4.042407,3.99064 0.133715,0 0.418667,0.15854 0.633237,0.35229 0.214569,0.19377 1.45362,0.90008 2.753452,1.5696 5.14333,2.64922 11.45059,3.7722 12.92207,2.30073 0.70255,-0.70255 0.57532,-2.48681 -0.28161,-3.94904 -0.35398,-0.60402 -0.68472,-0.97486 -0.73498,-0.82409 -0.0503,0.15076 -0.65774,0.46224 -1.34998,0.69216 -2.33504,0.77558 -6.29855,0.11946 -9.25042,-1.53132 -1.949867,-1.09042 -3.03646,-2.00331 -4.328488,-3.63651 -1.054031,-1.33234 -1.150811,-1.6458 -0.508116,-1.6458 0.251461,0 0.64616,0.38741 0.926675,0.90956 0.772414,1.43782 4.808139,4.52687 5.914149,4.52687 0.19616,0 0.27121,-0.21884 0.20101,-0.58606 -0.0616,-0.32233 0.0743,-0.94629 0.30192,-1.38655 0.29616,-0.57271 0.32344,-0.77032 0.0959,-0.69446 -0.17494,0.0583 -0.40833,0.45439 -0.51866,0.88016 -0.11033,0.42577 -0.31005,0.84178 -0.44381,0.92444 -0.33652,0.20799 -0.30506,-0.70826 0.0512,-1.49011 0.27059,-0.59389 0.22071,-0.71353 -0.61779,-1.48169 -1.04673,-0.95893 -1.1101,-1.34706 -0.40601,-2.48631 0.40776,-0.65977 0.71547,-0.85031 1.58343,-0.98047 2.05282,-0.30784 4.5477,0.70411 5.64708,2.29051 1.03139,1.4883 0.87291,2.29733 -0.59695,3.04719 -0.62607,0.3194 -1.01536,0.71926 -1.13248,1.16324 l -0.17847,0.67656 -0.13627,-0.73832 c -0.21866,-1.18461 -0.87208,-1.07051 -1.29919,0.22686 -0.20247,0.61503 -0.31006,1.17631 -0.23908,1.24729 0.2958,0.29579 1.28224,0.10992 1.28224,-0.24161 0,-0.20387 0.11119,-0.37067 0.24711,-0.37067 0.13591,0 0.24711,0.21467 0.24711,0.47704 0,0.30611 0.19922,0.50588 0.556,0.55754 0.53934,0.0781 2.85465,-0.40909 3.09728,-0.65171 0.0661,-0.0662 0.17628,-1.67884 0.24479,-3.58378 0.12036,-3.34672 0.10462,-3.49285 -0.46587,-4.33159 -0.72502,-1.06591 -2.31325,-2.23995 -3.41718,-2.526 -1.19937,-0.31079 -4.18854,0.0425 -5.47471,0.6471 -0.61146,0.28743 -1.68699,1.07125 -2.39007,1.74184 -2.447525,2.33445 -3.356483,2.32612 -1.137067,-0.0108 2.404057,-2.53091 4.163697,-3.31308 7.380607,-3.28072 2.05379,0.0206 3.0612,0.41029 4.60488,1.78099 1.75537,1.55866 2.02586,2.48726 1.81788,6.24065 -0.166,2.99587 -0.15341,3.12017 0.32888,3.24629 0.69775,0.18246 1.77367,2.39937 1.77367,3.65456 0,1.78984 -0.68148,2.57184 -2.4711,2.83559 -0.6116,0.0901 -1.36107,0.39512 -1.66549,0.67774 -0.736,0.6833 -4.03053,0.9031 -5.06756,0.3381 z m 3.89236,-0.64875 c 0.17933,-0.29017 0.11377,-0.31141 -2.41976,-0.78383 -1.72519,-0.3217 -1.91685,-0.31945 -1.85113,0.0218 0.0404,0.20937 0.35032,0.52082 0.6889,0.69212 0.73523,0.37198 3.36359,0.42327 3.58199,0.0699 z m -5.34936,-1.04174 c 0.58703,-0.24253 0.60313,-0.28064 0.15896,-0.37629 -0.27182,-0.0585 -1.53172,-0.60666 -2.79977,-1.21807 -1.26806,-0.6114 -2.359567,-1.05763 -2.425577,-0.99162 -0.06597,0.066 0.0022,0.57416 0.151723,1.12921 0.474345,1.76157 2.630204,2.40059 4.914664,1.45677 z m -6.187734,-2.84851 c -0.0583,-0.50703 -0.423244,-0.91291 -1.437295,-1.59869 -0.747507,-0.50551 -1.454884,-0.92251 -1.571939,-0.92666 -0.291506,-0.0108 0.0556,1.77516 0.416194,2.14061 0.445345,0.45141 1.720218,1.06107 2.222375,1.06277 0.344149,0.001 0.430618,-0.15701 0.370665,-0.67803 z m 7.724704,-2.96533 c 0.0266,-0.26055 0.14879,-0.81853 0.34447,-1.57273 0.12106,-0.4666 0.0614,-0.68681 -0.21469,-0.79276 -0.28388,-0.10894 -0.44941,0.10246 -0.64288,0.82095 -0.14331,0.53223 -0.38916,1.04716 -0.54634,1.14429 -0.19124,0.11819 -0.12771,0.23852 0.19205,0.36374 0.63802,0.24984 0.84474,0.25855 0.86739,0.0365 z m 3.44115,-3.15127 c 0.41256,-0.4971 0.15007,-1.70214 -0.5158,-2.36801 -0.86698,-0.86698 -3.14975,-1.68614 -4.01072,-1.43922 -0.93558,0.26833 -1.65175,0.91674 -1.65175,1.49549 0,0.47203 1.30564,1.41321 3.07604,2.21735 1.22026,0.55427 2.68361,0.5988 3.10223,0.0944 z m -2.71872,-1.72916 c 0,-0.22652 0.11954,-0.37201 0.26564,-0.3233 0.14611,0.0487 0.26564,0.19418 0.26564,0.3233 0,0.12911 -0.11953,0.2746 -0.26564,0.3233 -0.1461,0.0487 -0.26564,-0.0968 -0.26564,-0.3233 z m -1.3418,-0.34267 c -0.0745,-0.12051 0.0301,-0.35652 0.23252,-0.52449 0.3062,-0.25411 0.36795,-0.21734 0.36795,0.21912 0,0.53014 -0.35118,0.70874 -0.60047,0.30537 z m -95.923328,9.14247 c -2.2223746,-0.5723 -4.351856,-3.13483 -5.5318062,-6.65673 -0.6624629,-1.97731 -0.7356848,-2.47525 -0.6309155,-4.29044 0.143194,-2.48115 0.692855,-4.67476 1.5052706,-6.00729 0.7801016,-1.27953 2.1850618,-2.84177 2.5556735,-2.84177 0.1594213,0 1.2994784,-0.33271 2.5334652,-0.73936 2.2362814,-0.73696 2.6842924,-0.76028 2.6842924,-0.13976 0,0.36871 0.750606,0.62361 1.851137,0.62864 1.171313,0.005 4.206233,1.63844 5.210902,2.804 1.265534,1.46817 2.100827,2.97174 2.250434,4.05084 0.276704,1.99595 0.266059,3.58019 -0.03163,4.70326 -0.365905,1.38048 -1.480471,3.65372 -1.93061,3.93758 -0.173748,0.10956 -0.615066,0.56347 -0.980701,1.00867 -0.896844,1.09202 -2.736277,2.46963 -4.048625,3.03217 -1.215924,0.5212 -4.278246,0.80857 -5.4369163,0.51019 z m 4.969309,-1.89301 c 1.087284,-0.51736 2.088087,-1.0704 2.223994,-1.22897 0.135917,-0.15857 0.599746,-0.52929 1.030753,-0.82381 1.513141,-1.03401 3.046569,-4.74798 3.046569,-7.37879 0,-3.89815 -3.936968,-7.5392 -8.772421,-8.11303 -3.1752421,-0.37681 -6.3834134,2.38366 -7.0501085,6.06625 -0.6374905,3.52127 0.4492535,8.46672 2.2250522,10.12556 1.1916212,1.11315 4.4697433,2.5871 5.1957223,2.33617 0.06791,-0.0234 1.013155,-0.46601 2.100439,-0.98338 z m -1.646845,-4.80926 c -0.226209,-0.1348 -0.949003,-0.30688 -1.606218,-0.3824 -2.5033113,-0.28766 -2.9188797,-0.44738 -3.0015161,-1.15367 -0.042214,-0.36108 0.1150475,-0.96873 0.3495477,-1.35032 0.6098515,-0.99239 4.2699324,-4.52403 4.6885674,-4.52403 0.723916,0 0.306847,0.91946 -1.076563,2.37327 -1.531593,1.60954 -2.3943528,2.78259 -2.193948,2.983 0.068234,0.0682 0.605317,0.22765 1.193521,0.35428 1.383314,0.29777 3.20787,1.21713 3.095284,1.55965 -0.118751,0.3613 -0.94368,0.44114 -1.448675,0.14022 z m 28.467905,6.36667 c -0.879861,-0.23371 -2.254051,-1.1872 -3.640226,-2.52582 -0.498485,-0.48137 -1.082932,-1.53273 -1.587583,-2.85588 -0.717471,-1.88114 -0.800572,-2.37045 -0.817317,-4.81227 -0.01717,-2.49814 0.03746,-2.8325 0.674447,-4.12963 1.317563,-2.68308 5.285441,-6.12204 7.071485,-6.12885 0.486362,-0.002 1.134497,-0.0704 1.440298,-0.15237 0.396685,-0.10634 0.555998,-0.0422 0.555998,0.22369 0,0.20499 -0.291117,0.44577 -0.646937,0.53508 -1.014332,0.25458 -0.505342,0.44981 1.319829,0.50626 2.934416,0.0908 5.534657,0.57421 6.481576,1.20511 2.437149,1.6238 4.690672,4.08345 4.702343,5.13246 0.0022,0.22231 0.170617,0.72271 0.373645,1.112 0.547534,1.04986 0.456206,2.94195 -0.230678,4.779 -0.331572,0.88679 -0.668574,1.92327 -0.7489,2.30331 -0.284466,1.34588 -3.634817,3.88227 -5.567337,4.21476 -0.339777,0.0584 -1.062571,0.22604 -1.606218,0.37241 -1.315771,0.35424 -6.696663,0.50702 -7.774425,0.22074 z m 6.785983,-1.47252 c 2.736148,-0.49161 5.097668,-1.42889 6.222372,-2.46964 0.296364,-0.27424 0.614537,-0.95909 0.707074,-1.52189 0.09253,-0.5628 0.433847,-1.59 0.758498,-2.28267 0.782531,-1.66961 0.757256,-2.9793 -0.08929,-4.628 -1.802347,-3.51016 -5.080696,-5.61434 -8.710654,-5.59086 -0.883424,0.005 -1.995421,-0.0378 -2.471105,-0.0966 -0.475694,-0.0588 -1.478247,-0.18474 -2.227902,-0.27974 l -1.363005,-0.17272 -1.427903,1.497 c -0.957812,1.00417 -1.712229,2.12094 -2.291591,3.39225 -0.812081,1.78201 -0.857221,2.01698 -0.755464,3.93259 0.09253,1.7409 0.255715,2.35208 1.121951,4.20057 0.976501,2.08379 1.193403,2.37176 2.4507,3.25349 0.694345,0.48694 3.303234,1.20274 4.493214,1.23279 0.475684,0.012 2.088088,-0.19793 3.583102,-0.46654 z m -4.44178,-5.1283 c -0.308899,-0.49981 0.541293,-1.25342 2.555706,-2.26539 l 2.091747,-1.05081 -0.983162,-0.41756 c -0.540743,-0.22965 -1.34139,-0.49624 -1.77921,-0.59239 -1.260795,-0.27692 -2.001802,-1.86167 -0.87049,-1.86167 0.205619,0 0.847903,0.27781 1.427309,0.61736 0.579394,0.33955 1.113519,0.5573 1.186935,0.48388 0.07342,-0.0734 0.593171,0.0504 1.155021,0.27526 1.089832,0.43607 1.554665,1.31013 1.095263,2.05952 -0.132905,0.21681 -1.066684,0.80286 -2.075056,1.30232 -1.008362,0.49948 -2.050603,1.08328 -2.316089,1.29733 -0.541477,0.43659 -1.266365,0.51071 -1.487974,0.15215 z m 28.630166,5.61752 c -0.392075,-0.30261 -0.856929,-0.71961 -1.032999,-0.92667 -0.421917,-0.49618 -1.286101,-2.42335 -1.286101,-2.86807 0,-1.29353 3.024846,-1.91924 3.816209,-0.7894 0.503192,0.7184 0.485832,1.248 -0.06305,1.92591 -0.32816,0.40527 -0.59221,0.50714 -0.988442,0.38139 -0.662808,-0.21036 -0.718248,-0.87963 -0.07288,-0.87963 0.525196,0 0.903182,-0.70476 0.561321,-1.04662 -0.122454,-0.12246 -0.654301,-0.18726 -1.181872,-0.14402 -0.767761,0.063 -0.974558,0.18629 -1.036,0.61792 -0.13879,0.97487 1.546912,3.53805 2.326841,3.53805 0.167357,0 0.563545,-0.417 0.880434,-0.92667 0.527182,-0.84789 0.57432,-1.18922 0.554541,-4.01554 -0.02483,-3.54239 -0.682275,-7.03375 -1.281297,-6.8039 -0.189058,0.0726 -0.418041,0.13175 -0.508851,0.13157 -0.0908,-1.8e-4 -0.127927,0.59596 -0.08249,1.32475 0.0746,1.19588 0.01717,1.37663 -0.589316,1.85367 -1.285508,1.01118 -2.469086,0.56811 -3.935694,-1.47331 -1.031628,-1.43595 -1.636686,-1.55067 -2.056433,-0.38989 -0.438834,1.21357 -0.361845,2.34762 0.2143,3.15674 0.566838,0.79606 1.235607,0.92219 1.730141,0.32632 0.417641,-0.50323 0.04167,-1.1495 -0.781916,-1.34392 -0.801414,-0.18918 -0.762093,-0.83993 0.05647,-0.93479 1.226645,-0.14214 2.280805,2.12479 1.348052,2.89891 -0.679792,0.56417 -1.954848,0.59196 -2.634424,0.0574 -2.022239,-1.59069 -0.953342,-6.54656 1.260439,-5.84393 0.265507,0.0842 0.990136,0.81262 1.610299,1.61857 1.139485,1.48085 2.11781,2.03247 2.653889,1.49639 0.343847,-0.34383 0.300553,-2.17594 -0.06176,-2.61246 -0.150017,-0.18075 -1.031585,-0.36601 -2.053938,-0.43162 -5.147062,-0.33032 -6.476328,-3.54888 -3.571409,-8.64751 1.119965,-1.96574 4.641558,-4.64607 6.104312,-4.64607 0.279079,0 0.719436,-0.1324 0.978563,-0.29422 0.674469,-0.42122 4.661813,0.1362 5.885889,0.82283 3.196543,1.79303 4.160736,3.19276 3.956034,5.743 -0.15846,1.97401 -0.566687,2.72826 -2.550113,4.71169 -1.904709,1.90471 -2.212949,2.80708 -1.338583,3.91865 0.583702,0.74205 1.39534,0.82153 1.754367,0.17181 0.112651,-0.20387 0.625906,-1.26026 1.140565,-2.34756 1.124316,-2.37527 1.490048,-2.9147 2.249431,-3.31779 0.831644,-0.44142 1.650235,-0.14439 2.242348,0.81366 0.955426,1.54592 0.470166,4.17315 -0.831137,4.49976 -1.87978,0.47179 -3.267746,-1.63753 -1.633587,-2.48259 0.906788,-0.46892 1.38286,0.009 0.555912,0.55811 -0.421809,0.28007 -0.479473,0.44864 -0.28059,0.82024 0.361402,0.6753 0.863062,0.57661 1.481108,-0.29134 0.925066,-1.29913 0.305681,-3.29533 -0.975961,-3.14542 -0.502113,0.0587 -0.83308,0.43621 -1.581797,1.80404 -0.520747,0.95138 -1.008706,2.034 -1.084358,2.40582 -0.185635,0.91239 -1.160171,1.91883 -1.856923,1.91769 -1.473497,-0.002 -2.421128,-1.22311 -2.421128,-3.11885 0,-0.5828 -0.339884,-0.78941 -0.601721,-0.36575 -0.07514,0.12163 -0.02278,0.81663 0.116472,1.54444 0.139232,0.72782 0.359751,2.06815 0.490043,2.97851 0.249766,1.74508 0.919776,3.29965 1.743377,4.045 0.4404,0.39855 0.592868,0.41148 1.411449,0.11976 1.994525,-0.71082 2.883261,-1.84502 2.299882,-2.93508 -0.38672,-0.72259 -1.746658,-0.97093 -2.167226,-0.39578 -0.50167,0.68608 -0.409911,1.34112 0.18786,1.34112 0.302032,0 0.47226,0.12767 0.411854,0.30889 -0.05657,0.16988 -0.482895,0.30889 -0.947253,0.30889 -0.787724,0 -0.849221,-0.0585 -0.917768,-0.87261 -0.09015,-1.07064 0.695986,-1.92081 1.96681,-2.12703 0.685622,-0.11127 1.006537,-0.009 1.641663,0.52597 0.64005,0.53856 0.78943,0.84715 0.78943,1.63074 0,1.1843 -0.536306,1.77527 -2.375005,2.61705 -1.779156,0.81453 -2.611286,0.63656 -3.48779,-0.74591 -0.827153,-1.30464 -1.550518,-3.18837 -1.550518,-4.03773 0,-0.36117 -0.122616,-1.36077 -0.272483,-2.22135 -0.259461,-1.48998 -0.305951,-1.56468 -0.973855,-1.56468 -0.38576,0 -0.757991,0.0915 -0.827175,0.20353 -0.0692,0.11195 0.0759,0.86255 0.322319,1.668 0.68587,2.24155 0.864811,5.97357 0.369629,7.70931 -0.833587,2.92197 -1.736488,3.61536 -3.218438,2.47161 z m 4.098343,-13.20588 c 0.743416,-0.20605 1.744219,-0.58357 2.223994,-0.83893 0.977549,-0.52031 2.478544,-1.83734 2.478544,-2.17478 0,-0.12118 0.160695,-0.3537 0.357094,-0.51669 0.488024,-0.40503 0.943518,-2.7492 0.742444,-3.82098 -0.445237,-2.37332 -4.00748,-4.50184 -7.400855,-4.42218 -2.155879,0.0506 -3.369503,0.47983 -5.223253,1.84726 -2.367792,1.74662 -2.391987,1.77834 -3.653063,4.78777 -0.275429,0.65728 -0.392301,1.49187 -0.342454,2.44547 0.06888,1.31755 0.15371,1.51066 0.943982,2.14883 0.770298,0.62203 1.14688,0.72306 3.336002,0.89496 3.007021,0.23613 4.759435,0.14211 6.537565,-0.35073 z m -4.300151,-3.56213 c -0.06759,-0.19261 -0.154639,-0.90621 -0.19343,-1.58576 -0.05506,-0.96487 0.0108,-1.23555 0.300143,-1.23555 0.274263,0 0.390401,0.34654 0.446575,1.33261 0.0732,1.2855 -0.285686,2.25121 -0.553288,1.4887 z m 2.960694,-0.0413 c -0.05269,-0.16989 -0.149867,-1.0039 -0.21592,-1.85333 -0.108559,-1.3961 -0.07493,-1.54444 0.350692,-1.54444 0.322848,0 0.471462,0.17472 0.472941,0.556 0.0011,0.3058 0.07223,1.13979 0.157975,1.85332 0.133272,1.10953 0.09609,1.29733 -0.257011,1.29733 -0.227072,0 -0.455969,-0.13899 -0.508677,-0.30888 z M 29.90478,154.38504 c -0.671769,-0.27786 -1.518615,-1.22613 -1.830752,-2.05002 -0.18827,-0.49695 -0.427186,-0.67956 -0.889104,-0.67956 -0.758605,0 -0.99086,-0.48206 -0.680633,-1.41273 0.278561,-0.83569 0.964711,-0.94175 0.852071,-0.13171 -0.05733,0.41213 0.04675,0.556 0.402192,0.556 0.599897,0 0.870943,0.35279 1.234008,1.60622 0.228994,0.79053 0.485033,1.08299 1.278825,1.46064 0.545871,0.25971 0.992501,0.56551 0.992501,0.67955 0,0.25788 -0.702518,0.24319 -1.359108,-0.0284 z m 84.7179,-3.28557 c 0.78725,-3.12368 1.21228,-3.79567 1.35115,-2.13623 0.0484,0.57739 -0.11242,1.20778 -0.45684,1.79155 -0.59166,1.00277 -1.11057,1.20277 -0.89431,0.34468 z m -1.50357,-3.08889 c 0.0175,-1.05331 -0.0171,-2.12554 -0.0768,-2.38273 -0.20007,-0.86287 0.50709,-0.71015 0.88354,0.19081 0.47742,1.14263 0.46894,2.86328 -0.0175,3.55782 -0.64919,0.92684 -0.82227,0.62732 -0.78927,-1.3659 z m -87.007304,-0.22696 c -0.899468,-0.83138 -1.354487,-2.55304 -0.67476,-2.55304 0.223261,0 0.468449,0.19461 0.544878,0.43244 0.484083,1.50644 0.673712,1.79157 1.191545,1.79157 0.816119,0 1.619314,-0.9946 1.619314,-2.00517 0,-1.42256 -0.881297,-1.85981 -2.116849,-1.05025 -0.704364,0.46152 -1.080784,0.26897 -0.692488,-0.35421 0.374466,-0.60098 1.809246,-1.03308 2.454348,-0.73916 0.630473,0.28726 1.343431,1.43385 1.343431,2.16051 0,1.17005 -1.105109,2.56606 -2.25932,2.85406 -0.509876,0.12721 -0.819131,0.01 -1.410099,-0.53675 z m 70.023251,-2.29844 c -0.398413,-0.64464 0.677459,-2.47859 1.454052,-2.47859 0.234564,0 0.159561,0.33158 -0.264472,1.16915 -0.715031,1.41236 -0.959593,1.68157 -1.18958,1.30944 z m 1.609446,-0.0693 c 0.01404,-0.54995 0.581899,-1.084 2.009532,-1.88971 1.016485,-0.57366 1.449355,-0.70789 1.583415,-0.49098 0.19263,0.31168 -0.70966,1.206 -1.21885,1.20806 -0.154832,7.5e-4 -0.636885,0.33423 -1.071218,0.74133 -0.835574,0.78318 -1.315878,0.94218 -1.302879,0.4313 z m 3.451687,-4.76172 c -4.201829,-1.97888 -4.745012,-2.40361 -5.249295,-4.10453 -1.446354,-4.87849 -1.550691,-8.37147 -0.323906,-10.8432 1.205635,-2.4291 1.736489,-3.37399 2.113654,-3.76221 0.20387,-0.20984 0.57025,-0.65773 0.814175,-0.99533 0.631693,-0.87424 3.395832,-2.20886 4.867682,-2.35028 0.82349,-0.0791 1.23725,-0.0257 1.23725,0.15967 0,0.1532 -0.12536,0.27855 -0.27858,0.27855 -0.1532,0 -1.015,0.35615 -1.9151,0.79147 -1.66507,0.80528 -3.329298,2.14563 -3.772981,3.03874 -0.135043,0.27183 -0.566763,1.05022 -0.959378,1.72977 -1.57874,2.73252 -1.600355,2.80855 -1.581483,5.55999 0.01436,2.08423 0.148409,3.01627 0.681681,4.7378 0.566288,1.8281 0.805009,2.25491 1.623978,2.90355 0.528057,0.41823 1.046538,0.76042 1.152193,0.76042 0.105697,0 0.367642,0.14761 0.58221,0.32803 0.4307,0.36214 1.80444,0.77719 3.41462,1.03163 1.69519,0.26789 4.74995,-0.62932 6.312,-1.85388 3.01419,-2.36297 4.71737,-5.69693 5.03864,-9.86313 0.23099,-2.99544 -0.62387,-5.18235 -2.98083,-7.62554 -1.38372,-1.43436 -3.57064,-2.70126 -5.02164,-2.90908 -2.38308,-0.34131 -4.98445,-0.0662 -6.15472,0.65096 -0.42377,0.25968 -0.896367,0.47216 -1.050217,0.47216 -0.510373,0 -0.289325,-0.70505 0.276267,-0.88118 0.3058,-0.0952 1.1013,-0.43453 1.76777,-0.754 1.30031,-0.6233 3.58525,-1.10667 4.60158,-0.97344 1.30891,0.17158 4.33121,1.37905 4.65722,1.86066 0.18647,0.27546 0.4788,0.50085 0.64962,0.50085 0.17083,0 1.01906,0.75459 1.88497,1.67687 1.90507,2.02911 2.67331,3.9766 2.79906,7.09555 0.11796,2.92611 -0.5461,5.16335 -2.60385,8.77243 -0.50484,0.88546 -2.8869,3.2048 -3.29648,3.20971 -0.12521,0.001 -0.40321,0.15516 -0.61778,0.34149 -0.78431,0.68104 -3.35093,1.42327 -5.32161,1.53892 -1.76444,0.10354 -2.14021,0.0448 -3.34672,-0.52342 z m -75.368732,-0.15743 c -0.475694,-0.13777 -1.040449,-0.40782 -1.255018,-0.60011 -0.214559,-0.19229 -0.530292,-0.34961 -0.701622,-0.34961 -0.17133,0 -1.05361,-0.75398 -1.960624,-1.6755 -1.334308,-1.35566 -1.737795,-1.9571 -2.113676,-3.15066 -0.255499,-0.81134 -0.692682,-2.03117 -0.971502,-2.71072 -0.390574,-0.95192 -0.505902,-1.77445 -0.502404,-3.5831 0.0043,-2.16267 0.388307,-4.20088 0.791697,-4.20088 0.0922,0 0.310777,-0.32341 0.485745,-0.71868 0.48282,-1.09076 2.223563,-2.95353 3.230391,-3.45683 2.343749,-1.1716 7.039646,-1.54653 10.186871,-0.81333 2.387464,0.55619 5.263103,2.79642 5.774059,4.4982 0.101379,0.3378 0.338556,0.85885 0.526966,1.15788 0.590181,0.93667 0.114087,7.31182 -0.653091,8.7453 -0.116397,0.21749 -0.261805,0.67218 -0.32315,1.01045 -0.283052,1.56094 -3.039433,4.19241 -5.967662,5.69723 -0.871861,0.44804 -5.177745,0.54694 -6.54698,0.15036 z m 6.556956,-1.67544 c 1.596696,-0.77639 4.025942,-2.93897 4.644064,-4.13429 0.55399,-1.07129 0.98191,-3.81329 0.996226,-6.38353 0.01425,-2.56112 -0.07989,-3.12345 -0.729023,-4.35377 -0.536339,-1.01652 -2.653015,-2.93599 -3.237657,-2.93599 -0.213544,0 -0.734972,-0.20872 -1.158746,-0.46383 -0.889265,-0.5353 -1.668017,-0.63457 -4.673981,-0.59576 -2.088443,0.027 -2.23384,0.0665 -3.706656,1.00667 -0.843132,0.53824 -1.870042,1.16914 -2.282036,1.40201 -0.758757,0.42888 -1.32782,1.21103 -2.139404,2.94055 -0.725093,1.54518 -0.606688,4.25883 0.309083,7.08415 0.812987,2.5082 1.333984,3.33419 3.400986,5.3919 1.467439,1.46085 2.071471,1.65482 5.364708,1.72279 1.459364,0.0301 1.974854,-0.0791 3.212436,-0.6809 z m -0.56673,-6.73938 c -0.146109,-0.17604 -0.4282,-1.15381 -0.626867,-2.17281 -0.397192,-2.0372 -0.798358,-3.21185 -1.096925,-3.21185 -0.245847,0 -0.691246,0.69738 -1.736003,2.71812 -1.364505,2.63916 -2.475855,3.52731 -2.191917,1.75168 0.432605,-2.70535 3.778313,-7.48019 4.799231,-6.84922 0.133466,0.0825 0.320818,0.5682 0.416345,1.07936 0.09555,0.51117 0.278356,1.05613 0.406305,1.21101 0.21606,0.26157 0.992124,4.04932 1.054571,5.14711 0.0326,0.57213 -0.642436,0.78725 -1.02474,0.3266 z m 23.086452,6.31191 c -0.09058,-0.0906 -0.164733,-0.42034 -0.164733,-0.73272 0,-0.3124 -0.337337,-0.9522 -0.749634,-1.42177 -0.838079,-0.95452 -0.600891,-1.4344 0.388544,-0.7861 0.62568,0.40997 1.349531,1.82668 1.349531,2.64129 0,0.45166 -0.492418,0.63059 -0.823708,0.2993 z m 1.215416,-2.08215 c -0.939792,-0.93928 -1.630402,-1.78611 -1.53468,-1.88183 0.5159,-0.5159 3.614077,2.26473 3.614077,3.24365 0,0.62404 -0.268229,0.44838 -2.079397,-1.36182 z m -8.732743,-0.14752 c -0.120846,-0.24605 -0.422824,-1.06747 -0.671057,-1.82539 l -0.451327,-1.37803 -1.460821,-0.32409 c -0.803444,-0.17824 -1.679548,-0.50332 -1.946902,-0.72241 -0.479743,-0.39312 -0.477832,-0.40717 0.146217,-1.07562 0.347777,-0.37251 0.965996,-0.84985 1.373823,-1.06075 0.407828,-0.21088 0.67326,-0.49385 0.589857,-0.62881 -0.08335,-0.13494 -0.249043,-0.88081 -0.368086,-1.65747 -0.119042,-0.77665 -0.28981,-1.6623 -0.379475,-1.9681 -0.121493,-0.41431 -0.06132,-0.556 0.235871,-0.556 0.385047,0 2.45071,1.33766 3.510117,2.27302 0.505741,0.44653 0.542741,0.43647 1.976884,-0.53773 0.853291,-0.57964 1.752456,-0.99303 2.160683,-0.99338 0.659829,-4.8e-4 0.6894,0.0446 0.525304,0.80253 -0.212162,0.97992 -1.06948,2.85494 -1.398277,3.05814 -0.539944,0.33371 -0.63125,-0.3536 -0.206408,-1.55368 l 0.451564,-1.27553 -1.147679,0.6755 c -1.885707,1.1099 -2.176123,1.11057 -3.483623,0.008 -0.635482,-0.53584 -1.238478,-0.97426 -1.339987,-0.97426 -0.166698,0 -0.0596,1.33822 0.237351,2.96532 0.09598,0.52613 -0.05301,0.70537 -1.004345,1.20812 -0.614386,0.32468 -1.117072,0.66248 -1.117072,0.75067 0,0.0882 0.690901,0.37854 1.535339,0.64522 1.380064,0.43583 1.586255,0.58993 2.038661,1.52356 0.276834,0.57129 0.562358,1.04388 0.6345,1.05022 0.07212,0.006 0.294777,-0.46106 0.49474,-1.03868 l 0.363572,-1.05023 1.712164,-0.0108 c 2.007556,-0.0123 2.322188,-0.35709 1.024535,-1.12272 -0.486426,-0.28701 -0.884418,-0.67763 -0.884418,-0.86808 0,-0.49985 0.256385,-0.43573 1.557839,0.38963 1.331123,0.84418 1.493934,1.50527 0.526783,2.13897 -0.546638,0.35818 -0.8061,0.37534 -1.890328,0.12507 -0.691203,-0.15955 -1.315166,-0.23165 -1.386585,-0.16023 -0.07147,0.0714 -0.312602,0.87945 -0.535949,1.79562 -0.419952,1.72258 -0.984166,2.26641 -1.423465,1.37203 z m 10.830127,-1.20595 c -0.425987,-0.48517 -1.283316,-1.1072 -1.905173,-1.38228 -1.254339,-0.55485 -1.175826,-1.11728 0.116354,-0.83348 0.953331,0.20939 3.006384,2.00178 3.006384,2.62469 0,0.69782 -0.34863,0.58073 -1.217565,-0.40893 z m 47.623184,-1.47539 c -0.0734,-0.0734 -0.61969,-0.19213 -1.21389,-0.26375 -1.24455,-0.15002 -1.75332,-0.54269 -2.62061,-2.0226 -0.74656,-1.27391 -0.65943,-2.36878 0.33304,-4.18536 0.80243,-1.46873 1.18952,-1.84405 2.46783,-2.39281 0.98386,-0.42237 1.04957,-0.42053 2.10044,0.0589 1.20723,0.55078 1.82559,1.14929 2.78405,2.69468 1.03308,1.6657 0.86389,2.35946 -1.1613,4.76178 -0.91094,1.08061 -2.27424,1.76446 -2.68956,1.34914 z m 1.15155,-1.5024 c 0.64946,-0.24923 1.86495,-2.21874 1.86495,-3.02188 0,-0.85104 -0.63685,-2.07714 -1.29111,-2.48574 -0.2472,-0.15438 -0.94167,-0.34815 -1.54324,-0.43061 -1.11707,-0.15311 -1.49964,0.0814 -2.74223,1.68072 -0.83969,1.08078 -0.86376,2.1398 -0.0703,3.09582 0.75512,0.90987 2.80074,1.5382 3.78195,1.16169 z M 4.666401,130.14961 c 0.088747,-0.95533 0.2993548,-1.96337 0.4679315,-2.24009 0.2659287,-0.43653 0.2247185,-0.56681 -0.3112849,-0.98421 -1.95474,-1.5222 -2.4711046,-2.03148 -2.4711046,-2.43719 0,-0.57992 0.6881478,-0.75148 2.3331036,-0.58171 l 1.3157055,0.13579 0.6814432,-1.20537 c 2.2491931,-3.97842 2.60361,-4.00801 3.3390247,-0.27869 l 0.328937,1.668 1.004886,0.0282 c 2.369444,0.0664 3.352434,0.41931 3.352434,1.20348 0,0.59013 -1.289017,1.5738 -2.59466,1.98004 -0.543647,0.16915 -1.076498,0.38772 -1.184118,0.48572 -0.107641,0.098 -0.019,0.69841 0.196832,1.33426 0.215876,0.63584 0.325169,1.26503 0.242867,1.39819 -0.257162,0.41609 -1.11949,0.2672 -2.358627,-0.40722 l -1.1930464,-0.64934 -1.3072626,1.14356 c -1.8404374,1.60997 -2.0418139,1.54514 -1.843061,-0.5934 z m 2.0099858,-0.73415 c 0.5688463,-0.62857 1.5069332,-0.62823 2.5388526,9.9e-4 1.1190256,0.68227 1.2850216,0.62339 0.9863366,-0.34984 -0.142331,-0.46372 -0.192783,-1.0151 -0.112133,-1.22526 0.08065,-0.21018 0.86736,-0.71909 1.748236,-1.13093 1.516607,-0.70908 2.074419,-1.13797 1.816059,-1.39633 -0.06316,-0.0632 -0.713671,-0.17572 -1.445631,-0.25019 -1.328283,-0.13512 -2.4206744,-0.51127 -2.7298,-0.93996 -0.089827,-0.12464 -0.239704,-0.73642 -0.3329534,-1.35951 -0.093282,-0.62309 -0.2231854,-1.22001 -0.2887418,-1.3265 -0.1661475,-0.26989 -1.0316386,0.87978 -1.3501464,1.79345 -0.3421089,0.98136 -0.9871354,1.32367 -2.7944059,1.483 l -1.4700956,0.1296 1.4308503,0.98326 c 1.4220403,0.9772 1.4298894,0.98938 1.2729513,1.97688 -0.086804,0.5465 -0.2202379,1.24383 -0.2964289,1.54963 -0.1776565,0.71305 0.4058839,0.74815 1.0270502,0.0618 z m 80.6832362,-3.89199 c 9.94e-4,-0.10192 0.219601,-0.51602 0.486016,-0.92018 0.481189,-0.73 0.481179,-0.74027 -0.0022,-1.55857 -0.267203,-0.45304 -0.485897,-0.96692 -0.485897,-1.14196 0,-0.48544 0.809684,-1.11278 1.654241,-1.28168 1.104979,-0.22101 1.253442,0.30682 0.209042,0.7432 -0.969473,0.40507 -1.024524,0.54274 -0.496316,1.24109 0.506464,0.66961 0.452233,1.54244 -0.148247,2.38573 -0.465394,0.65358 -1.221063,0.98413 -1.217101,0.53237 z m -73.831762,-4.55403 c 0.09274,-0.27816 3.252513,-1.45023 4.863665,-1.8041 0.595924,-0.1309 0.763939,-0.084 0.763939,0.21298 0,0.23888 -0.391373,0.48615 -1.050219,0.66354 -0.577624,0.15551 -1.717412,0.49196 -2.532883,0.74766 -1.728315,0.54195 -2.178378,0.58155 -2.044502,0.17992 z m 76.124347,-1.36458 c -0.301158,-0.0583 -0.841264,-0.45503 -1.200237,-0.88164 -0.547675,-0.65088 -0.633237,-0.94803 -0.531879,-1.84728 0.147728,-1.31065 0.700585,-1.96172 1.951922,-2.29867 1.471531,-0.39624 2.513837,-0.0865 3.393968,1.00875 0.860374,1.07063 0.92091,1.44213 0.39933,2.45077 -0.692401,1.33894 -2.184565,1.922 -4.013104,1.56807 z m 2.276659,-0.98815 c 0.987287,-0.47081 1.321417,-1.27275 0.908181,-2.17971 -0.425717,-0.93434 -1.386121,-1.43506 -2.390941,-1.24655 -1.101589,0.20665 -1.662964,1.02838 -1.559706,2.28304 0.06856,0.83288 0.180873,0.9807 0.942707,1.24049 1.132273,0.38613 1.081087,0.38849 2.099759,-0.0973 z m -79.689439,0.60544 c 0.0043,-0.44913 1.319635,-1.2285 3.619561,-2.14492 1.922988,-0.76623 2.924364,-0.90742 2.862025,-0.40354 -0.01576,0.12735 -0.757656,0.47707 -1.64867,0.77715 -0.891014,0.30009 -2.283461,0.8909 -3.094322,1.31291 -1.664379,0.86621 -1.742837,0.8869 -1.738594,0.4584 z m -1.732829,-0.68825 c 0,-0.43752 0.790412,-1.55328 1.859591,-2.62499 1.146923,-1.14965 2.608144,-1.70627 3.386162,-1.28988 0.617398,0.33042 0.479095,0.44971 -0.69577,0.60012 -1.021177,0.13075 -1.948543,0.8772 -3.212274,2.58562 -0.684714,0.92564 -1.337709,1.28156 -1.337709,0.72913 z M 112.3656,97.488769 c -0.35281,-0.352808 -0.39277,-0.939021 -0.064,-0.939021 0.1279,0 0.30126,0.111199 0.38526,0.247111 0.54215,0.877227 2.34754,-0.405239 2.34754,-1.667591 0,-0.534593 -0.0865,-0.596156 -0.67955,-0.483999 -0.37375,0.07067 -0.92975,0.207466 -1.23555,0.303979 -0.90179,0.284614 -0.68521,-0.505866 0.26171,-0.955209 0.80967,-0.384216 1.72495,-0.325151 2.33295,0.150551 0.7058,0.552223 0.10895,2.373973 -1.07004,3.266047 -0.57907,0.438148 -1.87389,0.48255 -2.2783,0.07814 z m 0.96461,-6.754721 c -1.17587,-1.339237 -1.02659,-2.013311 0.65721,-2.967551 0.0357,-0.02026 -0.10945,-0.454399 -0.32268,-0.964739 -0.41102,-0.983694 -0.4044,-2.51359 0.0108,-2.440401 0.1359,0.02397 0.39562,0.635571 0.57715,1.359109 0.18151,0.723537 0.48731,1.491077 0.67955,1.705646 0.53693,0.599315 0.4277,0.810471 -0.65441,1.265061 l -0.9989,0.419634 0.39655,0.766855 c 0.21811,0.421771 0.55755,0.828634 0.75431,0.904138 0.19676,0.0755 0.35774,0.292182 0.35774,0.481508 0,0.610565 -0.66994,0.367216 -1.45706,-0.52926 z M 3.4984133,62.524177 C 3.4115014,62.437265 3.3399746,61.967688 3.3394671,61.480673 3.3389489,60.99366 3.1062086,60.214087 2.8222389,59.748289 2.3986595,59.053466 2.3347442,58.670847 2.4663428,57.617568 2.6375107,56.247619 2.4883677,55.954014 1.1883927,55.102259 0.71436125,54.79166 0.62206191,54.575055 0.74871574,54.070443 0.96369578,53.213888 1.3280131,52.81121 1.8879847,52.81121 c 0.5588488,0 0.5992926,0.321387 0.093282,0.741331 -0.538627,0.447021 -0.4546409,0.960774 0.206278,1.261908 0.3173094,0.144579 0.7670163,0.584666 0.9993571,0.977974 0.346935,0.587328 0.3760639,0.887264 0.1629841,1.678584 -0.2167399,0.804913 -0.1787686,1.141275 0.2307645,2.043832 0.2696104,0.594195 0.4926446,1.490791 0.4956353,1.992435 0.0054,0.883915 -0.2542362,1.340549 -0.5778831,1.016903 z M 0.48075723,51.061698 C -0.20253211,50.306679 -0.14734036,48.689532 0.58181253,48.099064 1.2839958,47.53047 3.1940706,47.510908 3.7497776,48.066621 4.3108613,48.627708 3.9964346,50.31234 3.1986051,51.019659 2.3896444,51.736846 1.1096322,51.756645 0.48071404,51.0617 Z M 2.7088324,50.45001 C 3.247103,49.628506 3.132768,48.274621 2.5152294,48.157543 1.9361588,48.047758 0.86928033,49.037288 0.86928033,49.684165 c 0,0.563588 0.66937267,1.397269 1.12187587,1.397269 0.1671731,0 0.490129,-0.284139 0.7176762,-0.631424 z M 112.91954,23.615303 c 0.53289,-1.721516 0.68186,-2.692082 0.51112,-3.329984 l -0.19017,-0.71049 -0.1979,0.695352 c -0.2411,0.847121 -0.70842,1.445379 -0.99209,1.270065 -0.11532,-0.07127 -0.10267,-0.410885 0.028,-0.754699 0.13072,-0.343814 0.23767,-0.994147 0.23767,-1.445185 0,-0.77028 0.0478,-0.816303 0.78837,-0.758052 0.94959,0.0747 1.15431,0.492458 1.15234,2.351627 -0.002,1.662415 -0.47296,3.059252 -1.07126,3.175587 -0.36513,0.071 -0.41333,-0.01854 -0.26608,-0.494221 z m 2.49738,-1.572489 c -0.0858,-0.541926 -0.20168,-1.278147 -0.25738,-1.636047 -0.0557,-0.357899 -0.17429,-0.941698 -0.26356,-1.297331 -0.12383,-0.493398 -0.0696,-0.646605 0.22883,-0.646605 0.95308,0 1.54922,3.059575 0.79667,4.088751 -0.32537,0.444966 -0.35881,0.411243 -0.50456,-0.508768 z M 77.546549,18.54367 c -0.08724,-0.227361 0.02742,-0.937284 0.254862,-1.577608 0.227417,-0.640323 0.413495,-1.271431 0.413495,-1.402463 0,-0.13103 -0.453982,-0.416567 -1.008847,-0.634524 -0.731485,-0.287334 -0.985591,-0.517036 -0.924256,-0.835487 0.08184,-0.42481 0.557056,-0.648019 2.005461,-0.941894 0.379573,-0.07701 0.749095,-0.33131 0.82115,-0.565104 0.678917,-2.202766 1.532241,-2.6613797 2.229879,-1.198426 0.366422,0.768404 0.506788,0.84433 1.813392,0.980898 1.754173,0.183346 2.723656,0.537251 2.723656,0.994258 0,0.192035 -0.50546,0.861868 -1.123247,1.488518 -1.02258,1.03725 -1.108726,1.216753 -0.961245,2.002888 0.220691,1.176427 -0.042,2.102327 -0.596561,2.102327 -0.246193,0 -0.943701,-0.251143 -1.550012,-0.558095 l -1.102377,-0.558096 -0.978164,0.55403 c -1.169434,0.662367 -1.802196,0.709036 -2.017186,0.148778 z m 2.286473,-1.218666 0.843812,-0.643604 0.764878,0.643604 c 0.420686,0.353983 0.934827,0.643606 1.142541,0.643606 0.370741,0 0.37683,-0.3645 0.03919,-2.347432 -0.05938,-0.348662 0.06953,-0.516066 0.437842,-0.568724 0.287068,-0.04104 0.830402,-0.39658 1.207405,-0.79008 l 0.68545,-0.715456 -0.713185,-0.150968 c -2.350205,-0.49749 -2.983194,-0.695321 -3.384716,-1.057839 -0.387778,-0.350107 -0.478004,-0.355878 -0.675775,-0.04322 -0.125531,0.198462 -0.229944,0.493534 -0.232017,0.655716 -0.0054,0.437054 -1.011816,1.062833 -1.726771,1.073905 -0.586585,0.0091 -0.575497,0.031 0.182331,0.36033 1.065648,0.463105 1.202871,0.924759 0.576242,1.938665 -0.561224,0.908073 -0.675311,1.645103 -0.254657,1.645103 0.144986,0 0.64331,-0.289623 1.107408,-0.643606 z m 30.916558,0.211163 c -0.0645,-0.237845 -0.1853,-0.738244 -0.26848,-1.111999 -0.0982,-0.441315 -0.31116,-0.679554 -0.60741,-0.679554 -0.25091,0 -0.72139,-0.203471 -1.04551,-0.452159 -0.32414,-0.248687 -0.78393,-0.523197 -1.02178,-0.610021 -1.06925,-0.390325 -0.0427,-1.656036 1.34309,-1.656036 0.48698,0 0.50744,-0.09053 0.35555,-1.57307 -0.12647,-1.234444 -0.0823,-1.6385195 0.20519,-1.8771169 0.30205,-0.2506852 0.49783,-0.1601003 1.11548,0.5161429 0.41202,0.451105 0.74913,0.900045 0.74913,0.997646 0,0.314213 -0.45501,0.469992 -0.61528,0.210654 -0.33502,-0.542068 -0.61491,-0.205034 -0.57953,0.697852 0.046,1.173176 -0.11683,1.447372 -1.10988,1.869391 l -0.78419,0.33326 0.74133,0.277359 c 1.22748,0.459244 1.46715,0.651132 1.83615,1.470048 0.45214,1.003439 0.65296,0.987904 1.03927,-0.08039 0.31258,-0.864424 0.31358,-0.864886 1.87707,-0.864886 1.94861,0 2.22119,-0.40261 1.07397,-1.586239 -0.74337,-0.76696 -0.77783,-0.883964 -0.6172,-2.094884 l 0.17013,-1.282553 -1.18492,0.630029 c -1.23001,0.654002 -1.51332,0.660668 -1.27128,0.02992 0.14078,-0.366884 2.37416,-1.626922 2.88366,-1.626922 0.46317,0 0.66366,1.029348 0.41345,2.122766 -0.22829,0.997641 -0.19638,1.11349 0.53692,1.948672 0.91234,1.039085 0.92723,1.127993 0.31558,1.883346 -0.39316,0.485545 -0.67631,0.568132 -1.85333,0.540575 -0.76409,-0.01789 -1.38926,0.06864 -1.38926,0.192307 0,0.123659 -0.3058,0.666897 -0.67955,1.207197 -0.71883,1.039144 -1.4332,1.288619 -1.62837,0.568676 z M 9.5794595,17.1655 C 9.4439742,16.995611 9.279295,16.523013 9.2134795,16.11528 9.1477288,15.707547 9.0115956,15.181933 8.911091,14.947248 8.7757136,14.631146 8.895436,14.444441 9.3728036,14.226915 c 0.5632861,-0.256648 0.7223724,-0.220433 1.2630614,0.287517 0.650469,0.611084 0.990159,0.499679 1.146601,-0.376037 0.05107,-0.285791 0.319047,-0.527174 0.63545,-0.572358 0.607357,-0.08674 1.409505,0.984428 1.68853,2.2548 0.219482,0.999291 -0.274231,1.430981 -0.662355,0.579145 -0.349288,-0.766606 -0.952932,-0.861678 -1.131646,-0.178234 -0.0691,0.264289 -0.557079,0.650107 -1.09387,0.864888 -1.170018,0.468149 -1.322821,0.475502 -1.6391155,0.07887 z M 11.00082,16.11528 c 0,-0.205926 -0.219655,-0.370666 -0.494221,-0.370666 -0.49231,0 -0.6427703,0.263307 -0.329488,0.576591 0.300963,0.300964 0.823709,0.170279 0.823709,-0.205925 z m 28.510412,1.179012 c -0.189932,-0.130212 -0.217064,-0.621028 -0.08572,-1.549678 0.295112,-2.085772 0.612054,-2.718216 1.362217,-2.718216 1.126594,0 1.667132,0.447915 1.506955,1.248757 -0.07795,0.389931 -0.03422,0.775439 0.09717,0.856685 0.447688,0.276685 0.250371,1.335401 -0.316975,1.700795 -0.692531,0.446014 -2.192565,0.716128 -2.563749,0.461657 z m 1.497443,-0.80223 c 0.348619,-0.132546 0.633863,-0.395126 0.633863,-0.583509 0,-0.521443 -1.166844,-0.206268 -1.313568,0.354806 -0.142741,0.545824 -0.148916,0.543744 0.679705,0.228703 z m 0.242986,-2.132994 c 0.559961,-0.214878 0.483101,-0.838449 -0.103323,-0.838449 -0.329487,0 -0.49422,0.16474 -0.49422,0.49422 0,0.544169 0.03055,0.561795 0.597565,0.344229 z m -5.107342,2.354195 c -0.6848,-0.398865 -0.507662,-0.685347 0.475122,-0.768399 1.132489,-0.0957 1.341628,-0.578233 0.337639,-0.779029 -0.413031,-0.0826 -0.750983,-0.274812 -0.750983,-0.427117 0,-0.467052 1.000642,-1.71232 1.375939,-1.71232 0.45923,0 0.447613,0.228128 -0.03898,0.765837 -0.36422,0.402467 -0.337218,0.462847 0.370666,0.828913 0.533865,0.276068 0.763518,0.574521 0.763518,0.992244 0,1.056115 -1.494107,1.704908 -2.532893,1.099871 z M 4.7619285,16.175883 C 4.55456,15.8594 4.3433264,15.382694 4.2925072,15.116538 4.2197388,14.735379 3.9382954,14.605444 2.9671496,14.504659 0.82879343,14.282742 0.57876792,13.75268 2.043055,12.545599 2.7533572,11.960072 2.97339,11.595256 2.9854281,10.983167 3.0435133,8.0301297 3.0800055,7.8370741 3.5811578,7.8370741 c 0.2782799,0 0.645955,0.2919387 0.8558391,0.6795538 0.748986,1.3832009 0.74416,1.38041 1.6111195,0.9320894 1.1884687,-0.6145814 1.5902715,-0.3474661 1.4138242,0.9398927 -0.1168614,0.852628 -0.028395,1.249142 0.4535937,2.033786 1.00265,1.632139 0.7303405,2.194746 -0.9317278,1.925028 C 6.1584027,14.21348 6.1485887,14.223116 5.9193357,15.392462 5.6525972,16.75293 5.2975109,16.993284 4.7619285,16.175883 Z m 0.55534,-1.636843 c 0,-0.447254 0.7682794,-0.895402 1.8280537,-1.066339 C 7.5815983,13.40233 7.57132,13.345413 6.997788,12.655731 6.5071839,12.065773 6.4049194,11.720137 6.4969812,10.963027 6.6060151,10.066367 6.5834612,10.027288 6.1047657,10.283474 5.3160701,10.705572 4.6723067,10.607024 4.2483819,9.9992917 3.862817,9.446571 3.8602906,9.4483913 3.8191128,10.308181 c -0.022781,0.475687 -0.018354,1.078699 0.00972,1.340025 0.030986,0.287227 -0.3242623,0.79342 -0.8982046,1.279913 l -0.949434,0.804774 1.0388615,0.170739 c 0.5713727,0.09391 1.2280055,0.379745 1.4591803,0.635195 0.5350101,0.59117 0.8379493,0.591246 0.8379493,2.13e-4 z m 9.6236725,0.354905 c -0.276402,-1.713389 -0.349462,-1.867547 -0.885141,-1.867547 -0.662355,0 -0.781624,-0.365462 -0.192999,-0.591339 0.525671,-0.20172 2.203891,-0.191077 2.410245,0.01529 0.09091,0.09091 -0.01749,0.367198 -0.240795,0.613986 -0.377154,0.416754 -0.394774,1.643286 -0.04545,3.167429 0.04394,0.191614 -0.10559,0.389192 -0.332349,0.439062 -0.337434,0.07423 -0.46683,-0.248018 -0.713454,-1.776876 z m 18.37709,1.159558 c -0.225236,-0.70144 -0.06877,-3.117969 0.220616,-3.407354 0.08994,-0.0899 0.288731,-0.08605 0.441836,0.0085 0.185744,0.114799 0.222851,0.61634 0.111518,1.507409 -0.09998,0.800166 -0.07223,1.335369 0.0692,1.335369 0.200621,0 0.433825,-0.588947 0.962174,-2.429878 0.05204,-0.181191 0.233496,-0.280276 0.403304,-0.220189 0.452999,0.160285 0.287003,1.728895 -0.305952,2.891175 -0.631865,1.238549 -1.556953,1.391649 -1.90269,0.314891 z M 82.415784,8.2460393 c 0,-0.1828021 0.222872,-0.53406 0.495268,-0.7805745 0.579621,-0.5245537 1.006051,-1.9438616 1.067418,-3.5527593 0.03163,-0.830488 0.144501,-1.1413994 0.414198,-1.1413994 0.620831,0 0.456012,2.9610758 -0.237621,4.2691197 -0.670258,1.2639557 -1.739263,2.0049632 -1.739263,1.2056135 z M 81.180232,7.7514848 c 0,-0.1829857 0.182893,-0.6993178 0.406434,-1.1474063 C 82.136975,5.500961 82.192512,3.7576395 81.722378,2.3444746 81.508629,1.7019847 81.413058,1.097005 81.509989,1.0000752 82.136306,0.37375965 83.256443,3.712182 82.919722,5.2016024 82.636853,6.4528041 82.136489,7.6695026 81.812043,7.8950676 81.413264,8.1723035 81.180232,8.1193456 81.180232,7.7514848 Z M 79.836434,7.6147309 C 79.758159,7.4880079 79.814841,7.0691952 79.962569,6.6840352 80.364027,5.6370981 80.040736,4.2652733 79.076154,2.9226339 78.11696,1.587505 78.057936,1.4121976 78.567585,1.4121976 c 0.573996,0 1.788031,1.6800691 2.230461,3.0866908 0.366034,1.1636976 0.37167,1.4023385 0.05128,2.1691453 -0.39186,0.937844 -0.788977,1.3090085 -1.012896,0.9466972 z M 6.799942,7.3341588 c 0,-0.6724335 1.8493553,-2.9566336 2.3937799,-2.9566336 0.4791706,0 0.3987906,0.2836929 -0.315096,1.1119979 C 8.5272212,5.8972557 8.058588,6.5366543 7.8372056,6.9104088 7.4426041,7.5766311 6.799942,7.8391773 6.799942,7.3341588 Z M 3.8431998,6.7354212 C 3.2274966,5.9935547 4.1057384,2.1397301 4.965691,1.8097331 5.4016972,1.6424215 5.4002396,1.7388573 4.9438821,3.2430233 4.74148,3.9102002 4.5758831,4.9878353 4.5758831,5.6377682 c 0,1.2721332 -0.262096,1.6647525 -0.7327373,1.097653 z M 5.1682011,6.0495654 C 5.2560847,5.6100792 5.6313928,4.8038808 6.0021989,4.2580134 6.3729941,3.712146 6.7535062,3.078197 6.8477705,2.8492379 6.942024,2.6202785 7.2478459,2.3105669 7.527335,2.1609892 7.9563882,1.9313657 8.0354942,1.9613562 8.0354942,2.3536469 c 0,0.255539 -0.2071957,0.6521242 -0.4604386,0.8813005 -0.2532321,0.2291761 -0.7661417,1.1360091 -1.139798,2.015184 -0.4090905,0.9625602 -0.8280597,1.5984998 -1.0531237,1.5984998 -0.2894868,0 -0.3377148,-0.1801526 -0.2139328,-0.7990658 z"
     id="path22"
     inkscape:connector-curvature="0" />
</svg>
