<?xml version="1.0" encoding="UTF-8" standalone="no"?>
<svg
   xmlns:dc="http://purl.org/dc/elements/1.1/"
   xmlns:cc="http://creativecommons.org/ns#"
   xmlns:rdf="http://www.w3.org/1999/02/22-rdf-syntax-ns#"
   xmlns:svg="http://www.w3.org/2000/svg"
   xmlns="http://www.w3.org/2000/svg"
   xmlns:sodipodi="http://sodipodi.sourceforge.net/DTD/sodipodi-0.dtd"
   xmlns:inkscape="http://www.inkscape.org/namespaces/inkscape"
   width="9.9999065mm"
   height="9.9999056mm"
   viewBox="0 0 35.43274 35.432737"
   id="svg2"
   version="1.1"
   sodipodi:docname="hole.svg"
   inkscape:version="0.92.5 (2060ec1f9f, 2020-04-08)">
  <metadata
     id="metadata7">
    <rdf:RDF>
      <cc:Work
         rdf:about="">
        <dc:format>image/svg+xml</dc:format>
        <dc:type
           rdf:resource="http://purl.org/dc/dcmitype/StillImage" />
        <dc:title></dc:title>
      </cc:Work>
    </rdf:RDF>
  </metadata>
  <sodipodi:namedview
     pagecolor="#ffffff"
     bordercolor="#666666"
     borderopacity="1"
     objecttolerance="10"
     gridtolerance="10"
     guidetolerance="10"
     inkscape:pageopacity="0"
     inkscape:pageshadow="2"
     inkscape:window-width="640"
     inkscape:window-height="480"
     id="namedview6"
     showgrid="false"
     inkscape:zoom="27.437548"
     inkscape:cx="19.55192"
     inkscape:cy="18.608538"
     inkscape:current-layer="svg2"
     fit-margin-top="0"
     fit-margin-left="0"
     fit-margin-right="0"
     fit-margin-bottom="0" />
  <defs
     id="defs4" />
  <g
     id="g9"
     style="fill:#000000;stroke:none;stroke-width:0.88582677;stroke-miterlimit:4;stroke-dasharray:none;stroke-opacity:1">
    <path
       style="fill:#000000;fill-opacity:1;stroke:none;stroke-width:0.88582677;stroke-linecap:butt;stroke-linejoin:round;stroke-miterlimit:4;stroke-dasharray:none;stroke-opacity:1;paint-order:markers stroke fill"
       d="M 17.717286,1.5916108e-8 A 17.716535,17.716535 0 0 0 1.5875671e-8,17.715454 17.716535,17.716535 0 0 0 17.717286,35.432739 17.716535,17.716535 0 0 0 35.43274,17.715454 17.716535,17.716535 0 0 0 17.717286,1.5916108e-8 Z M 10.631104,1.7706291 A 1.7716535,1.7716535 0 0 1 12.401734,3.543091 1.7716535,1.7716535 0 0 1 10.631104,5.3155511 1.7716535,1.7716535 0 0 1 8.858643,3.543091 1.7716535,1.7716535 0 0 1 10.631104,1.7706291 Z m 7.086182,0 A 1.7716535,1.7716535 0 0 1 19.487915,3.543091 1.7716535,1.7716535 0 0 1 17.717286,5.3155511 1.7716535,1.7716535 0 0 1 15.944825,3.543091 1.7716535,1.7716535 0 0 1 17.717286,1.7706291 Z m 7.086181,0 A 1.7716535,1.7716535 0 0 1 26.575928,3.543091 1.7716535,1.7716535 0 0 1 24.803467,5.3155511 1.7716535,1.7716535 0 0 1 23.031006,3.543091 1.7716535,1.7716535 0 0 1 24.803467,1.7706291 Z M 7.086182,5.3155511 a 1.7716535,1.7716535 0 0 1 1.772461,1.77063 1.7716535,1.7716535 0 0 1 -1.772461,1.772461 1.7716535,1.7716535 0 0 1 -1.77063,-1.772461 1.7716535,1.7716535 0 0 1 1.77063,-1.77063 z m 7.088013,0 a 1.7716535,1.7716535 0 0 1 1.77063,1.77063 1.7716535,1.7716535 0 0 1 -1.77063,1.772461 1.7716535,1.7716535 0 0 1 -1.772461,-1.772461 1.7716535,1.7716535 0 0 1 1.772461,-1.77063 z m 7.086182,0 a 1.7716535,1.7716535 0 0 1 1.770629,1.77063 1.7716535,1.7716535 0 0 1 -1.770629,1.772461 1.7716535,1.7716535 0 0 1 -1.772462,-1.772461 1.7716535,1.7716535 0 0 1 1.772462,-1.77063 z m 7.086181,0 a 1.7716535,1.7716535 0 0 1 1.772461,1.77063 1.7716535,1.7716535 0 0 1 -1.772461,1.772461 1.7716535,1.7716535 0 0 1 -1.77063,-1.772461 1.7716535,1.7716535 0 0 1 1.77063,-1.77063 z M 3.543091,8.8586421 a 1.7716535,1.7716535 0 0 1 1.772461,1.7706299 1.7716535,1.7716535 0 0 1 -1.772461,1.772461 1.7716535,1.7716535 0 0 1 -1.77063,-1.772461 1.7716535,1.7716535 0 0 1 1.77063,-1.7706299 z m 7.088013,0 a 1.7716535,1.7716535 0 0 1 1.77063,1.7706299 1.7716535,1.7716535 0 0 1 -1.77063,1.772461 1.7716535,1.7716535 0 0 1 -1.772461,-1.772461 1.7716535,1.7716535 0 0 1 1.772461,-1.7706299 z m 7.086182,0 a 1.7716535,1.7716535 0 0 1 1.770629,1.7706299 1.7716535,1.7716535 0 0 1 -1.770629,1.772461 1.7716535,1.7716535 0 0 1 -1.772461,-1.772461 1.7716535,1.7716535 0 0 1 1.772461,-1.7706299 z m 7.086181,0 a 1.7716535,1.7716535 0 0 1 1.772461,1.7706299 1.7716535,1.7716535 0 0 1 -1.772461,1.772461 1.7716535,1.7716535 0 0 1 -1.772461,-1.772461 1.7716535,1.7716535 0 0 1 1.772461,-1.7706299 z m 7.086182,0 a 1.7716535,1.7716535 0 0 1 1.772461,1.7706299 1.7716535,1.7716535 0 0 1 -1.772461,1.772461 1.7716535,1.7716535 0 0 1 -1.77063,-1.772461 1.7716535,1.7716535 0 0 1 1.77063,-1.7706299 z M 7.086182,12.401733 a 1.7716535,1.7716535 0 0 1 1.772461,1.77063 1.7716535,1.7716535 0 0 1 -1.772461,1.772461 1.7716535,1.7716535 0 0 1 -1.77063,-1.772461 1.7716535,1.7716535 0 0 1 1.77063,-1.77063 z m 7.088013,0 a 1.7716535,1.7716535 0 0 1 1.77063,1.77063 1.7716535,1.7716535 0 0 1 -1.77063,1.772461 1.7716535,1.7716535 0 0 1 -1.772461,-1.772461 1.7716535,1.7716535 0 0 1 1.772461,-1.77063 z m 7.086182,0 a 1.7716535,1.7716535 0 0 1 1.770629,1.77063 1.7716535,1.7716535 0 0 1 -1.770629,1.772461 1.7716535,1.7716535 0 0 1 -1.772462,-1.772461 1.7716535,1.7716535 0 0 1 1.772462,-1.77063 z m 7.086181,0 a 1.7716535,1.7716535 0 0 1 1.772461,1.77063 1.7716535,1.7716535 0 0 1 -1.772461,1.772461 1.7716535,1.7716535 0 0 1 -1.77063,-1.772461 1.7716535,1.7716535 0 0 1 1.77063,-1.77063 z M 3.543091,15.944824 a 1.7716535,1.7716535 0 0 1 1.772461,1.77063 1.7716535,1.7716535 0 0 1 -1.772461,1.772461 1.7716535,1.7716535 0 0 1 -1.77063,-1.772461 1.7716535,1.7716535 0 0 1 1.77063,-1.77063 z m 7.088013,0 a 1.7716535,1.7716535 0 0 1 1.77063,1.77063 1.7716535,1.7716535 0 0 1 -1.77063,1.772461 1.7716535,1.7716535 0 0 1 -1.772461,-1.772461 1.7716535,1.7716535 0 0 1 1.772461,-1.77063 z m 7.086182,0 a 1.7716535,1.7716535 0 0 1 1.770629,1.77063 1.7716535,1.7716535 0 0 1 -1.770629,1.772461 1.7716535,1.7716535 0 0 1 -1.772461,-1.772461 1.7716535,1.7716535 0 0 1 1.772461,-1.77063 z m 7.086181,0 a 1.7716535,1.7716535 0 0 1 1.772461,1.77063 1.7716535,1.7716535 0 0 1 -1.772461,1.772461 1.7716535,1.7716535 0 0 1 -1.772461,-1.772461 1.7716535,1.7716535 0 0 1 1.772461,-1.77063 z m 7.086182,0 a 1.7716535,1.7716535 0 0 1 1.772461,1.77063 1.7716535,1.7716535 0 0 1 -1.772461,1.772461 1.7716535,1.7716535 0 0 1 -1.77063,-1.772461 1.7716535,1.7716535 0 0 1 1.77063,-1.77063 z M 7.086182,19.487915 a 1.7716535,1.7716535 0 0 1 1.772461,1.772461 1.7716535,1.7716535 0 0 1 -1.772461,1.77063 1.7716535,1.7716535 0 0 1 -1.77063,-1.77063 1.7716535,1.7716535 0 0 1 1.77063,-1.772461 z m 7.088013,0 a 1.7716535,1.7716535 0 0 1 1.77063,1.772461 1.7716535,1.7716535 0 0 1 -1.77063,1.77063 1.7716535,1.7716535 0 0 1 -1.772461,-1.77063 1.7716535,1.7716535 0 0 1 1.772461,-1.772461 z m 7.086182,0 a 1.7716535,1.7716535 0 0 1 1.770629,1.772461 1.7716535,1.7716535 0 0 1 -1.770629,1.77063 1.7716535,1.7716535 0 0 1 -1.772462,-1.77063 1.7716535,1.7716535 0 0 1 1.772462,-1.772461 z m 7.086181,0 a 1.7716535,1.7716535 0 0 1 1.772461,1.772461 1.7716535,1.7716535 0 0 1 -1.772461,1.77063 1.7716535,1.7716535 0 0 1 -1.77063,-1.77063 1.7716535,1.7716535 0 0 1 1.77063,-1.772461 z M 3.543091,23.031006 a 1.7716535,1.7716535 0 0 1 1.772461,1.772461 1.7716535,1.7716535 0 0 1 -1.772461,1.77063 1.7716535,1.7716535 0 0 1 -1.77063,-1.77063 1.7716535,1.7716535 0 0 1 1.77063,-1.772461 z m 7.088013,0 a 1.7716535,1.7716535 0 0 1 1.77063,1.772461 1.7716535,1.7716535 0 0 1 -1.77063,1.77063 1.7716535,1.7716535 0 0 1 -1.772461,-1.77063 1.7716535,1.7716535 0 0 1 1.772461,-1.772461 z m 7.086182,0 a 1.7716535,1.7716535 0 0 1 1.770629,1.772461 1.7716535,1.7716535 0 0 1 -1.770629,1.77063 1.7716535,1.7716535 0 0 1 -1.772461,-1.77063 1.7716535,1.7716535 0 0 1 1.772461,-1.772461 z m 7.086181,0 a 1.7716535,1.7716535 0 0 1 1.772461,1.772461 1.7716535,1.7716535 0 0 1 -1.772461,1.77063 1.7716535,1.7716535 0 0 1 -1.772461,-1.77063 1.7716535,1.7716535 0 0 1 1.772461,-1.772461 z m 7.086182,0 a 1.7716535,1.7716535 0 0 1 1.772461,1.772461 1.7716535,1.7716535 0 0 1 -1.772461,1.77063 1.7716535,1.7716535 0 0 1 -1.77063,-1.77063 1.7716535,1.7716535 0 0 1 1.77063,-1.772461 z M 7.086182,26.574097 a 1.7716535,1.7716535 0 0 1 1.772461,1.772461 1.7716535,1.7716535 0 0 1 -1.772461,1.77063 1.7716535,1.7716535 0 0 1 -1.77063,-1.77063 1.7716535,1.7716535 0 0 1 1.77063,-1.772461 z m 7.088013,0 a 1.7716535,1.7716535 0 0 1 1.77063,1.772461 1.7716535,1.7716535 0 0 1 -1.77063,1.77063 1.7716535,1.7716535 0 0 1 -1.772461,-1.77063 1.7716535,1.7716535 0 0 1 1.772461,-1.772461 z m 7.086182,0 a 1.7716535,1.7716535 0 0 1 1.770629,1.772461 1.7716535,1.7716535 0 0 1 -1.770629,1.77063 1.7716535,1.7716535 0 0 1 -1.772462,-1.77063 1.7716535,1.7716535 0 0 1 1.772462,-1.772461 z m 7.086181,0 a 1.7716535,1.7716535 0 0 1 1.772461,1.772461 1.7716535,1.7716535 0 0 1 -1.772461,1.77063 1.7716535,1.7716535 0 0 1 -1.77063,-1.77063 1.7716535,1.7716535 0 0 1 1.77063,-1.772461 z m -17.715454,3.543091 a 1.7716535,1.7716535 0 0 1 1.77063,1.772461 1.7716535,1.7716535 0 0 1 -1.77063,1.772461 1.7716535,1.7716535 0 0 1 -1.772461,-1.772461 1.7716535,1.7716535 0 0 1 1.772461,-1.772461 z m 7.086182,0 a 1.7716535,1.7716535 0 0 1 1.770629,1.772461 1.7716535,1.7716535 0 0 1 -1.770629,1.772461 1.7716535,1.7716535 0 0 1 -1.772461,-1.772461 1.7716535,1.7716535 0 0 1 1.772461,-1.772461 z m 7.086181,0 a 1.7716535,1.7716535 0 0 1 1.772461,1.772461 1.7716535,1.7716535 0 0 1 -1.772461,1.772461 1.7716535,1.7716535 0 0 1 -1.772461,-1.772461 1.7716535,1.7716535 0 0 1 1.772461,-1.772461 z"
       id="path9"
       inkscape:connector-curvature="0" />
  </g>
</svg>
