<?xml version="1.0" encoding="UTF-8" standalone="no"?>
<svg
   version="1.2"
   x="0in"
   y="0in"
   width="1.6411139in"
   height="2.6648362in"
   viewBox="0 0 118.16041 191.86799"
   id="svg3579"
   sodipodi:docname="pewpew-lcd.svg"
   inkscape:version="1.1.2 (0a00cf5339, 2022-02-04)"
   xmlns:inkscape="http://www.inkscape.org/namespaces/inkscape"
   xmlns:sodipodi="http://sodipodi.sourceforge.net/DTD/sodipodi-0.dtd"
   xmlns="http://www.w3.org/2000/svg"
   xmlns:svg="http://www.w3.org/2000/svg"
   xmlns:rdf="http://www.w3.org/1999/02/22-rdf-syntax-ns#"
   xmlns:cc="http://creativecommons.org/ns#"
   xmlns:dc="http://purl.org/dc/elements/1.1/">
  <sodipodi:namedview
     pagecolor="#ffffff"
     bordercolor="#666666"
     borderopacity="1"
     objecttolerance="10"
     gridtolerance="10"
     guidetolerance="10"
     inkscape:pageopacity="0"
     inkscape:pageshadow="2"
     inkscape:window-width="640"
     inkscape:window-height="480"
     id="namedview7"
     showgrid="false"
     inkscape:zoom="2.7146223"
     inkscape:cx="80.858394"
     inkscape:cy="162.82191"
     inkscape:current-layer="svg3579"
     inkscape:snap-object-midpoints="true"
     showguides="true"
     inkscape:guide-bbox="true"
     inkscape:object-paths="true"
     inkscape:snap-intersection-paths="true"
     inkscape:snap-smooth-nodes="true"
     inkscape:snap-bbox="true"
     inkscape:bbox-nodes="true"
     fit-margin-top="0"
     fit-margin-left="0"
     fit-margin-right="0"
     fit-margin-bottom="0"
     inkscape:pagecheckerboard="0"
     inkscape:document-units="in" />
  <metadata
     id="metadata7">
    <rdf:RDF>
      <cc:Work
         rdf:about="">
        <dc:format>image/svg+xml</dc:format>
        <dc:type
           rdf:resource="http://purl.org/dc/dcmitype/StillImage" />
      </cc:Work>
    </rdf:RDF>
  </metadata>
  <defs
     id="defs3583">
    <defs
       id="defs1573" />
    <defs
       id="defs1587" />
    <defs
       id="defs1601" />
    <defs
       id="defs1615" />
    <defs
       id="defs1629" />
    <defs
       id="defs4" />
    <defs
       id="defs2023" />
    <defs
       id="defs1537" />
    <defs
       id="defs2" />
  </defs>
  <path
     id="boardoutline"
     style="fill:none;fill-opacity:1;stroke:#000000;stroke-width:1.44;stroke-linecap:round;stroke-linejoin:round;stroke-miterlimit:4;stroke-dasharray:none;stroke-dashoffset:0;stroke-opacity:1;paint-order:markers stroke fill"
     d="m 9.0564407,0.71972196 c -4.9360286,0 -8.33643942,3.91192084 -8.33643942,8.33643944 V 182.81036 c 0,4.61907 3.71910312,8.3379 8.33790492,8.3379 H 109.10251 c 4.61904,0 8.33789,-3.71883 8.33789,-8.3379 V 9.0561614 c 0,-4.9576486 -3.67915,-8.33643944 -8.33643,-8.33643944 h -1.18653 c -0.7852,0 -1.4165,0.63277124 -1.4165,1.41797114 v 7.0854613 c 0,0.7851996 -0.63132,1.4179706 -1.41651,1.4179706 h -1.98487 c -0.7852,0 -1.4165,-0.632771 -1.4165,-1.4179706 V 2.1376931 c 0,-0.7851999 -0.63278,-1.41797114 -1.41798,-1.41797114 h -7.369633 c -0.785198,0 -1.417967,0.63277124 -1.417967,1.41797114 v 7.1001096 c 0,0.7782393 -0.636338,1.4033223 -1.416512,1.4033223 h -1.983401 c -0.806229,0 -1.417967,-0.6872706 -1.417967,-1.4179706 V 2.1376931 c 0,-0.7851999 -0.631306,-1.41797114 -1.416505,-1.41797114 H 34.581386 V 1.891599 c 0,1.5703964 -1.26408,2.8344774 -2.834477,2.8344774 H 20.407534 c -1.570397,0 -2.834477,-1.264081 -2.834477,-2.8344774 V 0.71972196 Z M 47.225938,6.3652393 h 23.710001 c 2.598533,-1.601e-4 4.703786,2.1065564 4.703621,4.7050857 1.65e-4,2.598531 -2.105088,4.705246 -4.703621,4.705086 H 47.225938 c -2.598532,1.6e-4 -4.705247,-2.106555 -4.705086,-4.705086 -1.59e-4,-2.5985293 2.106554,-4.7052458 4.705086,-4.7050857 z M 19.956362,184.73077 a 1.8425242,1.8425242 0 0 1 1.842776,1.84278 1.8425242,1.8425242 0 0 1 -1.842776,1.84131 1.8425242,1.8425242 0 0 1 -1.841312,-1.84131 1.8425242,1.8425242 0 0 1 1.841312,-1.84278 z m 14.400902,0 a 1.8425242,1.8425242 0 0 1 1.842777,1.84278 1.8425242,1.8425242 0 0 1 -1.842777,1.84131 1.8425242,1.8425242 0 0 1 -1.842776,-1.84131 1.8425242,1.8425242 0 0 1 1.842776,-1.84278 z m 14.399438,0 a 1.8425242,1.8425242 0 0 1 1.842777,1.84278 1.8425242,1.8425242 0 0 1 -1.842777,1.84131 1.8425242,1.8425242 0 0 1 -1.842776,-1.84131 1.8425242,1.8425242 0 0 1 1.842776,-1.84278 z m 14.400903,0 a 1.8425242,1.8425242 0 0 1 1.841312,1.84278 1.8425242,1.8425242 0 0 1 -1.841312,1.84131 1.8425242,1.8425242 0 0 1 -1.842776,-1.84131 1.8425242,1.8425242 0 0 1 1.842776,-1.84278 z m 14.399439,0 a 1.8425242,1.8425242 0 0 1 1.842776,1.84278 1.8425242,1.8425242 0 0 1 -1.842776,1.84131 1.8425242,1.8425242 0 0 1 -1.842777,-1.84131 1.8425242,1.8425242 0 0 1 1.842777,-1.84278 z m 14.399439,0 a 1.8425242,1.8425242 0 0 1 1.842776,1.84278 1.8425242,1.8425242 0 0 1 -1.842776,1.84131 1.8425242,1.8425242 0 0 1 -1.841313,-1.84131 1.8425242,1.8425242 0 0 1 1.841313,-1.84278 z m -64.798938,0.71924 a 1.8425242,1.8425242 0 0 1 1.841312,1.84278 1.8425242,1.8425242 0 0 1 -1.841312,1.84277 1.8425242,1.8425242 0 0 1 -1.842776,-1.84277 1.8425242,1.8425242 0 0 1 1.842776,-1.84278 z m 14.399439,0 a 1.8425242,1.8425242 0 0 1 1.842776,1.84278 1.8425242,1.8425242 0 0 1 -1.842776,1.84277 1.8425242,1.8425242 0 0 1 -1.842777,-1.84277 1.8425242,1.8425242 0 0 1 1.842777,-1.84278 z m 14.399438,0 a 1.8425242,1.8425242 0 0 1 1.842776,1.84278 1.8425242,1.8425242 0 0 1 -1.842776,1.84277 1.8425242,1.8425242 0 0 1 -1.841312,-1.84277 1.8425242,1.8425242 0 0 1 1.841312,-1.84278 z m 14.400902,0 a 1.8425242,1.8425242 0 0 1 1.842777,1.84278 1.8425242,1.8425242 0 0 1 -1.842777,1.84277 1.8425242,1.8425242 0 0 1 -1.842776,-1.84277 1.8425242,1.8425242 0 0 1 1.842776,-1.84278 z m 14.39944,0 a 1.8425242,1.8425242 0 0 1 1.842775,1.84278 1.8425242,1.8425242 0 0 1 -1.842775,1.84277 1.8425242,1.8425242 0 0 1 -1.842776,-1.84277 1.8425242,1.8425242 0 0 1 1.842776,-1.84278 z m 14.400901,0 a 1.8425242,1.8425242 0 0 1 1.841305,1.84278 1.8425242,1.8425242 0 0 1 -1.841305,1.84277 1.8425242,1.8425242 0 0 1 -1.842775,-1.84277 1.8425242,1.8425242 0 0 1 1.842775,-1.84278 z" />
  <path
     style="fill:#000000;stroke-width:0.750752;stroke-miterlimit:4;stroke-dasharray:none"
     d="m 46.385664,183.27187 c -0.45596,-0.18398 -0.376033,-0.68743 0.190525,-1.20017 0.66633,-0.60301 1.971693,-2.59115 1.971693,-3.00298 0,-0.68121 -1.007337,-0.32452 -1.515411,0.53659 -0.604366,1.02433 -0.955697,1.10818 -0.955697,0.22809 0,-0.37247 0.29602,-0.93279 0.713154,-1.34994 0.639478,-0.63946 0.798878,-0.68857 1.542812,-0.47521 0.456314,0.13087 0.845227,0.23795 0.864251,0.23795 0.019,0 0.09825,0.24363 0.176166,0.5414 0.172669,0.66028 -0.394159,1.91779 -1.209857,2.68411 -0.816628,0.76718 -0.760907,0.97537 0.261027,0.97537 1.144031,0 1.099506,0.34571 -0.09047,0.70222 -1.004314,0.3009 -1.438561,0.32823 -1.948221,0.12257 z"
     id="path18245" />
  <path
     style="fill:#000000;stroke-width:0.750752;stroke-miterlimit:4;stroke-dasharray:none"
     d="m 17.474292,181.56835 c 0.144921,-1.80545 0.259019,-2.04343 0.774531,-1.61559 0.467932,0.38834 0.668455,0.0208 0.444849,-0.8153 l -0.179881,-0.67261 -1.068153,0.77376 c -0.587472,0.42557 -1.13642,0.70548 -1.219888,0.62201 -0.279231,-0.27923 0.651764,-1.48742 1.373608,-1.7826 1.510617,-0.61772 2.434734,0.64732 1.800957,2.46535 -0.241291,0.69218 -0.209074,0.82696 0.287101,1.20122 0.723734,0.54592 0.383039,0.88159 -0.540841,0.53286 -0.797323,-0.30095 -0.993333,-0.21059 -0.993333,0.45794 0,0.25479 -0.176999,0.45303 -0.404492,0.45303 -0.346687,0 -0.385911,-0.23157 -0.274458,-1.62007 z"
     id="path18243" />
  <path
     style="fill:#000000;stroke-width:0.750752;stroke-miterlimit:4;stroke-dasharray:none"
     d="m 52.810542,182.77765 c -0.169883,-0.0685 -0.308889,-0.27414 -0.308889,-0.45687 0,-0.25103 0.317019,-0.30334 1.297332,-0.21403 1.485471,0.13531 1.809022,-0.0159 2.044763,-0.95506 0.162833,-0.64882 0.136004,-0.67064 -0.756598,-0.6153 -1.163357,0.0721 -1.323383,-0.30941 -0.359794,-0.85782 0.904209,-0.51461 0.946563,-0.87946 0.114173,-0.98352 -0.84676,-0.10591 -0.852493,-0.51872 -0.01134,-0.81454 0.5819,-0.20465 0.757462,-0.15696 1.133958,0.30798 0.244994,0.30257 0.390478,0.76038 0.32327,1.01736 -0.06715,0.25697 -0.0011,0.54195 0.146455,0.63327 0.512337,0.31663 0.304245,1.85349 -0.33791,2.49563 -0.483403,0.48342 -0.847117,0.60259 -1.791553,0.58705 -0.651753,-0.0108 -1.324009,-0.0756 -1.493892,-0.14415 z"
     id="path18241" />
  <path
     style="fill:#000000;stroke-width:0.750752;stroke-miterlimit:4;stroke-dasharray:none"
     d="m 68.24978,182.67151 c -0.604961,-0.35219 -0.282761,-0.7538 0.455991,-0.56838 0.862836,0.21656 1.340755,-0.29096 1.340755,-1.42381 0,-1.1434 -0.429853,-1.41301 -1.32144,-0.82883 -0.58244,0.38163 -0.634878,0.37855 -0.864683,-0.0508 -0.134708,-0.25172 -0.164906,-0.84219 -0.06715,-1.31416 l 0.17743,-0.85705 1.841065,0.0862 c 1.874601,0.0878 2.398458,0.27666 2.101144,0.75771 -0.152922,0.24744 -1.191602,0.20177 -2.792973,-0.12283 -0.387671,-0.0786 -0.556,0.004 -0.556,0.27387 0,0.30537 0.175498,0.35365 0.835478,0.22984 0.693353,-0.13008 0.903539,-0.0596 1.235554,0.41444 1.292581,1.84542 -0.548614,4.47303 -2.385113,3.40385 z"
     id="path18239" />
  <path
     style="fill:#000000;stroke-width:0.750752;stroke-miterlimit:4;stroke-dasharray:none"
     d="m 40.393228,181.69184 c 0,-0.67645 -0.140732,-1.14648 -0.400011,-1.33607 -0.303609,-0.22201 -0.339799,-0.40723 -0.150148,-0.76858 0.13743,-0.26184 0.370646,-0.78187 0.518266,-1.15563 0.147621,-0.37375 0.437584,-0.67955 0.644369,-0.67955 0.304235,0 0.37126,0.34178 0.351329,1.79155 -0.02796,2.03243 -0.223304,2.94501 -0.66174,3.09115 -0.206224,0.0688 -0.302065,-0.23041 -0.302065,-0.94287 z"
     id="path18237" />
  <path
     style="fill:#000000;stroke-width:0.750752;stroke-miterlimit:4;stroke-dasharray:none"
     d="m 62.880315,181.95906 c 0,-0.69282 -0.04481,-0.72618 -0.778418,-0.57947 -1.486541,0.29732 -1.712058,-1.12388 -0.457849,-2.88526 0.548777,-0.77068 1.236267,-0.99418 1.236267,-0.40192 0,0.18723 -0.164496,0.47693 -0.365538,0.64379 -0.549413,0.45597 -1.114082,1.70673 -0.845476,1.87275 0.127378,0.0787 0.604077,-0.0871 1.059355,-0.36846 1.017583,-0.62891 1.752286,-0.68121 1.532749,-0.10911 -0.08497,0.22136 -0.276844,0.88856 -0.42644,1.48266 -0.315528,1.25309 -0.95465,1.48409 -0.95465,0.34502 z"
     id="path18235" />
  <path
     id="path18231"
     style="fill:#000000;stroke-width:0.750752;stroke-miterlimit:4;stroke-dasharray:none"
     d="m 78.129675,181.30717 c 0.11048,-0.3371 -1.279291,-0.94761 -1.644019,-0.7222 -0.185354,0.11456 -0.184847,0.30781 0.0022,0.6564 0.284304,0.53124 1.474123,0.57891 1.642301,0.0658 z m -1.411149,1.21174 c -1.862389,-0.68478 -1.528561,-3.2311 0.564475,-4.30554 0.896813,-0.46038 1.412411,-0.44427 1.412411,0.0442 0,0.12607 -0.413107,0.40183 -0.918007,0.61278 -0.875695,0.36589 -1.29394,0.74556 -1.302211,1.1821 -0.0022,0.10995 0.114638,0.12673 0.259365,0.0373 0.144727,-0.0895 0.62812,-0.0942 1.074199,-0.0108 1.35952,0.25505 1.683901,1.79084 0.492873,2.3335 -0.660121,0.30078 -0.993237,0.32313 -1.583105,0.10624 z" />
  <path
     style="fill:#000000;stroke-width:0.750752;stroke-miterlimit:4;stroke-dasharray:none"
     d="m 83.884737,181.86411 c 0,-0.57539 0.264018,-1.16306 0.860396,-1.91511 l 0.860397,-1.08499 -1.247172,-0.0752 c -1.543296,-0.0932 -1.520494,-0.57737 0.04006,-0.84972 1.353582,-0.23623 2.451696,-0.0239 2.451696,0.47423 0,0.2062 -0.432811,0.86659 -0.961797,1.46754 -0.533823,0.60646 -1.033605,1.47548 -1.123194,1.95304 -0.215434,1.1484 -0.880348,1.17125 -0.880348,0.0302 z"
     id="path18229" />
  <path
     style="fill:#000000;stroke-width:0.750752;stroke-miterlimit:4;stroke-dasharray:none"
     d="m 99.095845,181.72807 c -0.07644,-0.12364 -0.0745,-0.39279 0.0043,-0.5981 0.0976,-0.25433 -0.03379,-0.39927 -0.412288,-0.45475 -0.881784,-0.12927 -0.88322,-0.69922 -0.0022,-0.69922 0.601604,0 0.789075,-0.12695 0.912274,-0.61777 0.214364,-0.85415 0.942159,-0.83616 0.778649,0.0192 -0.0945,0.494 0.009,0.69627 0.45766,0.90101 0.68911,0.31398 0.55044,0.68596 -0.25571,0.68596 -0.36656,0 -0.62114,0.17883 -0.703614,0.49423 -0.13486,0.5157 -0.540625,0.65594 -0.779509,0.2694 z"
     id="path18227" />
  <path
     style="fill:#000000;stroke-width:0.750752;stroke-miterlimit:4;stroke-dasharray:none"
     d="m 27.15824,181.09586 c -0.43619,-0.32992 -0.317267,-0.36352 1.311885,-0.37066 0.985355,-0.004 1.791553,0.0914 1.791553,0.21281 0,0.59755 -2.363186,0.71775 -3.103438,0.15785 z"
     id="path18225" />
  <path
     style="fill:#000000;stroke-width:0.750752;stroke-miterlimit:4;stroke-dasharray:none"
     d="m 33.987524,181.21895 c -1.508825,-0.1808 -1.648046,-0.74873 -0.183541,-0.74873 1.19525,0 1.894131,0.18236 1.894131,0.49423 0,0.31356 -0.543217,0.39438 -1.71059,0.2545 z"
     id="path18223" />
  <path
     style="fill:#000000;stroke-width:0.750752;stroke-miterlimit:4;stroke-dasharray:none"
     d="m 91.792292,180.96445 c 0,-0.27183 -0.153182,-0.49423 -0.340415,-0.49423 -0.187223,0 -0.478836,-0.1668 -0.648028,-0.37066 -0.323141,-0.38936 -0.29494,-0.40568 0.810072,-0.46903 0.241681,-0.0138 0.575282,-0.29072 0.741333,-0.61524 0.389744,-0.7617 0.818473,-0.59394 0.718562,0.28116 -0.05539,0.48473 0.03325,0.67955 0.308888,0.67955 0.603634,0 0.453573,0.48095 -0.231304,0.74134 -0.339777,0.12918 -0.617777,0.34883 -0.617777,0.48809 0,0.13928 -0.166795,0.25324 -0.370666,0.25324 -0.205922,0 -0.370665,-0.21966 -0.370665,-0.49422 z"
     id="path18221" />
  <path
     id="path18215"
     style="fill:#000000;stroke-width:0.750752;stroke-miterlimit:4;stroke-dasharray:none"
     d="m 80.837042,170.42104 c -0.499901,-0.49989 0.442366,-2.34586 2.336841,-4.57807 0.902266,-1.06312 0.824585,-1.52466 -0.338416,-2.0106 -0.972982,-0.40654 -1.668948,-1.04975 -1.668948,-1.54245 0,-0.54709 0.664872,-0.42274 2.246129,0.42005 1.423435,0.75868 1.462821,0.76495 2.116745,0.33648 0.366476,-0.24013 0.896942,-0.68375 1.178828,-0.98583 0.710897,-0.76184 1.584282,-1.01033 1.777874,-0.50583 0.09922,0.25851 -0.250274,0.82221 -1.019677,1.64476 l -1.170602,1.25147 0.777327,0.47273 c 0.427521,0.25999 0.858032,0.48403 0.95668,0.49786 0.09868,0.0138 0.671597,0.57401 1.273234,1.24485 0.991023,1.10503 1.057626,1.25596 0.708381,1.6052 -0.305931,0.30593 -0.493434,0.32772 -0.908538,0.10559 -0.287674,-0.15396 -0.523048,-0.38371 -0.523048,-0.51054 0,-0.43044 -2.726327,-2.2567 -3.250065,-2.1771 -0.303966,0.0462 -0.73398,0.4972 -1.063685,1.11558 -0.304386,0.57092 -0.791914,1.34933 -1.083376,1.72978 -0.291474,0.38046 -0.761231,0.99754 -1.043905,1.37129 -0.501218,0.66273 -0.968912,0.84768 -1.301779,0.51481 z m 9.470933,3.7487 c 0.773279,-0.39185 1.461104,-1.00226 1.956459,-1.73624 1.569479,-2.32552 1.608832,-2.46966 1.617761,-5.92504 0.0076,-3.03783 -0.03131,-3.29975 -0.720214,-4.81866 -0.696808,-1.53633 -1.973604,-3.26476 -3.840797,-5.19938 -1.497704,-1.55179 -1.974564,-1.75477 -3.829871,-1.63021 -0.912575,0.0613 -1.780831,0.233 -1.929435,0.38161 -0.148614,0.14861 -0.583077,0.27021 -0.965467,0.27021 -0.382392,0 -0.888349,0.10138 -1.124351,0.2252 -0.236,0.12386 -0.972172,0.41674 -1.635942,0.65085 -1.247333,0.43992 -3.117592,2.05967 -3.117592,2.70001 0,0.19998 -0.286366,1.00619 -0.636358,1.79155 -0.567885,1.27429 -0.625193,1.66723 -0.532591,3.65194 0.132678,2.84378 0.58042,3.9878 2.600147,6.64346 1.338336,1.75972 3.828726,3.32706 6.092,3.83399 1.311885,0.29384 4.775905,-0.18542 6.066251,-0.83929 z m -7.041015,1.8439 c -3.359142,-1.11399 -4.13512,-1.55709 -5.472237,-3.12483 -1.505704,-1.76537 -2.805454,-3.73782 -2.807494,-4.2605 -7.45e-4,-0.21453 -0.168026,-0.70933 -0.37153,-1.09952 -0.203492,-0.3902 -0.439127,-1.6134 -0.523621,-2.71822 -0.137871,-1.80268 -0.08162,-2.21161 0.548108,-3.98566 0.385953,-1.08729 0.954153,-2.42941 1.262663,-2.98248 0.983153,-1.76251 3.796088,-3.38267 6.425203,-3.70071 0.788221,-0.0953 1.557754,-0.2725 1.71006,-0.39369 0.384066,-0.30561 2.469834,-0.31003 3.770857,-0.008 0.907145,0.21059 1.407402,0.60015 3.088885,2.40534 1.814128,1.94759 3.365339,4.23237 3.36549,4.95703 3.2e-5,0.15261 0.241854,0.81981 0.537386,1.48266 0.447591,1.00393 0.530833,1.61785 0.498475,3.67631 -0.05312,3.37717 -0.403368,4.86134 -1.530762,6.48626 -1.352373,1.94919 -3.551234,3.26417 -6.065787,3.62754 -0.672785,0.0972 -1.445653,0.22161 -1.717467,0.2764 -0.271824,0.0548 -1.495026,-0.23226 -2.718229,-0.63791 z" />
  <path
     id="path18209"
     style="fill:#000000;stroke-width:0.750752;stroke-miterlimit:4;stroke-dasharray:none"
     d="m 28.969076,168.28687 c -1.429935,-1.53275 -3.402502,-4.10873 -3.402502,-4.44332 0,-0.20411 0.185441,-0.44227 0.412081,-0.52923 0.29656,-0.11381 0.850777,0.31178 1.976821,1.51801 0.860601,0.92187 1.564761,1.75954 1.564794,1.86147 4.3e-5,0.10192 0.151766,0.18533 0.337164,0.18533 0.185409,0 0.537116,-0.5282 0.781582,-1.17378 0.570553,-1.50669 1.121068,-2.26824 1.646739,-2.27801 0.547859,-0.01 0.823191,0.45625 0.474928,0.80452 -0.151259,0.15125 -0.275009,0.45292 -0.275009,0.67039 0,0.21745 -0.134093,0.52946 -0.297973,0.69335 -0.163891,0.16389 -0.535594,0.93672 -0.82602,1.71742 -0.440703,1.18467 -0.635872,1.4323 -1.179962,1.49717 -0.44106,0.0526 -0.833297,-0.11668 -1.212643,-0.52332 z m 1.094626,5.51136 c 0.148279,0 4.309354,-2.7615 5.572634,-3.69829 0.441718,-0.32754 0.80311,-0.69646 0.80311,-0.81981 0,-0.12335 0.225625,-0.54112 0.501379,-0.92839 0.325775,-0.45751 0.596303,-1.43944 0.772394,-2.80357 0.236605,-1.83293 0.213782,-2.29054 -0.179859,-3.60466 -0.249291,-0.83222 -0.732738,-1.77733 -1.081282,-2.11386 -0.98501,-0.95101 -2.095497,-1.84588 -2.291076,-1.84622 -0.09792,-1.6e-4 -0.765106,-0.26674 -1.482664,-0.5924 -0.717569,-0.32567 -2.429433,-0.78718 -3.804154,-1.02561 l -2.49949,-0.43352 -1.788347,1.4269 c -1.782267,1.42204 -3.714887,3.94464 -3.714887,4.84894 0,0.24274 -0.100732,0.50361 -0.223953,0.57974 -0.371907,0.22986 -0.53406,2.39782 -0.287554,3.84454 0.535043,3.14018 0.956139,4.29922 1.840471,5.06576 2.487184,2.15594 2.756881,2.2854 5.343036,2.56497 1.164901,0.12593 1.713407,0.0859 1.996341,-0.14544 0.214569,-0.17548 0.450323,-0.31908 0.523901,-0.31908 z m -4.467632,1.57048 c -3.38812,-1.0715 -6.040717,-3.88762 -6.319667,-6.70927 -0.07115,-0.71972 -0.241766,-1.5186 -0.379152,-1.77531 -0.620573,-1.15956 -0.231251,-3.26095 1.18453,-6.39354 0.550816,-1.21875 3.399898,-4.48434 3.912388,-4.48434 0.185268,0 0.336851,-0.0983 0.336851,-0.21841 0,-0.12013 0.59166,-0.45856 1.314811,-0.75207 1.120797,-0.45489 1.421642,-0.48958 2.038664,-0.23503 0.398122,0.16423 1.258258,0.32714 1.911415,0.362 0.653157,0.0349 1.431554,0.22206 1.729775,0.41599 0.298221,0.19393 0.987018,0.49578 1.530655,0.67082 1.508803,0.48575 3.688793,1.67343 4.244316,2.31235 0.273542,0.3146 0.820471,1.16728 1.215408,1.89485 0.674157,1.242 0.716976,1.49003 0.700403,4.05795 -0.01468,2.27729 -0.107426,2.92123 -0.554261,3.84709 -0.732911,1.51877 -3.514094,4.05444 -6.628846,6.04368 -1.726418,1.10257 -4.461241,1.52492 -6.23729,0.96324 z" />
  <path
     id="path18203"
     style="fill:#000000;stroke-width:0.750752;stroke-miterlimit:4;stroke-dasharray:none"
     d="m 12.676179,150.07268 c -0.22621,-0.1348 -0.949004,-0.30688 -1.60622,-0.3824 -2.5033139,-0.28766 -2.9188828,-0.44738 -3.0015193,-1.15367 -0.042214,-0.36108 0.1150477,-0.96873 0.3495481,-1.35032 0.6098522,-0.9924 4.2699372,-4.52404 4.6885722,-4.52404 0.723917,0 0.306847,0.91946 -1.076564,2.37327 -1.531594,1.60955 -2.3943552,2.7826 -2.1939502,2.98301 0.068234,0.0682 0.6053172,0.22765 1.1935222,0.35428 1.383315,0.29777 3.207873,1.21713 3.095287,1.55965 -0.118751,0.3613 -0.943681,0.44114 -1.448676,0.14022 z m 1.646846,4.80926 c 1.087286,-0.51736 2.08809,-1.0704 2.223997,-1.22897 0.135917,-0.15857 0.599747,-0.52929 1.030754,-0.82381 1.513143,-1.03401 3.046572,-4.74798 3.046572,-7.3788 0,-3.89815 -3.936972,-7.5392 -8.77243,-8.11303 -3.1752456,-0.37682 -6.3834204,2.38366 -7.0501163,6.06625 -0.6374912,3.52128 0.449254,8.46673 2.2250547,10.12557 1.1916225,1.11315 4.4697476,2.58711 5.1957276,2.33618 0.06791,-0.0234 1.013156,-0.46602 2.100441,-0.98339 z m -4.9693138,1.89302 c -2.222377,-0.5723 -4.3518607,-3.13484 -5.5318122,-6.65674 -0.6624637,-1.97731 -0.7356857,-2.47525 -0.6309162,-4.29045 0.1431941,-2.48115 0.6928557,-4.67476 1.5052722,-6.00729 0.7801025,-1.27953 2.1850642,-2.84178 2.5556763,-2.84178 0.1594215,0 1.2994799,-0.33271 2.533468,-0.73936 2.2362837,-0.73696 2.6842947,-0.76028 2.6842947,-0.13976 0,0.36871 0.750607,0.62361 1.851139,0.62864 1.171315,0.005 4.206238,1.63845 5.210908,2.80401 1.265536,1.46817 2.100829,2.97174 2.250437,4.05084 0.276704,1.99595 0.266059,3.5802 -0.03163,4.70327 -0.365906,1.38048 -1.480473,3.65372 -1.930613,3.93758 -0.173748,0.10956 -0.615066,0.56347 -0.980702,1.00867 -0.896845,1.09202 -2.73628,2.46964 -4.048629,3.03218 -1.215925,0.5212 -4.27825,0.80857 -5.4369221,0.51019 z" />
  <path
     id="path18197"
     style="fill:#000000;stroke-width:0.750752;stroke-miterlimit:4;stroke-dasharray:none"
     d="m 43.48832,149.83853 c -0.308899,-0.49981 0.541294,-1.25342 2.555709,-2.26539 l 2.09175,-1.05081 -0.983163,-0.41757 c -0.540744,-0.22965 -1.341392,-0.49624 -1.779212,-0.59239 -1.260797,-0.27692 -2.001805,-1.86167 -0.870491,-1.86167 0.205619,0 0.847904,0.27781 1.42731,0.61736 0.579395,0.33955 1.11352,0.5573 1.186936,0.48388 0.07342,-0.0734 0.593172,0.0504 1.155023,0.27526 1.089833,0.43607 1.554666,1.31014 1.095264,2.05953 -0.132905,0.21681 -1.066685,0.80286 -2.075058,1.30232 -1.008363,0.49948 -2.050606,1.08328 -2.316092,1.29733 -0.541477,0.43659 -1.266366,0.51071 -1.487976,0.15215 z m 4.441785,5.1283 c 2.736151,-0.49161 5.097674,-1.42889 6.222379,-2.46964 0.296365,-0.27424 0.614538,-0.95909 0.707075,-1.52189 0.09253,-0.5628 0.433847,-1.59 0.758499,-2.28267 0.782532,-1.66961 0.757257,-2.97931 -0.08929,-4.62801 -1.802349,-3.51016 -5.080702,-5.61434 -8.710664,-5.59086 -0.883425,0.005 -1.995423,-0.0378 -2.471108,-0.0966 -0.475694,-0.0588 -1.478248,-0.18474 -2.227904,-0.27974 l -1.363007,-0.17272 -1.427904,1.497 c -0.957813,1.00417 -1.712231,2.12094 -2.291594,3.39225 -0.812081,1.78201 -0.857222,2.01698 -0.755464,3.9326 0.09253,1.7409 0.255715,2.35208 1.121952,4.20057 0.976502,2.08379 1.193404,2.37176 2.450702,3.25349 0.694346,0.48694 3.303238,1.20274 4.493219,1.2328 0.475685,0.012 2.088091,-0.19794 3.583106,-0.46655 z m -6.78599,1.47253 c -0.879862,-0.23371 -2.254054,-1.18721 -3.64023,-2.52583 -0.498486,-0.48137 -1.082933,-1.53273 -1.587585,-2.85588 -0.717472,-1.88114 -0.800573,-2.37045 -0.817318,-4.81228 -0.01717,-2.49814 0.03746,-2.8325 0.674448,-4.12963 1.317564,-2.68308 5.285447,-6.12205 7.071493,-6.12886 0.486362,-0.002 1.134498,-0.0704 1.440299,-0.15237 0.396686,-0.10634 0.555999,-0.0422 0.555999,0.22369 0,0.20499 -0.291117,0.44577 -0.646938,0.53508 -1.014333,0.25458 -0.505342,0.44981 1.319831,0.50626 2.934419,0.0908 5.534663,0.57422 6.481583,1.20512 2.437152,1.6238 4.690677,4.08345 4.702348,5.13246 0.0022,0.22231 0.170617,0.72271 0.373645,1.112 0.547535,1.04986 0.456207,2.94196 -0.230678,4.77901 -0.331572,0.88679 -0.668575,1.92327 -0.748901,2.30331 -0.284466,1.34588 -3.634821,3.88228 -5.567343,4.21477 -0.339777,0.0584 -1.062572,0.22604 -1.60622,0.37241 -1.315772,0.35424 -6.69667,0.50702 -7.774433,0.22074 z" />
  <path
     id="path18189"
     style="fill:#000000;stroke-width:0.750752;stroke-miterlimit:4;stroke-dasharray:none"
     d="m 32.051028,129.76065 c -0.146109,-0.17604 -0.428201,-1.15381 -0.626868,-2.17282 -0.397192,-2.0372 -0.798359,-3.21185 -1.096926,-3.21185 -0.245847,0 -0.691247,0.69738 -1.736005,2.71812 -1.364506,2.63917 -2.475858,3.52732 -2.191919,1.75169 0.432605,-2.70536 3.778317,-7.4802 4.799236,-6.84923 0.133466,0.0825 0.320818,0.5682 0.416345,1.07936 0.09555,0.51117 0.278357,1.05613 0.406306,1.21101 0.21606,0.26157 0.992125,4.04933 1.054572,5.14712 0.0326,0.57213 -0.642437,0.78725 -1.024741,0.3266 z m 0.566731,6.73938 c 1.596697,-0.77639 4.025946,-2.93897 4.644069,-4.13429 0.55399,-1.07129 0.981911,-3.81329 0.996227,-6.38354 0.01425,-2.56112 -0.07989,-3.12345 -0.729024,-4.35377 -0.53634,-1.01652 -2.653018,-2.936 -3.237661,-2.936 -0.213544,0 -0.734972,-0.20872 -1.158747,-0.46383 -0.889266,-0.5353 -1.668019,-0.63457 -4.673986,-0.59576 -2.088445,0.027 -2.233842,0.0665 -3.70666,1.00667 -0.843133,0.53825 -1.870044,1.16915 -2.282039,1.40202 -0.758757,0.42888 -1.327821,1.21103 -2.139406,2.94055 -0.725094,1.54518 -0.606689,4.25883 0.309083,7.08416 0.812988,2.5082 1.333986,3.33419 3.40099,5.3919 1.467441,1.46085 2.071473,1.65482 5.364714,1.72279 1.459366,0.0301 1.974856,-0.0791 3.21244,-0.6809 z m -6.556964,1.67545 c -0.475694,-0.13777 -1.04045,-0.40782 -1.255019,-0.60011 -0.214559,-0.19229 -0.530293,-0.34961 -0.701623,-0.34961 -0.17133,0 -1.053611,-0.75399 -1.960626,-1.67551 -1.334309,-1.35566 -1.737797,-1.9571 -2.113678,-3.15066 -0.2555,-0.81134 -0.692683,-2.03117 -0.971503,-2.71072 -0.390575,-0.95192 -0.505903,-1.77446 -0.502405,-3.58311 0.0043,-2.16267 0.388307,-4.20088 0.791698,-4.20088 0.0922,0 0.310777,-0.32341 0.485745,-0.71868 0.482821,-1.09076 2.223566,-2.95354 3.230395,-3.45684 2.343752,-1.1716 7.039654,-1.54653 10.186882,-0.81333 2.387467,0.55619 5.263109,2.79643 5.774066,4.49821 0.101379,0.3378 0.338556,0.85885 0.526966,1.15788 0.590182,0.93667 0.114087,7.31183 -0.653092,8.74531 -0.116397,0.21749 -0.261805,0.67218 -0.32315,1.01045 -0.283052,1.56094 -3.039436,4.19241 -5.967668,5.69724 -0.871862,0.44804 -5.177751,0.54694 -6.546988,0.15036 z" />
  <path
     id="path18185"
     style="fill:#000000;stroke-width:0.750752;stroke-miterlimit:4;stroke-dasharray:none"
     d="m 105.72509,129.65915 c 0.64946,-0.24923 1.86496,-2.21875 1.86496,-3.02189 0,-0.85104 -0.63685,-2.07714 -1.29112,-2.48574 -0.2472,-0.15438 -0.94167,-0.34815 -1.54324,-0.43061 -1.11707,-0.15311 -1.49964,0.0814 -2.74223,1.68072 -0.83969,1.08078 -0.86376,2.1398 -0.0703,3.09583 0.75512,0.90987 2.80074,1.5382 3.78195,1.16169 z m -1.15155,1.5024 c -0.0734,-0.0734 -0.61969,-0.19213 -1.21389,-0.26375 -1.24455,-0.15002 -1.75332,-0.54269 -2.62061,-2.0226 -0.746562,-1.27392 -0.65943,-2.36879 0.33304,-4.18537 0.80243,-1.46873 1.18952,-1.84405 2.46783,-2.39281 0.98386,-0.42237 1.04957,-0.42053 2.10044,0.0589 1.20724,0.55078 1.8256,1.14929 2.78406,2.69468 1.03308,1.6657 0.86389,2.35946 -1.1613,4.76179 -0.91095,1.08061 -2.27425,1.76446 -2.68957,1.34914 z m -4.643932,7.17136 c -4.201834,-1.97889 -4.745018,-2.40362 -5.249301,-4.10454 -1.446356,-4.87849 -1.550693,-8.37148 -0.323907,-10.84321 1.205637,-2.4291 1.736491,-3.37399 2.113657,-3.76221 0.20387,-0.20984 0.57025,-0.65774 0.814176,-0.99534 0.631693,-0.87424 3.395837,-2.20886 4.867687,-2.35028 0.82349,-0.0791 1.23725,-0.0257 1.23725,0.15967 0,0.1532 -0.12536,0.27855 -0.27858,0.27855 -0.1532,0 -1.015,0.35615 -1.9151,0.79147 -1.665073,0.80528 -3.329303,2.14564 -3.772986,3.03875 -0.135043,0.27183 -0.566764,1.05022 -0.959379,1.72977 -1.578742,2.73252 -1.600357,2.80855 -1.581485,5.55999 0.01436,2.08424 0.148409,3.01628 0.681682,4.73781 0.566288,1.8281 0.80501,2.25491 1.62398,2.90355 0.528057,0.41823 1.046539,0.76042 1.152194,0.76042 0.105697,0 0.367642,0.14761 0.58221,0.32803 0.430701,0.36214 1.804444,0.7772 3.414624,1.03164 1.69519,0.26789 4.74996,-0.62933 6.31201,-1.85389 3.01419,-2.36297 4.71737,-5.69693 5.03864,-9.86314 0.23099,-2.99544 -0.62387,-5.18235 -2.98083,-7.62555 -1.38372,-1.43436 -3.57064,-2.70126 -5.02165,-2.90908 -2.38308,-0.34131 -4.98445,-0.0662 -6.154723,0.65096 -0.42377,0.25968 -0.896368,0.47216 -1.050218,0.47216 -0.510374,0 -0.289325,-0.70505 0.276267,-0.88118 0.305801,-0.0952 1.101301,-0.43453 1.767774,-0.754 1.30031,-0.6233 3.58525,-1.10667 4.60158,-0.97344 1.30891,0.17158 4.33122,1.37905 4.65723,1.86066 0.18647,0.27546 0.4788,0.50085 0.64962,0.50085 0.17083,0 1.01906,0.75459 1.88497,1.67687 1.90507,2.02912 2.67331,3.97661 2.79906,7.09556 0.11796,2.92611 -0.5461,5.16336 -2.60385,8.77244 -0.50484,0.88546 -2.8869,3.2048 -3.29648,3.20971 -0.12521,0.001 -0.40321,0.15516 -0.61778,0.3415 -0.78431,0.68104 -3.35094,1.42327 -5.32162,1.53892 -1.76444,0.10354 -2.14021,0.0448 -3.346722,-0.52342 z" />
  <path
     id="path101"
     style="fill:#000000;stroke-width:0.750752;stroke-miterlimit:4;stroke-dasharray:none"
     d="m 33.551377,18.232117 c -0.225237,-0.701441 -0.06877,-3.117972 0.220616,-3.407358 0.08994,-0.0899 0.288731,-0.08605 0.441836,0.0085 0.185744,0.114799 0.222852,0.616341 0.111518,1.507411 -0.09998,0.800167 -0.07223,1.33537 0.0692,1.33537 0.200622,0 0.433826,-0.588947 0.962176,-2.42988 0.05204,-0.181191 0.233496,-0.280276 0.403304,-0.220189 0.452999,0.160285 0.287003,1.728896 -0.305952,2.891178 -0.631866,1.23855 -1.556955,1.39165 -1.902692,0.314891 z M 15.174266,17.072558 c -0.276402,-1.713391 -0.349462,-1.867549 -0.885142,-1.867549 -0.662355,0 -0.781624,-0.365463 -0.192999,-0.59134 0.525672,-0.20172 2.203894,-0.191077 2.410248,0.01529 0.09091,0.09091 -0.01749,0.367199 -0.240795,0.613987 -0.377155,0.416754 -0.394775,1.643288 -0.04545,3.167432 0.04394,0.191615 -0.10559,0.389193 -0.332349,0.439063 -0.337434,0.07423 -0.46683,-0.248018 -0.713455,-1.776878 z m 21.203402,1.81932 c -0.684801,-0.398866 -0.507663,-0.685348 0.475122,-0.7684 1.13249,-0.0957 1.34163,-0.578234 0.33764,-0.77903 -0.413032,-0.0826 -0.750984,-0.274812 -0.750984,-0.427117 0,-0.467053 1.000643,-1.712322 1.37594,-1.712322 0.459231,0 0.447614,0.228128 -0.03898,0.765838 -0.36422,0.402467 -0.337218,0.462847 0.370667,0.828914 0.533865,0.276068 0.763518,0.574521 0.763518,0.992245 0,1.056116 -1.494108,1.70491 -2.532895,1.099872 z m 5.107347,-2.354198 c 0.559962,-0.214878 0.483102,-0.83845 -0.103323,-0.83845 -0.329487,0 -0.49422,0.164741 -0.49422,0.494221 0,0.544169 0.03055,0.561795 0.597565,0.344229 z m -0.242986,2.132997 c 0.348619,-0.132547 0.633864,-0.395127 0.633864,-0.58351 0,-0.521444 -1.166846,-0.206268 -1.31357,0.354806 -0.142741,0.545825 -0.148916,0.543745 0.679706,0.228704 z m -1.497445,0.80223 c -0.189932,-0.130212 -0.217064,-0.621028 -0.08572,-1.549679 0.295113,-2.085775 0.612055,-2.718219 1.362219,-2.718219 1.126595,0 1.667134,0.447915 1.506956,1.248758 -0.07795,0.389932 -0.03422,0.77544 0.09717,0.856686 0.447688,0.276685 0.250371,1.335403 -0.316976,1.700797 -0.692532,0.446014 -2.192567,0.716129 -2.563752,0.461657 z M 11.234141,18.293894 c 0,-0.205926 -0.219655,-0.370666 -0.494222,-0.370666 -0.49231,0 -0.64277,0.263307 -0.329488,0.576591 0.300964,0.300965 0.82371,0.17028 0.82371,-0.205925 z M 9.8127792,19.344115 C 9.6772938,19.174226 9.5126144,18.701628 9.4467988,18.293894 9.3810481,17.886161 9.2449147,17.360546 9.14441,17.125861 9.0090325,16.809759 9.128755,16.623053 9.6061231,16.405527 c 0.5632869,-0.256648 0.7223729,-0.220433 1.2630629,0.287517 0.650469,0.611085 0.99016,0.49968 1.146602,-0.376037 0.05107,-0.285791 0.319047,-0.527175 0.635451,-0.572359 0.607357,-0.08674 1.409506,0.984429 1.688531,2.254803 0.219483,0.999292 -0.274231,1.430982 -0.662355,0.579145 -0.349289,-0.766606 -0.952933,-0.861678 -1.131648,-0.178234 -0.0691,0.26429 -0.557079,0.650108 -1.093871,0.864889 -1.170019,0.46815 -1.322822,0.475503 -1.6391168,0.07887 z" />
  <rect
     y="-110.93537"
     x="-108.98937"
     height="89.924255"
     width="100.78787"
     id="rect93-2"
     style="fill:none;fill-opacity:1;stroke:#000000;stroke-width:1.44;stroke-linecap:round;stroke-linejoin:round;stroke-miterlimit:4;stroke-dasharray:none;stroke-opacity:1;paint-order:markers stroke fill"
     transform="scale(-1)"
     ry="1.1338601"
     rx="1.1338601" />
  <rect
     style="fill:none;stroke:#000000;stroke-width:1.44000253;stroke-linecap:round;stroke-linejoin:round;stroke-miterlimit:4;stroke-dasharray:none;paint-order:markers stroke fill"
     id="rect15536"
     width="3.1401262"
     height="3.9738235"
     x="22.346556"
     y="0.75225276" />
</svg>
